<svg width="340" height="373" viewBox="0 0 340 373" fill="none" xmlns="http://www.w3.org/2000/svg">
<path d="M201.532 364.049C182.019 375.317 157.981 375.317 138.468 364.049L32.0317 302.587C12.521 291.319 0.5 270.497 0.5 247.962V125.038C0.5 102.503 12.521 81.6813 32.0317 70.4131L138.468 8.95111L138.218 8.51811L138.468 8.9511C157.981 -2.31703 182.019 -2.31703 201.532 8.9511L201.782 8.51811L201.532 8.95111L307.968 70.4131C327.479 81.6813 339.5 102.503 339.5 125.038V247.962C339.5 270.497 327.479 291.319 307.968 302.587L201.532 364.049Z" fill="black" stroke="url(#paint0_linear_431_37812)"/>
<g clip-path="url(#clip0_431_37812)">
<path d="M247.562 215.748C253.754 217.893 257.577 221.991 257.951 228.573C258.282 234.417 255.685 238.962 250.436 241.598C244.547 244.553 239.032 243.426 234.038 239.086C233.343 239.458 232.633 239.819 231.944 240.213C216.197 249.249 200.461 258.3 184.702 267.314C183.553 267.972 183.038 268.544 183.238 270.091C184.225 277.741 179.399 284.442 172.165 285.763C164.763 287.116 157.692 282.663 155.99 275.363C155.556 273.509 155.876 271.493 155.708 269.568C155.653 268.916 155.35 267.999 154.856 267.713C138.616 258.322 122.342 248.979 106.042 239.69C105.548 239.41 104.486 239.534 104.019 239.895C99.2201 243.604 94.009 244.332 88.6298 241.642C83.3102 238.984 80.6693 234.39 81.0381 228.46C81.4068 222.541 84.6062 218.438 90.1861 216.297C91.2868 215.877 91.5309 215.305 91.5254 214.238C91.4983 195.735 91.4929 177.233 91.5363 158.73C91.5363 157.474 91.032 157.054 89.9746 156.622C84.5194 154.417 81.3797 150.347 81.0327 144.508C80.6802 138.573 83.321 133.995 88.6406 131.338C93.9439 128.69 99.1497 129.321 103.819 133.047C104.713 133.758 105.288 133.823 106.264 133.262C122.342 123.989 138.431 114.743 154.558 105.551C155.719 104.888 155.876 104.231 155.724 103.012C154.775 95.2542 159.639 88.4505 166.916 87.2213C174.405 85.9544 181.346 90.4075 183.027 97.7234C183.423 99.454 183.439 101.352 183.2 103.12C183.016 104.484 183.477 104.991 184.529 105.589C198.183 113.39 211.816 121.229 225.448 129.062C228.252 130.674 231.06 132.281 233.842 133.877C243.516 127.801 252.051 129.116 256.422 137.23C259.779 143.462 258.201 153.668 247.556 157.291V215.758L247.562 215.748ZM159.455 110.711C159.33 110.754 159.189 110.77 159.075 110.835C142.563 120.302 126.062 129.785 109.523 139.214C108.39 139.861 108.552 140.627 108.693 141.57C109.431 146.632 107.848 150.908 103.954 154.185C102.392 155.501 100.435 156.358 98.4772 157.533V215.737C98.7104 215.85 98.8785 215.958 99.0629 216.017C105.608 218.023 110.076 224.913 108.612 231.808C108.352 233.032 109.003 233.452 109.876 233.954C117.202 238.137 124.517 242.348 131.832 246.548C141.018 251.82 150.204 257.093 159.438 262.392C162.334 259.751 165.609 258.246 169.546 258.263C173.467 258.279 176.731 259.81 179.562 262.403C196.236 252.828 212.792 243.302 229.374 233.83C230.448 233.215 230.459 232.525 230.312 231.522C229.336 224.789 232.758 218.831 239.07 216.378C240.16 215.952 240.61 215.489 240.61 214.26C240.566 195.757 240.566 177.254 240.61 158.752C240.61 157.539 240.192 157.048 239.086 156.617C232.758 154.159 229.287 148.196 230.345 141.489C230.578 140.007 229.922 139.484 228.853 138.874C215.498 131.23 202.158 123.558 188.813 115.897C185.722 114.123 182.62 112.366 179.567 110.625C174.172 115.584 166.276 116.62 159.455 110.716V110.711Z" fill="url(#paint1_linear_431_37812)"/>
<path d="M169.4 228.481C146.137 228.438 127.261 209.612 127.271 186.452C127.282 163.232 146.299 144.427 169.682 144.508C192.939 144.589 211.772 163.464 211.713 186.635C211.648 209.769 192.685 228.525 169.4 228.481ZM161.624 192.802C158.94 189.449 156.499 186.22 153.842 183.185C152.931 182.144 151.554 181.238 150.225 180.893C148.078 180.333 146.256 181.314 145.052 183.212C143.859 185.088 143.995 187.228 145.557 189.212C149.136 193.767 152.78 198.275 156.391 202.803C159.363 206.523 162.356 206.706 165.734 203.358C174.584 194.565 183.428 185.767 192.267 176.963C192.836 176.397 193.428 175.815 193.856 175.146C195.976 171.815 193.747 167.512 189.794 167.286C187.891 167.178 186.481 168.138 185.185 169.432C177.935 176.677 170.658 183.896 163.392 191.126C162.871 191.643 162.329 192.134 161.624 192.808V192.802Z" fill="url(#paint2_linear_431_37812)"/>
</g>
<defs>
<linearGradient id="paint0_linear_431_37812" x1="340" y1="186.5" x2="0" y2="186.5" gradientUnits="userSpaceOnUse">
<stop offset="0.0913122" stop-color="#24AD7C"/>
<stop offset="1" stop-color="#1845B9"/>
</linearGradient>
<linearGradient id="paint1_linear_431_37812" x1="257.999" y1="186.506" x2="81.0015" y2="186.506" gradientUnits="userSpaceOnUse">
<stop offset="0.0913122" stop-color="#24AD7C"/>
<stop offset="1" stop-color="#1845B9"/>
</linearGradient>
<linearGradient id="paint2_linear_431_37812" x1="211.713" y1="186.495" x2="127.271" y2="186.495" gradientUnits="userSpaceOnUse">
<stop offset="0.0913122" stop-color="#24AD7C"/>
<stop offset="1" stop-color="#1845B9"/>
</linearGradient>
<clipPath id="clip0_431_37812">
<rect width="177" height="199" fill="white" transform="translate(81 87)"/>
</clipPath>
</defs>
</svg>
