<svg width="340" height="373" viewBox="0 0 340 373" fill="none" xmlns="http://www.w3.org/2000/svg">
<path d="M201.532 364.049C182.019 375.317 157.981 375.317 138.468 364.049L32.0317 302.587C12.521 291.319 0.5 270.497 0.5 247.962V125.038C0.5 102.503 12.521 81.6813 32.0317 70.4131L138.468 8.95111L138.218 8.51811L138.468 8.9511C157.981 -2.31703 182.019 -2.31703 201.532 8.9511L201.782 8.51811L201.532 8.95111L307.968 70.4131C327.479 81.6813 339.5 102.503 339.5 125.038V247.962C339.5 270.497 327.479 291.319 307.968 302.587L201.532 364.049Z" fill="black" stroke="url(#paint0_linear_431_37612)"/>
<path d="M91.824 207V162.2H112.688C122.032 162.2 127.6 167.128 127.6 174.104C127.6 178.008 126.384 180.632 123.888 182.104C121.52 183.448 118.448 184.28 114.8 184.472V187.544C122.032 187.736 125.168 189.528 126.384 196.056L128.432 207H119.472L117.936 196.76C117.168 191.192 114.544 189.4 108.72 189.4H100.144V207H91.824ZM100.144 169.368V182.36H111.216C115.888 182.36 118.96 180.184 118.96 175.832C118.96 171.48 115.888 169.368 111.216 169.368H100.144ZM135.102 175.128H142.91V194.52C142.91 199.128 144.766 201.432 148.414 201.432C154.622 201.432 155.646 194.968 155.646 190.104V175.128H163.454V207H156.158C156.158 204.952 157.374 202.2 159.166 199.64H155.518C153.79 204.504 150.526 207.96 145.406 207.96C138.75 207.96 135.102 203.544 135.102 196.376V175.128ZM172.924 207V162.2H180.732V207H172.924ZM188.123 191.064C188.123 181.016 194.715 174.168 203.547 174.168C212.763 174.168 218.523 181.08 218.523 190.552C218.523 191.512 218.458 192.28 218.395 192.984H195.867C196.123 199.128 199.323 201.816 203.739 201.816C207.835 201.816 210.075 199.384 211.547 196.056L218.587 198.68C216.347 204.312 211.611 207.96 203.675 207.96C194.267 207.96 188.123 201.624 188.123 191.064ZM196.123 187.224H210.651C210.395 182.616 207.643 179.992 203.547 179.992C199.643 179.992 196.699 182.616 196.123 187.224ZM223.108 198.808L230.34 196.44C230.852 199.256 233.028 202.072 238.02 202.072C241.668 202.072 243.716 200.664 243.716 198.424C243.716 196.44 242.564 195.16 238.98 194.456L234.756 193.688C228.292 192.344 224.452 190.104 224.452 184.088C224.452 178.2 229.764 174.168 237.38 174.168C245.06 174.168 249.156 177.944 250.692 181.848L244.1 184.664C243.076 181.912 240.772 179.8 237.124 179.8C233.732 179.8 231.876 181.272 231.876 183.384C231.876 185.24 232.9 186.2 236.74 186.968L240.9 187.736C246.34 188.76 251.78 191.512 251.78 197.656C251.78 203.864 246.468 207.896 237.7 207.896C230.532 207.896 224.452 204.44 223.108 198.808Z" fill="white"/>
<path d="M192.9 75.8652C192.908 75.6195 192.851 75.3761 192.735 75.159C192.735 75.159 192.735 75.159 192.735 74.9943C192.647 74.8378 192.536 74.6951 192.406 74.5706L175.929 60.4474L175.646 60.2827L175.435 60.1414C175.187 60.0444 174.923 59.9965 174.658 60.0002H148.765C148.301 60.0002 147.856 60.1829 147.525 60.5089C147.195 60.8349 147.006 61.2779 147 61.7421V118.235C147 118.703 147.186 119.152 147.517 119.483C147.848 119.814 148.297 120 148.765 120H191.135C191.601 119.994 192.047 119.806 192.376 119.476C192.706 119.146 192.894 118.701 192.9 118.235V75.8652ZM176.423 65.5553L186.427 74.1469H176.423V65.5553ZM150.531 116.399V63.531H172.892V75.8652C172.898 76.3322 173.083 76.7791 173.41 77.1127C173.741 77.4439 174.19 77.6302 174.658 77.6306H189.369V116.446L150.531 116.399Z" fill="url(#paint1_linear_431_37612)"/>
<path d="M155.969 75.4654H164.984C165.452 75.4654 165.901 75.2794 166.232 74.9483C166.563 74.6172 166.749 74.1682 166.749 73.7C166.749 73.2318 166.563 72.7827 166.232 72.4516C165.901 72.1206 165.452 71.9346 164.984 71.9346H155.969C155.5 71.9346 155.051 72.1206 154.72 72.4516C154.389 72.7827 154.203 73.2318 154.203 73.7C154.203 74.1682 154.389 74.6172 154.72 74.9483C155.051 75.2794 155.5 75.4654 155.969 75.4654ZM183.932 81.3029H155.969C155.5 81.3029 155.051 81.4889 154.72 81.82C154.389 82.1511 154.203 82.6001 154.203 83.0683C154.203 83.5365 154.389 83.9856 154.72 84.3166C155.051 84.6477 155.5 84.8337 155.969 84.8337H183.932C184.401 84.8337 184.85 84.6477 185.181 84.3166C185.512 83.9856 185.698 83.5365 185.698 83.0683C185.698 82.6001 185.512 82.1511 185.181 81.82C184.85 81.4889 184.401 81.3029 183.932 81.3029ZM183.932 90.6006H155.969C155.5 90.6006 155.051 90.7866 154.72 91.1177C154.389 91.4488 154.203 91.8978 154.203 92.366C154.203 92.8343 154.389 93.2833 154.72 93.6144C155.051 93.9454 155.5 94.1314 155.969 94.1314H183.932C184.401 94.1314 184.85 93.9454 185.181 93.6144C185.512 93.2833 185.698 92.8343 185.698 92.366C185.698 91.8978 185.512 91.4488 185.181 91.1177C184.85 90.7866 184.401 90.6006 183.932 90.6006ZM183.932 99.9455H155.969C155.5 99.9455 155.051 100.131 154.72 100.463C154.389 100.794 154.203 101.243 154.203 101.711C154.203 102.179 154.389 102.628 154.72 102.959C155.051 103.29 155.5 103.476 155.969 103.476H183.932C184.401 103.476 184.85 103.29 185.181 102.959C185.512 102.628 185.698 102.179 185.698 101.711C185.698 101.243 185.512 100.794 185.181 100.463C184.85 100.131 184.401 99.9455 183.932 99.9455ZM183.932 108.819H155.969C155.5 108.819 155.051 109.005 154.72 109.337C154.389 109.668 154.203 110.117 154.203 110.585C154.203 111.053 154.389 111.502 154.72 111.833C155.051 112.164 155.5 112.35 155.969 112.35H183.932C184.401 112.35 184.85 112.164 185.181 111.833C185.512 111.502 185.698 111.053 185.698 110.585C185.698 110.117 185.512 109.668 185.181 109.337C184.85 109.005 184.401 108.819 183.932 108.819Z" fill="url(#paint2_linear_431_37612)"/>
<defs>
<linearGradient id="paint0_linear_431_37612" x1="340" y1="186.5" x2="0" y2="186.5" gradientUnits="userSpaceOnUse">
<stop offset="0.0913122" stop-color="#24AD7C"/>
<stop offset="1" stop-color="#1845B9"/>
</linearGradient>
<linearGradient id="paint1_linear_431_37612" x1="192.901" y1="90" x2="147" y2="90" gradientUnits="userSpaceOnUse">
<stop offset="0.0913122" stop-color="#24AD7C"/>
<stop offset="1" stop-color="#1845B9"/>
</linearGradient>
<linearGradient id="paint2_linear_431_37612" x1="185.698" y1="92.1424" x2="154.203" y2="92.1424" gradientUnits="userSpaceOnUse">
<stop offset="0.0913122" stop-color="#24AD7C"/>
<stop offset="1" stop-color="#1845B9"/>
</linearGradient>
</defs>
</svg>
