<?xml version="1.0" encoding="UTF-8"?>
<svg xmlns="http://www.w3.org/2000/svg" xmlns:xlink="http://www.w3.org/1999/xlink" viewBox="0 0 187 205">
  <defs>
    <style>
      .cls-1 {
        fill: url(#Unbenannter_Verlauf_3);
      }

      .cls-2, .cls-3 {
        isolation: isolate;
      }

      .cls-4 {
        fill: #fff;
      }

      .cls-3 {
        fill: url(#Unbenannter_Verlauf_2);
        mix-blend-mode: overlay;
      }
    </style>
    <linearGradient id="Unbenannter_Verlauf_2" data-name="Unbenannter Verlauf 2" x1="90.66" y1="-405" x2="46.77" y2="-300.46" gradientTransform="translate(0 -309.27) scale(1 -1)" gradientUnits="userSpaceOnUse">
      <stop offset="0" stop-color="#fff" stop-opacity="0"/>
      <stop offset="1" stop-color="#fff"/>
    </linearGradient>
    <linearGradient id="Unbenannter_Verlauf_3" data-name="Unbenannter Verlauf 3" x1="0" y1="102.5" x2="187" y2="102.5" gradientUnits="userSpaceOnUse">
      <stop offset=".09" stop-color="#24ad7c"/>
      <stop offset="1" stop-color="#1845b9"/>
    </linearGradient>
  </defs>
  <g class="cls-2">
    <g id="Ebene_2">
      <g id="Ebene_1-2" data-name="Ebene_1">
        <g>
          <path class="cls-3" d="M110.82,200.36c-10.72,6.18-23.93,6.18-34.65,0l-58.85-33.95c-10.72-6.18-17.32-17.61-17.32-29.97v-67.89c0-12.37,6.6-23.79,17.32-29.97h0L76.18,4.64c10.72-6.18,23.93-6.18,34.65,0l58.85,33.94c10.72,6.18,17.32,17.61,17.32,29.97v67.89c0,12.37-6.6,23.79-17.32,29.97l-58.85,33.95Z"/>
          <path class="cls-1" d="M110.82,200.36c-10.72,6.18-23.93,6.18-34.65,0l-58.85-33.95c-10.72-6.18-17.32-17.61-17.32-29.97v-67.89c0-12.37,6.6-23.79,17.32-29.97h0L76.18,4.64c10.72-6.18,23.93-6.18,34.65,0l58.85,33.94c10.72,6.18,17.32,17.61,17.32,29.97v67.89c0,12.37-6.6,23.79-17.32,29.97l-58.85,33.95Z"/>
          <path class="cls-4" d="M64.88,142.5v-9.82h1.51v9.82h-1.51ZM65.65,131.04c-.29,0-.55-.1-.76-.3-.21-.2-.31-.44-.31-.72s.1-.52.31-.72c.21-.2.47-.3.76-.3s.55.1.75.3c.21.2.32.44.32.72s-.11.52-.32.72c-.21.2-.46.3-.75.3ZM70.66,136.59v5.91h-1.51v-9.82h1.46v1.53h.13c.23-.5.58-.9,1.05-1.2.47-.31,1.07-.46,1.82-.46.66,0,1.25.14,1.75.41.5.27.89.68,1.16,1.23.28.55.42,1.24.42,2.07v6.24h-1.51v-6.14c0-.77-.2-1.37-.6-1.8-.4-.43-.95-.65-1.65-.65-.48,0-.91.1-1.29.31-.38.21-.67.51-.89.91-.22.4-.33.89-.33,1.46ZM84,131.69v-2.28h10.75v2.28h-4.01v10.81h-2.74v-10.81h-4.01ZM99.52,142.69c-1.01,0-1.88-.21-2.61-.61-.72-.41-1.28-1-1.67-1.75-.39-.76-.59-1.66-.59-2.69s.2-1.9.59-2.66c.39-.76.94-1.36,1.66-1.78.72-.43,1.56-.64,2.52-.64.65,0,1.25.1,1.81.31.56.21,1.05.51,1.47.93.42.41.75.93.99,1.56.23.62.35,1.35.35,2.19v.75h-8.29v-1.69h5.73c0-.39-.08-.74-.26-1.04-.17-.3-.41-.54-.71-.71-.3-.18-.65-.26-1.04-.26s-.78.1-1.1.29c-.32.19-.56.44-.74.76-.18.32-.27.67-.27,1.06v1.6c0,.49.09.91.27,1.26.18.35.44.63.77.82.33.19.73.29,1.18.29.3,0,.58-.04.83-.13.25-.09.47-.21.64-.38.18-.17.32-.38.41-.63l2.52.17c-.13.6-.39,1.13-.79,1.58-.39.45-.9.8-1.52,1.05-.62.25-1.33.37-2.14.37ZM110.28,142.69c-1.01,0-1.88-.21-2.61-.61-.73-.41-1.28-1-1.68-1.75-.39-.76-.59-1.66-.59-2.69s.2-1.9.59-2.66c.39-.76.94-1.36,1.66-1.78.72-.43,1.56-.64,2.52-.64.65,0,1.25.1,1.81.31.56.21,1.05.51,1.47.93.42.41.75.93.98,1.56.23.62.35,1.35.35,2.19v.75h-8.29v-1.69h5.73c0-.39-.08-.74-.26-1.04-.17-.3-.41-.54-.71-.71-.3-.18-.65-.26-1.04-.26s-.78.1-1.1.29c-.31.19-.56.44-.74.76-.18.32-.27.67-.28,1.06v1.6c0,.49.09.91.27,1.26.18.35.44.63.77.82.33.19.73.29,1.18.29.3,0,.58-.04.83-.13.25-.09.47-.21.65-.38.18-.17.31-.38.41-.63l2.52.17c-.13.6-.39,1.13-.79,1.58-.39.45-.9.8-1.52,1.05-.62.25-1.33.37-2.14.37ZM116.57,142.5v-9.82h2.64v1.71h.1c.18-.61.48-1.07.9-1.38.42-.32.91-.47,1.46-.47.14,0,.28,0,.44.03.16.02.3.04.42.07v2.42c-.13-.04-.31-.07-.53-.1-.23-.03-.43-.04-.62-.04-.4,0-.76.09-1.07.26-.31.17-.56.41-.74.72-.18.31-.27.66-.27,1.06v5.55h-2.72Z"/>
          <g>
            <path class="cls-4" d="M74.82,97.6c0-1.31.25-2.44.74-3.43h-1.59c-.91,2.61-2.19,4.06-4.46,4.14v-4.29c2.72-.2,4.83-1.56,5.85-4.09h3.49v19.87h-4.03v-12.2Z"/>
            <path class="cls-4" d="M90.86,89.49c4.8,0,8.23,3.86,8.23,10.42s-3.41,10.36-8.23,10.36-8.23-3.77-8.23-10.36,3.41-10.42,8.23-10.42ZM90.86,93.06c-2.27,0-3.83,2.07-3.83,6.84s1.53,6.78,3.83,6.78,3.83-1.99,3.83-6.78-1.56-6.84-3.83-6.84Z"/>
            <path class="cls-4" d="M104.91,102.83c.34,1.82,1.45,3.43,3.26,3.92v-5.28l-.6-.11c-3.43-.65-5.34-2.38-5.34-5.93,0-2.89,2.16-5.51,5.93-5.88v-2.41h2.58v2.44c3.32.48,5.31,2.55,6.07,5.17l-3.41,1.36c-.45-1.48-1.33-2.61-2.67-3.04v4.88l.74.17c3.26.77,5.54,2.58,5.54,5.99,0,3.07-2.07,5.73-6.27,6.1v2.41h-2.58v-2.44c-3.95-.45-6.1-2.98-6.84-5.99l3.58-1.36ZM108.17,96.47c0-1.45.17-2.67,1.28-3.58l-.65-1.05c-.23.08-.43.17-.62.26-1.33.68-2.01,1.7-2.01,3.09,0,1.19.68,1.96,2.01,2.27v-.99ZM110.13,107.54c1.53-.62,2.95-1.28,2.95-3.18,0-1.25-.88-2.13-2.33-2.44v.99c0,1.19-.06,2.58-1.28,3.58l.65,1.05Z"/>
          </g>
          <g>
            <path class="cls-4" d="M30.28,72.02v-7.94h1.18v1.2h.08c.14-.39.41-.71.79-.96.38-.24.81-.37,1.28-.37.09,0,.2,0,.34,0,.13,0,.24,0,.31.02v1.24s-.14-.03-.28-.05-.3-.03-.46-.03c-.39,0-.73.08-1.03.24-.3.16-.54.38-.71.66-.17.28-.26.6-.26.96v5.02h-1.22Z"/>
            <path class="cls-4" d="M39.02,72.19c-.76,0-1.42-.17-1.98-.51-.55-.34-.98-.82-1.28-1.43-.3-.61-.45-1.32-.45-2.14s.15-1.53.45-2.15c.3-.62.72-1.11,1.25-1.46s1.16-.52,1.88-.52c.41,0,.82.07,1.23.21.4.14.77.36,1.1.67.33.31.59.72.79,1.22.2.51.29,1.13.29,1.87v.52h-6.12v-1.05h4.88c0-.45-.09-.85-.27-1.2-.18-.35-.43-.63-.75-.83s-.71-.3-1.15-.3c-.49,0-.91.12-1.26.36-.35.24-.62.55-.81.93s-.28.79-.28,1.23v.7c0,.6.1,1.11.31,1.52.21.42.5.73.87.95.37.22.8.32,1.3.32.32,0,.61-.05.87-.14.26-.09.48-.23.67-.41.19-.18.34-.41.44-.69l1.18.33c-.12.4-.33.75-.63,1.05-.29.3-.65.54-1.09.7-.43.17-.92.25-1.45.25Z"/>
            <path class="cls-4" d="M46.51,72.21c-.5,0-.96-.1-1.37-.29-.41-.19-.74-.47-.98-.83-.24-.36-.36-.8-.36-1.32,0-.46.09-.82.27-1.11.18-.29.42-.51.72-.67.3-.16.63-.28,1-.36s.73-.15,1.1-.19c.48-.06.87-.11,1.18-.14.3-.03.52-.09.66-.17.14-.08.21-.22.21-.41v-.04c0-.51-.14-.91-.42-1.19-.28-.28-.7-.42-1.26-.42s-1.04.13-1.37.38-.56.53-.7.82l-1.16-.41c.21-.48.48-.86.83-1.13.35-.27.73-.46,1.14-.57s.82-.16,1.22-.16c.26,0,.55.03.88.09.33.06.65.18.97.37.31.19.57.47.78.84.21.38.31.88.31,1.51v5.23h-1.22v-1.08h-.06c-.08.17-.22.36-.41.55-.19.2-.45.36-.77.5-.32.14-.71.21-1.17.21ZM46.69,71.11c.48,0,.89-.09,1.22-.28s.58-.43.75-.73.26-.62.26-.95v-1.12c-.05.06-.17.12-.34.17-.17.05-.37.09-.6.13s-.44.07-.66.09-.38.05-.51.06c-.32.04-.61.11-.89.2-.27.09-.49.23-.66.41s-.25.43-.25.74c0,.42.16.74.47.96.31.22.72.32,1.2.32Z"/>
            <path class="cls-4" d="M55.61,72.19c-.75,0-1.39-.18-1.92-.53-.54-.35-.95-.83-1.24-1.45-.29-.62-.43-1.32-.43-2.11s.15-1.52.45-2.14c.3-.62.72-1.1,1.25-1.45.54-.35,1.16-.52,1.88-.52.56,0,1.06.1,1.51.31s.82.5,1.1.87c.29.37.46.81.53,1.3h-1.22c-.09-.36-.3-.68-.62-.96-.32-.28-.75-.42-1.28-.42-.48,0-.89.12-1.25.37s-.63.59-.83,1.04-.3.97-.3,1.57.1,1.15.29,1.6c.19.46.47.81.83,1.06.36.25.78.38,1.26.38.32,0,.6-.05.86-.17.26-.11.48-.27.66-.48.18-.21.31-.46.38-.75h1.22c-.07.47-.24.89-.51,1.26s-.63.67-1.07.89c-.44.22-.96.33-1.54.33Z"/>
            <path class="cls-4" d="M61.73,67.25v4.78h-1.22v-10.59h1.22v3.89h.1c.19-.41.47-.74.84-.98.37-.24.87-.36,1.5-.36.54,0,1.01.11,1.42.32.41.22.72.54.95.99.23.44.34,1.01.34,1.69v5.04h-1.22v-4.96c0-.63-.16-1.12-.49-1.46-.33-.35-.78-.52-1.35-.52-.4,0-.76.08-1.07.25s-.56.42-.74.74c-.18.32-.27.72-.27,1.18Z"/>
            <path class="cls-4" d="M77.55,61.44v10.59h-2.24v-8.46h-.06l-2.42,1.52v-1.99l2.62-1.66h2.1Z"/>
            <path class="cls-4" d="M84.22,72.26c-.89,0-1.65-.22-2.29-.66-.64-.43-1.13-1.06-1.47-1.89-.34-.82-.51-1.81-.51-2.97,0-1.15.17-2.14.51-2.95s.83-1.43,1.47-1.86c.64-.43,1.4-.64,2.29-.64s1.65.21,2.29.64c.64.43,1.13,1.05,1.48,1.86s.52,1.79.51,2.95c0,1.16-.17,2.15-.51,2.98s-.83,1.45-1.47,1.89-1.4.65-2.29.65ZM84.22,70.4c.61,0,1.09-.31,1.45-.92.36-.61.54-1.53.54-2.75,0-.8-.08-1.47-.25-2.01-.16-.53-.39-.94-.69-1.2s-.65-.4-1.05-.4c-.6,0-1.09.3-1.45.9-.36.6-.54,1.51-.55,2.71,0,.81.08,1.49.25,2.03s.4.95.7,1.22.65.41,1.05.41Z"/>
            <path class="cls-4" d="M94.23,72.26c-.89,0-1.65-.22-2.29-.66-.64-.43-1.13-1.06-1.47-1.89-.34-.82-.51-1.81-.51-2.97,0-1.15.17-2.14.51-2.95s.83-1.43,1.47-1.86c.64-.43,1.4-.64,2.29-.64s1.65.21,2.29.64c.64.43,1.13,1.05,1.48,1.86s.52,1.79.51,2.95c0,1.16-.17,2.15-.51,2.98s-.83,1.45-1.47,1.89-1.4.65-2.29.65ZM94.23,70.4c.61,0,1.09-.31,1.45-.92.36-.61.54-1.53.54-2.75,0-.8-.08-1.47-.25-2.01-.16-.53-.39-.94-.69-1.2s-.65-.4-1.05-.4c-.6,0-1.09.3-1.45.9-.36.6-.54,1.51-.55,2.71,0,.81.08,1.49.25,2.03s.4.95.7,1.22.65.41,1.05.41Z"/>
            <path class="cls-4" d="M104.25,72.26c-.89,0-1.65-.22-2.29-.66-.64-.43-1.13-1.06-1.47-1.89-.34-.82-.51-1.81-.51-2.97,0-1.15.17-2.14.51-2.95.34-.81.83-1.43,1.47-1.86.64-.43,1.4-.64,2.29-.64s1.65.21,2.29.64c.64.43,1.13,1.05,1.48,1.86s.51,1.79.51,2.95c0,1.16-.17,2.15-.51,2.98s-.83,1.45-1.47,1.89-1.4.65-2.29.65ZM104.25,70.4c.61,0,1.09-.31,1.45-.92.36-.61.54-1.53.54-2.75,0-.8-.08-1.47-.25-2.01-.16-.53-.39-.94-.69-1.2-.3-.27-.65-.4-1.05-.4-.6,0-1.08.3-1.45.9-.36.6-.54,1.51-.55,2.71,0,.81.08,1.49.25,2.03.16.54.4.95.7,1.22s.65.41,1.05.41Z"/>
            <path class="cls-4" d="M113.56,72.02v-10.59h4.18c.8,0,1.49.15,2.05.46.56.3,1,.73,1.29,1.27.3.54.45,1.16.45,1.86s-.15,1.32-.45,1.86c-.3.54-.74.96-1.32,1.26-.57.3-1.27.45-2.08.45h-2.66v-1.79h2.3c.43,0,.79-.07,1.07-.22.28-.15.49-.36.63-.62.14-.27.21-.58.21-.92s-.07-.66-.21-.92-.35-.47-.63-.62c-.28-.15-.64-.22-1.08-.22h-1.51v8.76h-2.24Z"/>
            <path class="cls-4" d="M126.53,72.18c-.8,0-1.5-.17-2.08-.51s-1.04-.82-1.35-1.44c-.32-.62-.48-1.33-.48-2.14s.16-1.54.48-2.15c.32-.62.77-1.09,1.35-1.44s1.28-.51,2.08-.51,1.5.17,2.08.51,1.03.82,1.35,1.44.48,1.33.48,2.15-.16,1.53-.48,2.14-.77,1.09-1.35,1.44-1.28.51-2.08.51ZM126.54,70.47c.37,0,.67-.1.92-.31.24-.21.43-.49.56-.86.13-.36.19-.77.19-1.24s-.06-.87-.19-1.24c-.13-.36-.31-.65-.56-.86-.25-.21-.55-.32-.92-.32s-.68.1-.93.32c-.25.21-.44.5-.56.86-.13.36-.19.77-.19,1.24s.06.87.19,1.24c.13.36.31.65.56.86.25.21.56.31.93.31Z"/>
            <path class="cls-4" d="M132.98,63.06c-.33,0-.61-.11-.84-.33-.23-.22-.35-.48-.35-.79s.12-.57.35-.79.51-.33.84-.33.61.11.84.33c.23.22.35.48.35.79s-.12.57-.35.79-.51.33-.84.33ZM131.88,72.02v-7.94h2.2v7.94h-2.2Z"/>
            <path class="cls-4" d="M138.04,67.43v4.59h-2.2v-7.94h2.1v1.4h.09c.18-.46.47-.83.88-1.1.41-.27.92-.41,1.5-.41.55,0,1.03.12,1.44.36s.73.58.96,1.03.34.98.34,1.59v5.06h-2.2v-4.66c0-.49-.12-.87-.37-1.14-.25-.27-.6-.41-1.04-.41-.3,0-.56.06-.78.19-.23.13-.4.31-.53.56s-.19.54-.19.88Z"/>
            <path class="cls-4" d="M149.11,64.08v1.65h-4.78v-1.65h4.78ZM145.41,62.18h2.2v7.4c0,.2.03.36.09.47.06.11.15.19.26.24.11.04.24.07.39.07.1,0,.21,0,.31-.03.1-.02.18-.03.24-.04l.35,1.64c-.11.03-.27.08-.47.12-.2.05-.44.07-.73.08-.53.02-1-.05-1.39-.21-.4-.16-.71-.41-.93-.75s-.33-.77-.33-1.29v-7.69Z"/>
            <path class="cls-4" d="M157.15,66.35l-2.02.12c-.03-.17-.11-.33-.22-.47-.11-.14-.26-.25-.45-.34-.18-.08-.4-.13-.66-.13-.34,0-.63.07-.86.21-.23.14-.35.33-.35.57,0,.19.08.35.23.48s.41.24.78.32l1.44.29c.77.16,1.35.41,1.73.77.38.35.57.81.57,1.38,0,.52-.15.98-.46,1.37-.3.39-.72.7-1.25.92-.53.22-1.14.33-1.83.33-1.05,0-1.89-.22-2.51-.66s-.99-1.04-1.09-1.8l2.17-.11c.07.32.22.56.48.73.25.17.57.25.97.25s.7-.08.93-.23c.24-.15.36-.34.36-.58,0-.2-.09-.36-.25-.49-.17-.13-.42-.23-.77-.3l-1.38-.27c-.78-.15-1.35-.42-1.73-.81-.38-.38-.57-.87-.57-1.46,0-.51.14-.95.42-1.32s.67-.65,1.17-.85c.5-.2,1.1-.3,1.78-.3,1,0,1.79.21,2.37.64s.91,1,1.01,1.73Z"/>
          </g>
        </g>
      </g>
    </g>
  </g>
</svg>