<?xml version="1.0" encoding="UTF-8"?>
<svg xmlns="http://www.w3.org/2000/svg" xmlns:xlink="http://www.w3.org/1999/xlink" viewBox="0 0 187 205">
  <defs>
    <style>
      .cls-1 {
        fill: url(#Unbenannter_Verlauf_3);
      }

      .cls-2, .cls-3 {
        isolation: isolate;
      }

      .cls-4 {
        fill: #fff;
      }

      .cls-3 {
        fill: url(#Unbenannter_Verlauf_2);
        mix-blend-mode: overlay;
      }
    </style>
    <linearGradient id="Unbenannter_Verlauf_2" data-name="Unbenannter Verlauf 2" x1="90.66" y1="106.08" x2="46.77" y2="210.62" gradientTransform="translate(0 201.81) scale(1 -1)" gradientUnits="userSpaceOnUse">
      <stop offset="0" stop-color="#fff" stop-opacity="0"/>
      <stop offset="1" stop-color="#fff"/>
    </linearGradient>
    <linearGradient id="Unbenannter_Verlauf_3" data-name="Unbenannter Verlauf 3" x1="0" y1="102.5" x2="187" y2="102.5" gradientUnits="userSpaceOnUse">
      <stop offset=".09" stop-color="#24ad7c"/>
      <stop offset="1" stop-color="#1845b9"/>
    </linearGradient>
  </defs>
  <g class="cls-2">
    <g id="Ebene_2">
      <g id="Ebene_1-2" data-name="Ebene_1">
        <g>
          <path class="cls-3" d="M110.82,200.36c-10.72,6.18-23.93,6.18-34.65,0l-58.85-33.95c-10.72-6.18-17.32-17.61-17.32-29.97v-67.89c0-12.37,6.6-23.79,17.32-29.97h0L76.18,4.64c10.72-6.18,23.93-6.18,34.65,0l58.85,33.94c10.72,6.18,17.32,17.61,17.32,29.97v67.89c0,12.37-6.6,23.79-17.32,29.97l-58.85,33.95Z"/>
          <path class="cls-1" d="M110.82,200.36c-10.72,6.18-23.93,6.18-34.65,0l-58.85-33.95c-10.72-6.18-17.32-17.61-17.32-29.97v-67.89c0-12.37,6.6-23.79,17.32-29.97h0L76.18,4.64c10.72-6.18,23.93-6.18,34.65,0l58.85,33.94c10.72,6.18,17.32,17.61,17.32,29.97v67.89c0,12.37-6.6,23.79-17.32,29.97l-58.85,33.95Z"/>
          <path class="cls-4" d="M64.83,142.5v-9.82h1.51v9.82h-1.51ZM65.6,131.04c-.29,0-.55-.1-.76-.3-.21-.2-.31-.44-.31-.72s.1-.52.31-.72c.21-.2.47-.3.76-.3s.55.1.75.3c.21.2.32.44.32.72s-.11.52-.32.72c-.21.2-.46.3-.75.3ZM70.61,136.59v5.91h-1.51v-9.82h1.46v1.53h.13c.23-.5.58-.9,1.05-1.2.47-.31,1.07-.46,1.82-.46.66,0,1.25.14,1.75.41.5.27.89.68,1.16,1.23.28.55.42,1.24.42,2.07v6.24h-1.51v-6.14c0-.77-.2-1.37-.6-1.8-.4-.43-.95-.65-1.65-.65-.48,0-.91.1-1.29.31-.38.21-.67.51-.89.91-.22.4-.33.89-.33,1.46ZM83.95,131.69v-2.28h10.75v2.28h-4.01v10.81h-2.74v-10.81h-4.01ZM99.48,142.69c-1.01,0-1.88-.21-2.61-.61-.72-.41-1.28-1-1.67-1.75-.39-.76-.59-1.66-.59-2.69s.2-1.9.59-2.66c.39-.76.94-1.36,1.66-1.78.72-.43,1.56-.64,2.52-.64.65,0,1.25.1,1.81.31.56.21,1.05.51,1.47.93.42.41.75.93.99,1.56.23.62.35,1.35.35,2.19v.75h-8.29v-1.69h5.73c0-.39-.08-.74-.26-1.04-.17-.3-.41-.54-.71-.71-.3-.18-.65-.26-1.04-.26s-.78.1-1.1.29c-.32.19-.56.44-.74.76-.18.32-.27.67-.27,1.06v1.6c0,.49.09.91.27,1.26.18.35.44.63.77.82.33.19.73.29,1.18.29.3,0,.58-.04.83-.13.25-.09.47-.21.64-.38.18-.17.32-.38.41-.63l2.52.17c-.13.6-.39,1.13-.79,1.58-.39.45-.9.8-1.52,1.05-.62.25-1.33.37-2.14.37ZM110.23,142.69c-1.01,0-1.88-.21-2.61-.61-.73-.41-1.28-1-1.68-1.75-.39-.76-.59-1.66-.59-2.69s.2-1.9.59-2.66c.39-.76.94-1.36,1.66-1.78.72-.43,1.56-.64,2.52-.64.65,0,1.25.1,1.81.31.56.21,1.05.51,1.47.93.42.41.75.93.98,1.56.23.62.35,1.35.35,2.19v.75h-8.29v-1.69h5.73c0-.39-.08-.74-.26-1.04-.17-.3-.41-.54-.71-.71-.3-.18-.65-.26-1.04-.26s-.78.1-1.1.29c-.31.19-.56.44-.74.76-.18.32-.27.67-.28,1.06v1.6c0,.49.09.91.27,1.26.18.35.44.63.77.82.33.19.73.29,1.18.29.3,0,.58-.04.83-.13.25-.09.47-.21.65-.38.18-.17.31-.38.41-.63l2.52.17c-.13.6-.39,1.13-.79,1.58-.39.45-.9.8-1.52,1.05-.62.25-1.33.37-2.14.37ZM116.52,142.5v-9.82h2.64v1.71h.1c.18-.61.48-1.07.9-1.38.42-.32.91-.47,1.46-.47.14,0,.28,0,.44.03.16.02.3.04.42.07v2.42c-.13-.04-.31-.07-.53-.1-.23-.03-.43-.04-.62-.04-.4,0-.76.09-1.07.26-.31.17-.56.41-.74.72-.18.31-.27.66-.27,1.06v5.55h-2.72Z"/>
          <g>
            <path class="cls-4" d="M84.36,97.6c0-1.31.25-2.44.74-3.43h-1.59c-.91,2.61-2.19,4.06-4.46,4.14v-4.29c2.72-.2,4.83-1.56,5.85-4.09h3.49v19.87h-4.03v-12.2Z"/>
            <path class="cls-4" d="M95.37,102.83c.34,1.82,1.45,3.43,3.26,3.92v-5.28l-.6-.11c-3.43-.65-5.34-2.38-5.34-5.93,0-2.9,2.16-5.51,5.93-5.88v-2.41h2.58v2.44c3.32.48,5.31,2.55,6.07,5.17l-3.4,1.36c-.46-1.48-1.33-2.61-2.67-3.04v4.88l.74.17c3.27.77,5.54,2.58,5.54,5.99,0,3.07-2.07,5.73-6.27,6.1v2.41h-2.58v-2.44c-3.95-.45-6.1-2.98-6.84-5.99l3.58-1.36ZM98.64,96.47c0-1.45.17-2.67,1.28-3.58l-.65-1.05c-.23.08-.43.17-.62.26-1.33.68-2.01,1.7-2.01,3.09,0,1.19.68,1.96,2.01,2.27v-.99ZM100.59,107.54c1.53-.62,2.95-1.28,2.95-3.18,0-1.25-.88-2.13-2.33-2.44v.99c0,1.19-.06,2.58-1.28,3.58l.65,1.05Z"/>
          </g>
          <g>
            <path class="cls-4" d="M34.26,72.02v-7.94h1.18v1.2h.08c.14-.39.41-.71.79-.96s.81-.37,1.28-.37c.09,0,.2,0,.34,0s.24,0,.3.02v1.24s-.13-.03-.28-.05-.3-.03-.46-.03c-.39,0-.73.08-1.03.24s-.54.38-.71.66c-.17.28-.26.6-.26.96v5.02h-1.22Z"/>
            <path class="cls-4" d="M43.01,72.19c-.76,0-1.42-.17-1.98-.51-.55-.34-.98-.81-1.28-1.43s-.45-1.32-.45-2.14.15-1.53.45-2.15c.3-.62.71-1.11,1.25-1.46.54-.35,1.16-.52,1.88-.52.41,0,.82.07,1.22.21.4.14.77.36,1.1.67s.59.72.79,1.22c.2.51.29,1.13.29,1.87v.52h-6.12v-1.05h4.88c0-.45-.09-.85-.27-1.2-.18-.35-.43-.63-.75-.83-.33-.2-.71-.3-1.15-.3-.49,0-.91.12-1.26.36-.35.24-.62.55-.81.93-.19.38-.28.79-.28,1.23v.7c0,.6.1,1.11.31,1.52.21.42.5.73.87.95s.8.32,1.3.32c.32,0,.61-.05.87-.14.26-.09.48-.23.67-.41.19-.18.34-.41.44-.69l1.18.33c-.12.4-.33.75-.62,1.05-.29.3-.66.54-1.09.7-.43.17-.92.25-1.45.25Z"/>
            <path class="cls-4" d="M50.49,72.21c-.5,0-.96-.1-1.37-.29-.41-.19-.74-.47-.98-.83-.24-.36-.36-.8-.36-1.32,0-.45.09-.82.27-1.11.18-.28.42-.51.72-.67.3-.16.63-.28,1-.36s.73-.15,1.1-.19c.48-.06.87-.11,1.18-.14s.52-.09.66-.17c.14-.08.21-.22.21-.41v-.04c0-.51-.14-.91-.42-1.19-.28-.28-.7-.42-1.26-.42s-1.04.13-1.37.38-.56.53-.7.82l-1.16-.41c.21-.48.48-.86.83-1.13.35-.27.73-.46,1.14-.57s.82-.16,1.22-.16c.26,0,.55.03.88.09.33.06.65.18.97.37.31.19.57.47.78.84.21.38.31.88.31,1.51v5.23h-1.22v-1.08h-.06c-.08.17-.22.36-.41.55-.19.2-.45.36-.77.5-.32.14-.71.21-1.17.21ZM50.68,71.11c.48,0,.89-.09,1.22-.28.33-.19.58-.43.75-.73s.26-.62.26-.95v-1.12c-.05.06-.17.12-.34.17-.17.05-.37.09-.6.13s-.44.07-.66.09c-.21.03-.38.05-.51.06-.32.04-.61.11-.89.2-.27.09-.49.23-.66.41-.17.18-.25.43-.25.74,0,.42.16.74.47.96.31.22.72.32,1.2.32Z"/>
            <path class="cls-4" d="M59.59,72.19c-.75,0-1.39-.18-1.92-.53-.54-.35-.95-.84-1.24-1.45-.29-.62-.43-1.32-.43-2.11s.15-1.52.45-2.14c.3-.62.72-1.1,1.25-1.45.54-.35,1.16-.52,1.88-.52.56,0,1.06.1,1.51.31.45.21.82.5,1.1.87.29.37.46.81.53,1.3h-1.22c-.09-.36-.3-.68-.62-.96-.32-.28-.75-.42-1.28-.42-.48,0-.89.12-1.25.37-.36.25-.63.59-.83,1.04s-.3.97-.3,1.57.1,1.15.29,1.6c.19.46.47.81.83,1.06.36.25.78.38,1.26.38.32,0,.6-.05.86-.17.26-.11.48-.27.66-.48.18-.21.31-.46.38-.74h1.22c-.07.47-.24.89-.51,1.26s-.63.67-1.07.89c-.44.22-.96.33-1.54.33Z"/>
            <path class="cls-4" d="M65.71,67.25v4.78h-1.22v-10.59h1.22v3.89h.1c.19-.41.47-.74.84-.98.37-.24.87-.36,1.5-.36.54,0,1.01.11,1.42.32.41.22.72.54.95.99s.34,1.01.34,1.69v5.04h-1.22v-4.96c0-.63-.16-1.12-.49-1.47-.33-.35-.78-.52-1.35-.52-.4,0-.76.08-1.07.25-.32.17-.56.42-.74.74-.18.32-.27.72-.27,1.18Z"/>
            <path class="cls-4" d="M76.93,72.02v-1.61l3.77-3.49c.32-.31.59-.59.81-.84.22-.25.38-.49.5-.73.11-.24.17-.5.17-.78,0-.31-.07-.58-.21-.8s-.33-.4-.58-.52c-.24-.12-.52-.18-.83-.18s-.61.07-.85.2-.43.32-.56.56-.2.54-.2.87h-2.12c0-.69.16-1.29.47-1.8.31-.51.75-.9,1.32-1.18s1.22-.42,1.95-.42,1.42.13,1.98.4,1,.64,1.32,1.11.47,1.01.47,1.62c0,.4-.08.79-.24,1.18-.16.39-.44.82-.83,1.29-.4.47-.96,1.04-1.69,1.7l-1.55,1.51v.07h4.45v1.83h-7.55Z"/>
            <path class="cls-4" d="M90.25,72.25c-.89,0-1.65-.22-2.29-.66-.64-.43-1.13-1.06-1.47-1.89s-.51-1.81-.51-2.97c0-1.15.17-2.14.51-2.95s.83-1.43,1.47-1.86c.64-.43,1.4-.64,2.29-.64s1.65.21,2.29.64c.64.43,1.13,1.05,1.48,1.86s.52,1.79.51,2.95c0,1.16-.17,2.15-.51,2.98-.34.82-.83,1.45-1.47,1.89-.64.43-1.4.65-2.29.65ZM90.25,70.4c.61,0,1.09-.31,1.45-.92.36-.61.54-1.52.54-2.74,0-.8-.08-1.47-.25-2.01-.16-.53-.39-.94-.69-1.2-.3-.27-.65-.4-1.05-.4-.6,0-1.09.3-1.45.9-.36.6-.54,1.51-.55,2.71,0,.81.08,1.49.25,2.03.16.54.4.95.7,1.22s.65.41,1.05.41Z"/>
            <path class="cls-4" d="M100.27,72.25c-.89,0-1.65-.22-2.29-.66-.64-.43-1.13-1.06-1.47-1.89s-.51-1.81-.51-2.97c0-1.15.17-2.14.51-2.95.34-.81.83-1.43,1.47-1.86.64-.43,1.4-.64,2.29-.64s1.65.21,2.29.64c.64.43,1.13,1.05,1.48,1.86s.51,1.79.51,2.95c0,1.16-.17,2.15-.51,2.98-.34.82-.83,1.45-1.47,1.89-.64.43-1.4.65-2.29.65ZM100.27,70.4c.61,0,1.09-.31,1.45-.92.36-.61.54-1.52.54-2.74,0-.8-.08-1.47-.25-2.01-.16-.53-.39-.94-.69-1.2-.3-.27-.65-.4-1.05-.4-.6,0-1.08.3-1.45.9-.36.6-.54,1.51-.55,2.71,0,.81.08,1.49.25,2.03.16.54.4.95.7,1.22s.65.41,1.05.41Z"/>
            <path class="cls-4" d="M109.57,72.02v-10.59h4.18c.8,0,1.49.15,2.05.46.56.3,1,.73,1.29,1.27.3.54.45,1.16.45,1.86s-.15,1.32-.45,1.86c-.3.54-.74.96-1.32,1.26-.57.3-1.27.45-2.08.45h-2.66v-1.79h2.3c.43,0,.79-.07,1.07-.22.28-.15.49-.36.63-.63s.21-.57.21-.92-.07-.66-.21-.92-.35-.47-.63-.62c-.28-.15-.64-.22-1.08-.22h-1.51v8.76h-2.24Z"/>
            <path class="cls-4" d="M122.55,72.18c-.8,0-1.5-.17-2.08-.51-.58-.34-1.04-.82-1.35-1.44-.32-.62-.48-1.33-.48-2.14s.16-1.54.48-2.15c.32-.62.77-1.09,1.35-1.44s1.28-.51,2.08-.51,1.5.17,2.08.51,1.03.82,1.35,1.44.48,1.33.48,2.15-.16,1.53-.48,2.14-.77,1.09-1.35,1.44c-.58.34-1.28.51-2.08.51ZM122.56,70.47c.37,0,.67-.1.92-.31.24-.21.43-.49.56-.86.13-.36.19-.77.19-1.24s-.06-.87-.19-1.24-.31-.65-.56-.86c-.25-.21-.55-.32-.92-.32s-.68.1-.93.32c-.25.21-.44.5-.56.86s-.19.77-.19,1.24.06.87.19,1.24c.13.36.31.65.56.86s.56.31.93.31Z"/>
            <path class="cls-4" d="M129,63.06c-.33,0-.61-.11-.84-.33-.23-.22-.35-.48-.35-.79s.12-.57.35-.79c.23-.22.51-.33.84-.33s.61.11.84.33c.23.22.35.48.35.79s-.12.57-.35.79-.51.33-.84.33ZM127.89,72.02v-7.94h2.2v7.94h-2.2Z"/>
            <path class="cls-4" d="M134.05,67.43v4.59h-2.2v-7.94h2.1v1.4h.09c.18-.46.47-.83.88-1.1.41-.27.92-.41,1.5-.41.55,0,1.03.12,1.44.36s.73.58.96,1.03.34.98.34,1.59v5.06h-2.2v-4.66c0-.49-.12-.87-.37-1.14s-.6-.41-1.04-.41c-.3,0-.56.06-.78.19s-.4.31-.53.56c-.13.24-.19.54-.19.88Z"/>
            <path class="cls-4" d="M145.12,64.08v1.65h-4.78v-1.65h4.78ZM141.43,62.18h2.2v7.4c0,.2.03.36.09.47.06.11.15.19.26.24.11.04.24.07.39.07.1,0,.21,0,.31-.03.1-.02.18-.03.24-.04l.35,1.64c-.11.03-.27.07-.47.12-.2.05-.44.07-.73.08-.53.02-1-.05-1.39-.21-.4-.16-.71-.41-.93-.75-.22-.34-.33-.77-.33-1.29v-7.69Z"/>
            <path class="cls-4" d="M153.16,66.35l-2.02.12c-.03-.17-.11-.33-.22-.47-.11-.14-.26-.25-.45-.34-.18-.08-.4-.13-.66-.13-.34,0-.63.07-.86.21s-.35.33-.35.57c0,.19.08.35.23.48.15.13.41.24.78.32l1.44.29c.77.16,1.35.41,1.73.77.38.35.57.81.57,1.39,0,.52-.15.98-.46,1.37-.3.39-.72.7-1.25.92-.53.22-1.14.33-1.83.33-1.05,0-1.89-.22-2.51-.66s-.99-1.04-1.09-1.8l2.17-.11c.07.32.22.56.48.73.25.17.57.25.97.25s.7-.08.93-.23.36-.34.36-.58c0-.2-.09-.36-.25-.49-.17-.13-.42-.23-.77-.3l-1.38-.27c-.78-.15-1.35-.42-1.73-.81-.38-.38-.57-.87-.57-1.46,0-.51.14-.95.42-1.32.28-.37.67-.65,1.17-.85.5-.2,1.1-.3,1.78-.3,1,0,1.79.21,2.37.64s.91,1,1.01,1.73Z"/>
          </g>
        </g>
      </g>
    </g>
  </g>
</svg>