<?xml version="1.0" encoding="UTF-8"?>
<svg id="Ebene_2" data-name="Ebene 2" xmlns="http://www.w3.org/2000/svg" xmlns:xlink="http://www.w3.org/1999/xlink" viewBox="0 0 188 206.1">
  <defs>
    <style>
      .cls-1 {
        fill: #967d4a;
        mix-blend-mode: color;
      }

      .cls-1, .cls-2, .cls-3 {
        isolation: isolate;
      }

      .cls-4 {
        fill: url(#Unbenannter_Verlauf);
      }

      .cls-5 {
        fill: #fff;
      }

      .cls-6 {
        fill: none;
        stroke: url(#Unbenannter_Verlauf_3);
      }

      .cls-3 {
        fill: url(#Unbenannter_Verlauf_2);
        mix-blend-mode: overlay;
      }
    </style>
    <linearGradient id="Unbenannter_Verlauf" data-name="Unbenannter Verlauf" x1="8.8" y1="2464.24" x2="185.7" y2="2426.44" gradientTransform="translate(0 -2342.98)" gradientUnits="userSpaceOnUse">
      <stop offset="0" stop-color="#576265"/>
      <stop offset=".2" stop-color="#9ea1a1"/>
      <stop offset=".5" stop-color="#848b8a"/>
      <stop offset=".6" stop-color="#576265"/>
      <stop offset=".8" stop-color="#576265"/>
      <stop offset=".9" stop-color="#757a7b"/>
      <stop offset="1" stop-color="#576265"/>
    </linearGradient>
    <linearGradient id="Unbenannter_Verlauf_2" data-name="Unbenannter Verlauf 2" x1="91.15" y1="2439.25" x2="47.25" y2="2334.75" gradientTransform="translate(0 -2342.98)" gradientUnits="userSpaceOnUse">
      <stop offset="0" stop-color="#fff" stop-opacity="0"/>
      <stop offset="1" stop-color="#fff"/>
    </linearGradient>
    <linearGradient id="Unbenannter_Verlauf_3" data-name="Unbenannter Verlauf 3" x1="188" y1="2446.03" x2="0" y2="2446.03" gradientTransform="translate(0 -2342.98)" gradientUnits="userSpaceOnUse">
      <stop offset="0" stop-color="#24ad7c"/>
      <stop offset="1" stop-color="#1845b9"/>
    </linearGradient>
  </defs>
  <g id="Ebene_1-2" data-name="Ebene 1">
    <g class="cls-2">
      <g id="Ebene_1-3" data-name="Ebene 1">
        <path class="cls-4" d="M111.3,200.95c-10.7,6.2-23.9,6.2-34.6,0l-58.9-33.9c-10.7-6.2-17.3-17.6-17.3-30v-67.9c0-12.4,6.6-23.8,17.3-30h0L76.7,5.15c10.7-6.2,23.9-6.2,34.6,0l58.9,33.9c10.7,6.2,17.3,17.6,17.3,30v67.9c0,12.4-6.6,23.8-17.3,30l-58.9,33.9v.1Z"/>
        <path class="cls-3" d="M111.3,200.95c-10.7,6.2-23.9,6.2-34.6,0l-58.9-33.9c-10.7-6.2-17.3-17.6-17.3-30v-67.9c0-12.4,6.6-23.8,17.3-30h0L76.7,5.15c10.7-6.2,23.9-6.2,34.6,0l58.9,33.9c10.7,6.2,17.3,17.6,17.3,30v67.9c0,12.4-6.6,23.8-17.3,30l-58.9,33.9v.1Z"/>
        <path class="cls-1" d="M111.3,200.95c-10.7,6.2-23.9,6.2-34.6,0l-58.9-33.9c-10.7-6.2-17.3-17.6-17.3-30v-67.9c0-12.4,6.6-23.8,17.3-30h0L76.7,5.15c10.7-6.2,23.9-6.2,34.6,0l58.9,33.9c10.7,6.2,17.3,17.6,17.3,30v67.9c0,12.4-6.6,23.8-17.3,30l-58.9,33.9v.1Z"/>
        <path class="cls-6" d="M111.3,200.95c-10.7,6.2-23.9,6.2-34.6,0l-58.9-33.9c-10.7-6.2-17.3-17.6-17.3-30v-67.9c0-12.4,6.6-23.8,17.3-30h0L76.7,5.15c10.7-6.2,23.9-6.2,34.6,0l58.9,33.9c10.7,6.2,17.3,17.6,17.3,30v67.9c0,12.4-6.6,23.8-17.3,30l-58.9,33.9v.1Z"/>
      </g>
    </g>
    <g>
      <path class="cls-5" d="M63.61,116.13c.66,2.33,2.22,4.12,4.86,4.12s4.43-1.67,4.43-4.51-1.79-4.55-4.43-4.55c-1.83,0-3.3.89-4.08,2.33l-5.36-1.13,2.29-15.16h16.36v4.9h-12.4l-.43,2.68c-.5,3.38-1.17,4.31-2.6,5.95h2.56c1.21-2.37,2.84-3.54,5.79-3.54,4.16,0,8.04,3.07,8.04,8.67s-3.73,9.17-9.95,9.17c-5.44,0-9.29-2.88-10.22-7.19l5.13-1.75Z"/>
      <path class="cls-5" d="M93.34,96.62c6.57,0,11.27,5.29,11.27,14.26s-4.66,14.19-11.27,14.19-11.27-5.17-11.27-14.19,4.66-14.26,11.27-14.26ZM93.34,101.52c-3.11,0-5.25,2.84-5.25,9.37s2.1,9.29,5.25,9.29,5.25-2.72,5.25-9.29-2.14-9.37-5.25-9.37Z"/>
      <path class="cls-5" d="M119.45,96.62c6.57,0,11.27,5.29,11.27,14.26s-4.66,14.19-11.27,14.19-11.27-5.17-11.27-14.19,4.66-14.26,11.27-14.26ZM119.45,101.52c-3.11,0-5.25,2.84-5.25,9.37s2.1,9.29,5.25,9.29,5.25-2.72,5.25-9.29-2.14-9.37-5.25-9.37Z"/>
      <path class="cls-5" d="M57.27,138.16h17.01v3.07h-6.78v16.13h-3.57v-16.13h-6.67v-3.07Z"/>
      <path class="cls-5" d="M77.05,157.37v-19.2h14.1v3.07h-10.54v4.72h7.9v3.02h-7.9v5.35h10.54v3.04h-14.1Z"/>
      <path class="cls-5" d="M94.97,157.37v-19.2h14.1v3.07h-10.54v4.72h7.9v3.02h-7.9v5.35h10.54v3.04h-14.1Z"/>
      <path class="cls-5" d="M112.88,138.16h8.94c4.01,0,6.39,2.11,6.39,5.1,0,1.67-.52,2.8-1.59,3.43-1.02.58-2.33.93-3.9,1.01v1.32c3.1.08,4.44.85,4.97,3.65l.88,4.69h-3.84l-.66-4.39c-.33-2.39-1.45-3.16-3.95-3.16h-3.68v7.54h-3.57v-19.2ZM116.45,146.81h4.75c2,0,3.32-.93,3.32-2.8s-1.32-2.77-3.32-2.77h-4.75v5.57Z"/>
    </g>
    <g>
      <path class="cls-5" d="M54,54.06l1.84,8.32c.43,2.07.56,3.93.56,6.46h1.28c.03-2.04.15-3.58.64-5.41l2.55-9.37h4.24l2.58,9.78c.38,1.53.54,3.04.56,5.01h1.25c.03-2.66.15-4.47.59-6.49l1.92-8.3h3.5l-4.8,17.88h-3.88l-2.58-9.75c-.49-1.81-.61-3.4-.61-5.26h-1.28c0,1.81-.13,3.52-.64,5.26l-2.73,9.75h-3.96l-4.6-17.88h3.58Z"/>
      <path class="cls-5" d="M77.82,54.03h3.32v3.17h-3.32v-3.17ZM77.95,59.21h3.09v12.72h-3.09v-12.72Z"/>
      <path class="cls-5" d="M84.82,71.93v-12.72h2.89c-.03.74-.54,1.89-1.25,2.94h1.46c.54-1.71,1.89-3.32,3.98-3.32,2.89,0,4.37,1.76,4.37,4.72v8.38h-3.12v-7.76c0-1.84-.84-2.73-2.3-2.73-2.66,0-2.91,2.55-2.91,4.67v5.82h-3.12Z"/>
      <path class="cls-5" d="M99.91,71.93v-12.72h2.89c-.03.74-.54,1.89-1.25,2.94h1.46c.54-1.71,1.89-3.32,3.98-3.32,2.89,0,4.37,1.76,4.37,4.72v8.38h-3.11v-7.76c0-1.84-.84-2.73-2.3-2.73-2.66,0-2.91,2.55-2.91,4.67v5.82h-3.12Z"/>
      <path class="cls-5" d="M120.29,58.83c3.68,0,5.97,2.76,5.97,6.54,0,.38-.02.69-.05.97h-8.99c.1,2.45,1.38,3.52,3.14,3.52,1.63,0,2.53-.97,3.12-2.3l2.81,1.05c-.89,2.25-2.78,3.7-5.95,3.7-3.75,0-6.2-2.53-6.2-6.74s2.63-6.74,6.15-6.74ZM123.13,64.04c-.1-1.84-1.2-2.89-2.83-2.89s-2.73,1.05-2.96,2.89h5.8Z"/>
      <path class="cls-5" d="M129.23,59.21h2.89c0,1.15-.56,2.71-1.2,3.75h1.46c.59-2.55,1.68-3.98,4.26-3.98.33,0,.64.03.94.08v3.19c-.38-.08-.84-.1-1.38-.1-2.68,0-3.86,1.28-3.86,4.54v5.24h-3.12v-12.72Z"/>
    </g>
  </g>
</svg>