<svg width="188" height="206" viewBox="0 0 188 206" fill="none" xmlns="http://www.w3.org/2000/svg">
<path d="M111.324 200.863C100.603 207.046 87.3967 207.046 76.6764 200.863L17.8232 166.918C7.10404 160.735 0.5 149.309 0.5 136.944V69.0558C0.5 56.6908 7.10403 45.265 17.8232 39.0817C17.8232 39.0817 17.8232 39.0817 17.8232 39.0817L76.6764 5.1375C87.3967 -1.04583 100.603 -1.04583 111.324 5.13749L170.177 39.0817C180.896 45.265 187.5 56.6908 187.5 69.0558V136.944C187.5 149.309 180.896 160.735 170.177 166.918L111.324 200.863Z" fill="url(#paint0_linear_431_37624)"/>
<path d="M111.324 200.863C100.603 207.046 87.3967 207.046 76.6764 200.863L17.8232 166.918C7.10404 160.735 0.5 149.309 0.5 136.944V69.0558C0.5 56.6908 7.10403 45.265 17.8232 39.0817C17.8232 39.0817 17.8232 39.0817 17.8232 39.0817L76.6764 5.1375C87.3967 -1.04583 100.603 -1.04583 111.324 5.13749L170.177 39.0817C180.896 45.265 187.5 56.6908 187.5 69.0558V136.944C187.5 149.309 180.896 160.735 170.177 166.918L111.324 200.863Z" fill="url(#paint1_linear_431_37624)" style="mix-blend-mode:overlay"/>
<path d="M111.324 200.863C100.603 207.046 87.3967 207.046 76.6764 200.863L17.8232 166.918C7.10404 160.735 0.5 149.309 0.5 136.944V69.0558C0.5 56.6908 7.10403 45.265 17.8232 39.0817C17.8232 39.0817 17.8232 39.0817 17.8232 39.0817L76.6764 5.1375C87.3967 -1.04583 100.603 -1.04583 111.324 5.13749L170.177 39.0817C180.896 45.265 187.5 56.6908 187.5 69.0558V136.944C187.5 149.309 180.896 160.735 170.177 166.918L111.324 200.863Z" fill="#967D4A" style="mix-blend-mode:color"/>
<path d="M111.324 200.863C100.603 207.046 87.3967 207.046 76.6764 200.863L17.8232 166.918C7.10404 160.735 0.5 149.309 0.5 136.944V69.0558C0.5 56.6908 7.10403 45.265 17.8232 39.0817C17.8232 39.0817 17.8232 39.0817 17.8232 39.0817L76.6764 5.1375C87.3967 -1.04583 100.603 -1.04583 111.324 5.13749L170.177 39.0817C180.896 45.265 187.5 56.6908 187.5 69.0558V136.944C187.5 149.309 180.896 160.735 170.177 166.918L111.324 200.863Z" stroke="url(#paint2_linear_431_37624)"/>
<path d="M55.302 106.854L58.96 105.614C59.487 107.722 60.944 109.117 63.176 109.117C65.532 109.117 67.082 107.629 67.082 105.18C67.082 102.731 65.532 101.181 63.176 101.181C61.533 101.181 60.169 102.018 59.518 103.258L55.705 102.514L57.565 90.3H70.368V93.772H60.355L59.921 96.469C59.518 99.197 58.991 99.91 57.999 101.15H59.859C60.758 99.29 62.184 98.267 64.54 98.267C68.167 98.267 71.112 100.871 71.112 105.18C71.112 109.52 68.167 112.465 63.362 112.465C58.991 112.465 55.953 110.14 55.302 106.854ZM74.1083 101.119C74.1083 93.958 77.8593 89.835 82.9743 89.835C88.0583 89.835 91.8093 93.958 91.8093 101.119C91.8093 108.435 88.1823 112.465 82.9743 112.465C77.7043 112.465 74.1083 108.435 74.1083 101.119ZM87.6553 101.119C87.6553 95.88 85.7023 93.245 82.9743 93.245C80.1843 93.245 78.2313 95.88 78.2313 101.119C78.2313 106.606 80.1843 109.055 82.9743 109.055C85.8263 109.055 87.6553 106.544 87.6553 101.119ZM94.9667 101.119C94.9667 93.958 98.7177 89.835 103.833 89.835C108.917 89.835 112.668 93.958 112.668 101.119C112.668 108.435 109.041 112.465 103.833 112.465C98.5627 112.465 94.9667 108.435 94.9667 101.119ZM108.514 101.119C108.514 95.88 106.561 93.245 103.833 93.245C101.043 93.245 99.0897 95.88 99.0897 101.119C99.0897 106.606 101.043 109.055 103.833 109.055C106.685 109.055 108.514 106.544 108.514 101.119ZM115.267 106.11L118.739 104.715C119.235 106.823 120.537 108.528 122.645 109.055V102.545L121.994 102.421C118.367 101.677 116.29 99.879 116.29 96.159C116.29 93.028 118.677 90.3 122.645 89.897V87.169H125.28V89.928C129 90.331 131.139 92.873 131.883 95.291L128.566 96.686C128.039 95.105 127.016 93.772 125.28 93.276V99.29L126.148 99.507C129.744 100.375 132.131 102.328 132.131 105.831C132.131 109.334 129.868 111.969 125.28 112.434V115.131H122.645V112.403C118.553 111.907 116.166 109.334 115.267 106.11ZM124.04 108.838L124.722 109.923C126.52 109.272 128.349 108.28 128.349 106.079C128.349 104.498 127.295 103.568 125.28 103.072V105.087C125.28 106.668 125.063 107.846 124.04 108.838ZM122.645 98.763V96.934C122.645 95.508 122.707 94.237 123.947 93.152L123.265 92.067C123.048 92.16 122.862 92.191 122.645 92.284C120.692 93.121 120.01 94.392 120.01 95.973C120.01 97.554 120.785 98.298 122.645 98.763Z" fill="white"/>
<path d="M60.9574 62.9091V76H59.3722V64.571H59.2955L56.0994 66.6932V65.0824L59.3722 62.9091H60.9574ZM71.7024 68.3807L70.3473 68.7642C70.2621 68.5384 70.1364 68.3189 69.9702 68.1058C69.8082 67.8885 69.5866 67.7095 69.3054 67.5689C69.0241 67.4283 68.6641 67.358 68.2251 67.358C67.6243 67.358 67.1236 67.4964 66.723 67.7734C66.3267 68.0462 66.1286 68.3935 66.1286 68.8153C66.1286 69.1903 66.2649 69.4865 66.5376 69.7038C66.8104 69.9212 67.2365 70.1023 67.8161 70.2472L69.2734 70.6051C70.1513 70.8182 70.8054 71.1442 71.2358 71.5831C71.6662 72.0178 71.8814 72.5781 71.8814 73.2642C71.8814 73.8267 71.7195 74.3295 71.3956 74.7727C71.076 75.2159 70.6286 75.5653 70.0533 75.821C69.478 76.0767 68.8089 76.2045 68.0462 76.2045C67.0447 76.2045 66.2159 75.9872 65.5597 75.5526C64.9034 75.1179 64.4879 74.483 64.3132 73.6477L65.745 73.2898C65.8814 73.8182 66.1392 74.2145 66.5185 74.4787C66.902 74.7429 67.4027 74.875 68.0206 74.875C68.7237 74.875 69.282 74.7259 69.6953 74.4276C70.1129 74.125 70.3217 73.7628 70.3217 73.3409C70.3217 73 70.2024 72.7145 69.9638 72.4844C69.7251 72.25 69.3587 72.0753 68.8643 71.9602L67.228 71.5767C66.3288 71.3636 65.6683 71.0334 65.2464 70.5859C64.8288 70.1342 64.62 69.5696 64.62 68.892C64.62 68.3381 64.7756 67.848 65.0866 67.4219C65.402 66.9957 65.8303 66.6612 66.3714 66.4183C66.9169 66.1754 67.5348 66.054 68.2251 66.054C69.1967 66.054 69.9595 66.267 70.5135 66.6932C71.0717 67.1193 71.468 67.6818 71.7024 68.3807ZM78.4221 66.1818V67.4602H73.334V66.1818H78.4221ZM74.8169 63.8295H76.3255V73.1875C76.3255 73.6136 76.3873 73.9332 76.5108 74.1463C76.6387 74.3551 76.8006 74.4957 76.9966 74.5682C77.1969 74.6364 77.4078 74.6705 77.6294 74.6705C77.7956 74.6705 77.932 74.6619 78.0385 74.6449C78.1451 74.6236 78.2303 74.6065 78.2942 74.5938L78.601 75.9489C78.4988 75.9872 78.356 76.0256 78.1728 76.0639C77.9895 76.1065 77.7573 76.1278 77.476 76.1278C77.0499 76.1278 76.6323 76.0362 76.2232 75.853C75.8184 75.6697 75.4817 75.3906 75.2132 75.0156C74.949 74.6406 74.8169 74.1676 74.8169 73.5966V63.8295ZM85.5108 76V62.9091H90.6756C91.6685 62.9091 92.5144 63.0987 93.2132 63.478C93.9121 63.853 94.4448 64.375 94.8113 65.044C95.182 65.7088 95.3674 66.4759 95.3674 67.3452C95.3674 68.2145 95.1799 68.9815 94.8049 69.6463C94.4299 70.3111 93.8865 70.8288 93.1749 71.1996C92.4675 71.5703 91.611 71.7557 90.6053 71.7557H87.3134V69.5376H90.1578C90.6905 69.5376 91.1294 69.446 91.4746 69.2628C91.824 69.0753 92.084 68.8175 92.2544 68.4893C92.4292 68.157 92.5165 67.7756 92.5165 67.3452C92.5165 66.9105 92.4292 66.5312 92.2544 66.2074C92.084 65.8793 91.824 65.6257 91.4746 65.4467C91.1252 65.2635 90.682 65.1719 90.1451 65.1719H88.2786V76H85.5108ZM99.837 62.9091V76H97.114V62.9091H99.837ZM104.818 76.1854C104.192 76.1854 103.633 76.0767 103.143 75.8594C102.653 75.6378 102.265 75.3118 101.98 74.8814C101.699 74.4467 101.558 73.9055 101.558 73.2578C101.558 72.7124 101.658 72.2543 101.858 71.8835C102.059 71.5128 102.331 71.2145 102.677 70.9886C103.022 70.7628 103.414 70.5923 103.853 70.4773C104.296 70.3622 104.76 70.2812 105.246 70.2344C105.817 70.1747 106.278 70.1193 106.627 70.0682C106.976 70.0128 107.23 69.9318 107.388 69.8253C107.545 69.7187 107.624 69.5611 107.624 69.3523V69.3139C107.624 68.9091 107.496 68.5959 107.241 68.3743C106.989 68.1527 106.631 68.0419 106.167 68.0419C105.677 68.0419 105.287 68.1506 104.997 68.3679C104.707 68.581 104.515 68.8494 104.422 69.1733L101.903 68.9688C102.031 68.3722 102.282 67.8565 102.657 67.4219C103.032 66.983 103.516 66.6463 104.108 66.4119C104.705 66.1733 105.395 66.054 106.18 66.054C106.725 66.054 107.247 66.1179 107.746 66.2457C108.248 66.3736 108.694 66.5717 109.081 66.8402C109.474 67.1087 109.782 67.4538 110.008 67.8757C110.234 68.2933 110.347 68.794 110.347 69.3778V76H107.765V74.6385H107.688C107.53 74.9453 107.319 75.2159 107.055 75.4503C106.791 75.6804 106.474 75.8615 106.103 75.9936C105.732 76.1214 105.304 76.1854 104.818 76.1854ZM105.598 74.3061C105.998 74.3061 106.352 74.2273 106.659 74.0696C106.966 73.9077 107.206 73.6903 107.381 73.4176C107.556 73.1449 107.643 72.8359 107.643 72.4908V71.4489C107.558 71.5043 107.441 71.5554 107.292 71.6023C107.147 71.6449 106.983 71.6854 106.8 71.7237C106.616 71.7578 106.433 71.7898 106.25 71.8196C106.067 71.8452 105.9 71.8686 105.751 71.8899C105.432 71.9368 105.153 72.0114 104.914 72.1136C104.675 72.2159 104.49 72.3544 104.358 72.5291C104.226 72.6996 104.16 72.9126 104.16 73.1683C104.16 73.5391 104.294 73.8224 104.562 74.0185C104.835 74.2102 105.18 74.3061 105.598 74.3061ZM116.896 76.1918C115.89 76.1918 115.025 75.9787 114.301 75.5526C113.58 75.1222 113.026 74.5256 112.639 73.7628C112.255 73 112.063 72.1222 112.063 71.1293C112.063 70.1236 112.257 69.2415 112.645 68.483C113.037 67.7202 113.593 67.1257 114.313 66.6996C115.034 66.2692 115.89 66.054 116.883 66.054C117.74 66.054 118.49 66.2095 119.133 66.5206C119.776 66.8317 120.286 67.2685 120.661 67.831C121.036 68.3935 121.242 69.054 121.281 69.8125H118.711C118.639 69.3224 118.447 68.9283 118.136 68.63C117.829 68.3274 117.426 68.1761 116.928 68.1761C116.506 68.1761 116.137 68.2912 115.822 68.5213C115.511 68.7472 115.268 69.0774 115.093 69.5121C114.919 69.9467 114.831 70.473 114.831 71.0909C114.831 71.7173 114.916 72.25 115.087 72.6889C115.262 73.1278 115.507 73.4624 115.822 73.6925C116.137 73.9226 116.506 74.0376 116.928 74.0376C117.239 74.0376 117.518 73.9737 117.765 73.8459C118.017 73.718 118.223 73.5327 118.385 73.2898C118.551 73.0426 118.66 72.7464 118.711 72.4013H121.281C121.238 73.1513 121.034 73.8118 120.667 74.3828C120.305 74.9496 119.804 75.3928 119.165 75.7124C118.526 76.032 117.769 76.1918 116.896 76.1918ZM127.499 76.1918C126.489 76.1918 125.619 75.9872 124.891 75.5781C124.166 75.1648 123.608 74.581 123.216 73.8267C122.824 73.0682 122.628 72.1712 122.628 71.1357C122.628 70.1257 122.824 69.2393 123.216 68.4766C123.608 67.7138 124.16 67.1193 124.871 66.6932C125.587 66.267 126.427 66.054 127.39 66.054C128.038 66.054 128.641 66.1584 129.199 66.3672C129.761 66.5717 130.251 66.8807 130.669 67.294C131.091 67.7074 131.419 68.2273 131.653 68.8537C131.888 69.4759 132.005 70.2045 132.005 71.0398V71.7876H123.714V70.1001H129.442C129.442 69.7081 129.357 69.3608 129.186 69.0582C129.016 68.7557 128.779 68.5192 128.477 68.3487C128.178 68.174 127.831 68.0866 127.435 68.0866C127.021 68.0866 126.655 68.1825 126.335 68.3743C126.02 68.5618 125.773 68.8153 125.594 69.1349C125.415 69.4503 125.323 69.8018 125.319 70.1896V71.794C125.319 72.2798 125.408 72.6996 125.587 73.0533C125.771 73.407 126.028 73.6797 126.361 73.8714C126.693 74.0632 127.087 74.1591 127.543 74.1591C127.846 74.1591 128.123 74.1165 128.374 74.0312C128.626 73.946 128.841 73.8182 129.02 73.6477C129.199 73.4773 129.335 73.2685 129.429 73.0213L131.947 73.1875C131.82 73.7926 131.558 74.321 131.161 74.7727C130.769 75.2202 130.262 75.5696 129.64 75.821C129.022 76.0682 128.308 76.1918 127.499 76.1918Z" fill="white"/>
<path d="M65.3807 143V133.182H66.8892V143H65.3807ZM66.1477 131.545C65.8537 131.545 65.6001 131.445 65.3871 131.245C65.1783 131.045 65.0739 130.804 65.0739 130.523C65.0739 130.241 65.1783 130.001 65.3871 129.8C65.6001 129.6 65.8537 129.5 66.1477 129.5C66.4418 129.5 66.6932 129.6 66.902 129.8C67.1151 130.001 67.2216 130.241 67.2216 130.523C67.2216 130.804 67.1151 131.045 66.902 131.245C66.6932 131.445 66.4418 131.545 66.1477 131.545ZM71.1607 137.094V143H69.6522V133.182H71.1096V134.716H71.2374C71.4675 134.217 71.8169 133.817 72.2857 133.514C72.7544 133.207 73.3596 133.054 74.101 133.054C74.7658 133.054 75.3475 133.19 75.8461 133.463C76.3446 133.732 76.7324 134.141 77.0094 134.69C77.2864 135.236 77.4249 135.926 77.4249 136.761V143H75.9164V136.864C75.9164 136.092 75.7161 135.491 75.3155 135.061C74.915 134.626 74.3652 134.409 73.6664 134.409C73.1848 134.409 72.7544 134.513 72.3752 134.722C72.0002 134.931 71.704 135.236 71.4867 135.636C71.2694 136.037 71.1607 136.523 71.1607 137.094ZM84.5025 132.191V129.909H95.2539V132.191H91.2461V143H88.5103V132.191H84.5025ZM100.024 143.192C99.014 143.192 98.1447 142.987 97.416 142.578C96.6916 142.165 96.1333 141.581 95.7413 140.827C95.3493 140.068 95.1532 139.171 95.1532 138.136C95.1532 137.126 95.3493 136.239 95.7413 135.477C96.1333 134.714 96.6852 134.119 97.3968 133.693C98.1127 133.267 98.9522 133.054 99.9153 133.054C100.563 133.054 101.166 133.158 101.724 133.367C102.287 133.572 102.777 133.881 103.194 134.294C103.616 134.707 103.944 135.227 104.179 135.854C104.413 136.476 104.53 137.205 104.53 138.04V138.788H96.2399V137.1H101.967C101.967 136.708 101.882 136.361 101.711 136.058C101.541 135.756 101.305 135.519 101.002 135.349C100.704 135.174 100.356 135.087 99.9601 135.087C99.5467 135.087 99.1802 135.183 98.8606 135.374C98.5453 135.562 98.2981 135.815 98.1191 136.135C97.9402 136.45 97.8485 136.802 97.8443 137.19V138.794C97.8443 139.28 97.9338 139.7 98.1127 140.053C98.296 140.407 98.5538 140.68 98.8862 140.871C99.2186 141.063 99.6127 141.159 100.069 141.159C100.371 141.159 100.648 141.116 100.9 141.031C101.151 140.946 101.366 140.818 101.545 140.648C101.724 140.477 101.861 140.268 101.954 140.021L104.473 140.188C104.345 140.793 104.083 141.321 103.687 141.773C103.295 142.22 102.787 142.57 102.165 142.821C101.547 143.068 100.834 143.192 100.024 143.192ZM110.782 143.192C109.772 143.192 108.903 142.987 108.174 142.578C107.449 142.165 106.891 141.581 106.499 140.827C106.107 140.068 105.911 139.171 105.911 138.136C105.911 137.126 106.107 136.239 106.499 135.477C106.891 134.714 107.443 134.119 108.155 133.693C108.871 133.267 109.71 133.054 110.673 133.054C111.321 133.054 111.924 133.158 112.482 133.367C113.045 133.572 113.535 133.881 113.952 134.294C114.374 134.707 114.702 135.227 114.937 135.854C115.171 136.476 115.288 137.205 115.288 138.04V138.788H106.998V137.1H112.725C112.725 136.708 112.64 136.361 112.469 136.058C112.299 135.756 112.062 135.519 111.76 135.349C111.461 135.174 111.114 135.087 110.718 135.087C110.305 135.087 109.938 135.183 109.618 135.374C109.303 135.562 109.056 135.815 108.877 136.135C108.698 136.45 108.606 136.802 108.602 137.19V138.794C108.602 139.28 108.692 139.7 108.871 140.053C109.054 140.407 109.312 140.68 109.644 140.871C109.976 141.063 110.371 141.159 110.827 141.159C111.129 141.159 111.406 141.116 111.657 141.031C111.909 140.946 112.124 140.818 112.303 140.648C112.482 140.477 112.618 140.268 112.712 140.021L115.231 140.188C115.103 140.793 114.841 141.321 114.444 141.773C114.052 142.22 113.545 142.57 112.923 142.821C112.305 143.068 111.591 143.192 110.782 143.192ZM117.065 143V133.182H119.705V134.895H119.807C119.986 134.286 120.287 133.825 120.709 133.514C121.131 133.199 121.616 133.041 122.166 133.041C122.302 133.041 122.449 133.05 122.607 133.067C122.765 133.084 122.903 133.107 123.023 133.137V135.553C122.895 135.515 122.718 135.481 122.492 135.451C122.266 135.421 122.059 135.406 121.872 135.406C121.471 135.406 121.113 135.494 120.798 135.668C120.487 135.839 120.24 136.077 120.057 136.384C119.878 136.691 119.788 137.045 119.788 137.445V143H117.065Z" fill="white"/>
<defs>
<linearGradient id="paint0_linear_431_37624" x1="10.4234" y1="128.84" x2="187.295" y2="91.0279" gradientUnits="userSpaceOnUse">
<stop stop-color="#576265"/>
<stop offset="0.172016" stop-color="#9EA1A1"/>
<stop offset="0.45741" stop-color="#848B8A"/>
<stop offset="0.553567" stop-color="#576265"/>
<stop offset="0.823421" stop-color="#576265"/>
<stop offset="0.925155" stop-color="#757A7B"/>
<stop offset="1" stop-color="#576265"/>
</linearGradient>
<linearGradient id="paint1_linear_431_37624" x1="75.0484" y1="103" x2="31.154" y2="-1.54268" gradientUnits="userSpaceOnUse">
<stop stop-color="white" stop-opacity="0"/>
<stop offset="1" stop-color="white"/>
</linearGradient>
<linearGradient id="paint2_linear_431_37624" x1="188" y1="103" x2="0" y2="103" gradientUnits="userSpaceOnUse">
<stop offset="0.0913122" stop-color="#24AD7C"/>
<stop offset="1" stop-color="#1845B9"/>
</linearGradient>
</defs>
</svg>
