<svg width="188" height="206" viewBox="0 0 188 206" fill="none" xmlns="http://www.w3.org/2000/svg">
<path d="M111.324 200.862C100.603 207.046 87.3967 207.046 76.6764 200.862L17.8232 166.918C7.10404 160.735 0.5 149.309 0.5 136.944V69.0558C0.5 56.6908 7.10403 45.265 17.8232 39.0817C17.8232 39.0817 17.8232 39.0817 17.8232 39.0817L76.6764 5.1375C87.3967 -1.04583 100.603 -1.04583 111.324 5.13749L170.177 39.0817C180.896 45.265 187.5 56.6908 187.5 69.0558V136.944C187.5 149.309 180.896 160.735 170.177 166.918L111.324 200.862Z" fill="url(#paint0_linear_431_37630)"/>
<path d="M111.324 200.862C100.603 207.046 87.3967 207.046 76.6764 200.862L17.8232 166.918C7.10404 160.735 0.5 149.309 0.5 136.944V69.0558C0.5 56.6908 7.10403 45.265 17.8232 39.0817C17.8232 39.0817 17.8232 39.0817 17.8232 39.0817L76.6764 5.1375C87.3967 -1.04583 100.603 -1.04583 111.324 5.13749L170.177 39.0817C180.896 45.265 187.5 56.6908 187.5 69.0558V136.944C187.5 149.309 180.896 160.735 170.177 166.918L111.324 200.862Z" fill="url(#paint1_linear_431_37630)" style="mix-blend-mode:overlay"/>
<path d="M111.324 200.862C100.603 207.046 87.3967 207.046 76.6764 200.862L17.8232 166.918C7.10404 160.735 0.5 149.309 0.5 136.944V69.0558C0.5 56.6908 7.10403 45.265 17.8232 39.0817C17.8232 39.0817 17.8232 39.0817 17.8232 39.0817L76.6764 5.1375C87.3967 -1.04583 100.603 -1.04583 111.324 5.13749L170.177 39.0817C180.896 45.265 187.5 56.6908 187.5 69.0558V136.944C187.5 149.309 180.896 160.735 170.177 166.918L111.324 200.862Z" fill="#CDC9C2" style="mix-blend-mode:color"/>
<path d="M111.324 200.862C100.603 207.046 87.3967 207.046 76.6764 200.862L17.8232 166.918C7.10404 160.735 0.5 149.309 0.5 136.944V69.0558C0.5 56.6908 7.10403 45.265 17.8232 39.0817C17.8232 39.0817 17.8232 39.0817 17.8232 39.0817L76.6764 5.1375C87.3967 -1.04583 100.603 -1.04583 111.324 5.13749L170.177 39.0817C180.896 45.265 187.5 56.6908 187.5 69.0558V136.944C187.5 149.309 180.896 160.735 170.177 166.918L111.324 200.862Z" stroke="url(#paint2_linear_431_37630)"/>
<path d="M55.705 112V107.815C63.889 102.948 66.617 100.499 66.71 96.996C66.71 94.64 65.191 93.276 63.207 93.276C60.696 93.276 59.549 95.322 59.456 97.895L55.519 97.306C55.612 93.276 58.309 89.835 63.3 89.835C68.012 89.835 70.833 92.625 70.833 96.593C70.833 100.654 68.415 103.134 65.222 105.18C63.641 106.172 61.533 107.35 58.805 108.745L59.642 110.171C61.068 109.148 62.246 108.559 65.067 108.559H70.988V112H55.705ZM74.1689 101.119C74.1689 93.958 77.9199 89.835 83.0349 89.835C88.1189 89.835 91.8699 93.958 91.8699 101.119C91.8699 108.435 88.2429 112.465 83.0349 112.465C77.7649 112.465 74.1689 108.435 74.1689 101.119ZM87.7159 101.119C87.7159 95.88 85.7629 93.245 83.0349 93.245C80.2449 93.245 78.2919 95.88 78.2919 101.119C78.2919 106.606 80.2449 109.055 83.0349 109.055C85.8869 109.055 87.7159 106.544 87.7159 101.119ZM95.0273 101.119C95.0273 93.958 98.7783 89.835 103.893 89.835C108.977 89.835 112.728 93.958 112.728 101.119C112.728 108.435 109.101 112.465 103.893 112.465C98.6233 112.465 95.0273 108.435 95.0273 101.119ZM108.574 101.119C108.574 95.88 106.621 93.245 103.893 93.245C101.103 93.245 99.1503 95.88 99.1503 101.119C99.1503 106.606 101.103 109.055 103.893 109.055C106.745 109.055 108.574 106.544 108.574 101.119ZM115.328 106.11L118.8 104.715C119.296 106.823 120.598 108.528 122.706 109.055V102.545L122.055 102.421C118.428 101.677 116.351 99.879 116.351 96.159C116.351 93.028 118.738 90.3 122.706 89.897V87.169H125.341V89.928C129.061 90.331 131.2 92.873 131.944 95.291L128.627 96.686C128.1 95.105 127.077 93.772 125.341 93.276V99.29L126.209 99.507C129.805 100.375 132.192 102.328 132.192 105.831C132.192 109.334 129.929 111.969 125.341 112.434V115.131H122.706V112.403C118.614 111.907 116.227 109.334 115.328 106.11ZM124.101 108.838L124.783 109.923C126.581 109.272 128.41 108.28 128.41 106.079C128.41 104.498 127.356 103.568 125.341 103.072V105.087C125.341 106.668 125.124 107.846 124.101 108.838ZM122.706 98.763V96.934C122.706 95.508 122.768 94.237 124.008 93.152L123.326 92.067C123.109 92.16 122.923 92.191 122.706 92.284C120.753 93.121 120.071 94.392 120.071 95.973C120.071 97.554 120.846 98.298 122.706 98.763Z" fill="white"/>
<path d="M56.3551 76V74.8494L60.6761 70.1193C61.1832 69.5653 61.6009 69.0838 61.929 68.6747C62.2571 68.2614 62.5 67.8736 62.6577 67.5114C62.8196 67.1449 62.9006 66.7614 62.9006 66.3608C62.9006 65.9006 62.7898 65.5021 62.5682 65.1655C62.3509 64.8288 62.0526 64.5689 61.6733 64.3857C61.294 64.2024 60.8679 64.1108 60.3949 64.1108C59.892 64.1108 59.4531 64.2152 59.0781 64.424C58.7074 64.6286 58.4197 64.9162 58.2152 65.2869C58.0149 65.6577 57.9148 66.0923 57.9148 66.5909H56.4062C56.4062 65.8239 56.5831 65.1506 56.9368 64.571C57.2905 63.9915 57.772 63.5398 58.3814 63.2159C58.995 62.892 59.6832 62.7301 60.446 62.7301C61.2131 62.7301 61.8928 62.892 62.4851 63.2159C63.0774 63.5398 63.5419 63.9766 63.8786 64.5263C64.2152 65.076 64.3835 65.6875 64.3835 66.3608C64.3835 66.8423 64.2962 67.3132 64.1214 67.7734C63.951 68.2294 63.6527 68.7386 63.2266 69.3011C62.8047 69.8594 62.2188 70.5412 61.4688 71.3466L58.5284 74.4915V74.5938H64.6136V76H56.3551ZM68.7876 70.0938V76H67.2791V66.1818H68.7365V67.7159H68.8643C69.0945 67.2173 69.4439 66.8168 69.9126 66.5142C70.3814 66.2074 70.9865 66.054 71.728 66.054C72.3928 66.054 72.9744 66.1903 73.473 66.4631C73.9716 66.7315 74.3594 67.1406 74.6364 67.6903C74.9134 68.2358 75.0518 68.9261 75.0518 69.7614V76H73.5433V69.8636C73.5433 69.0923 73.343 68.4915 72.9425 68.0611C72.5419 67.6264 71.9922 67.4091 71.2933 67.4091C70.8118 67.4091 70.3814 67.5135 70.0021 67.7223C69.6271 67.9311 69.331 68.2358 69.1136 68.6364C68.8963 69.0369 68.7876 69.5227 68.7876 70.0938ZM81.5158 76.2045C80.6976 76.2045 79.9753 75.9979 79.3489 75.5845C78.7225 75.1669 78.2324 74.5788 77.8787 73.8203C77.525 73.0575 77.3482 72.1562 77.3482 71.1165C77.3482 70.0852 77.525 69.1903 77.8787 68.4318C78.2324 67.6733 78.7246 67.0874 79.3553 66.674C79.986 66.2607 80.7147 66.054 81.5414 66.054C82.1806 66.054 82.6855 66.1605 83.0563 66.3736C83.4313 66.5824 83.7168 66.821 83.9128 67.0895C84.1131 67.3537 84.2686 67.571 84.3794 67.7415H84.5073V62.9091H86.0158V76H84.5584V74.4915H84.3794C84.2686 74.6705 84.111 74.8963 83.9064 75.169C83.7019 75.4375 83.41 75.6783 83.0307 75.8913C82.6515 76.1001 82.1465 76.2045 81.5158 76.2045ZM81.7203 74.8494C82.3255 74.8494 82.8368 74.6918 83.2544 74.3764C83.6721 74.0568 83.9895 73.6158 84.2069 73.0533C84.4242 72.4865 84.5328 71.8324 84.5328 71.0909C84.5328 70.358 84.4263 69.7166 84.2132 69.1669C84.0002 68.6129 83.6848 68.1825 83.2672 67.8757C82.8496 67.5646 82.334 67.4091 81.7203 67.4091C81.0811 67.4091 80.5485 67.5732 80.1223 67.9013C79.7005 68.2251 79.383 68.6662 79.1699 69.2244C78.9611 69.7784 78.8567 70.4006 78.8567 71.0909C78.8567 71.7898 78.9632 72.4247 79.1763 72.9957C79.3936 73.5625 79.7132 74.0142 80.1351 74.3509C80.5613 74.6832 81.0897 74.8494 81.7203 74.8494ZM93.8077 76V62.9091H98.9725C99.9654 62.9091 100.811 63.0987 101.51 63.478C102.209 63.853 102.742 64.375 103.108 65.044C103.479 65.7088 103.664 66.4759 103.664 67.3452C103.664 68.2145 103.477 68.9815 103.102 69.6463C102.727 70.3111 102.183 70.8288 101.472 71.1996C100.764 71.5703 99.9078 71.7557 98.9022 71.7557H95.6103V69.5376H98.4547C98.9874 69.5376 99.4263 69.446 99.7715 69.2628C100.121 69.0753 100.381 68.8175 100.551 68.4893C100.726 68.157 100.813 67.7756 100.813 67.3452C100.813 66.9105 100.726 66.5312 100.551 66.2074C100.381 65.8793 100.121 65.6257 99.7715 65.4467C99.4221 65.2635 98.9789 65.1719 98.4419 65.1719H96.5755V76H93.8077ZM108.134 62.9091V76H105.411V62.9091H108.134ZM113.115 76.1854C112.488 76.1854 111.93 76.0767 111.44 75.8594C110.95 75.6378 110.562 75.3118 110.277 74.8814C109.996 74.4467 109.855 73.9055 109.855 73.2578C109.855 72.7124 109.955 72.2543 110.155 71.8835C110.356 71.5128 110.628 71.2145 110.974 70.9886C111.319 70.7628 111.711 70.5923 112.15 70.4773C112.593 70.3622 113.057 70.2812 113.543 70.2344C114.114 70.1747 114.574 70.1193 114.924 70.0682C115.273 70.0128 115.527 69.9318 115.684 69.8253C115.842 69.7187 115.921 69.5611 115.921 69.3523V69.3139C115.921 68.9091 115.793 68.5959 115.537 68.3743C115.286 68.1527 114.928 68.0419 114.464 68.0419C113.974 68.0419 113.584 68.1506 113.294 68.3679C113.004 68.581 112.812 68.8494 112.719 69.1733L110.2 68.9688C110.328 68.3722 110.579 67.8565 110.954 67.4219C111.329 66.983 111.813 66.6463 112.405 66.4119C113.002 66.1733 113.692 66.054 114.476 66.054C115.022 66.054 115.544 66.1179 116.042 66.2457C116.545 66.3736 116.991 66.5717 117.378 66.8402C117.77 67.1087 118.079 67.4538 118.305 67.8757C118.531 68.2933 118.644 68.794 118.644 69.3778V76H116.062V74.6385H115.985C115.827 74.9453 115.616 75.2159 115.352 75.4503C115.088 75.6804 114.77 75.8615 114.4 75.9936C114.029 76.1214 113.601 76.1854 113.115 76.1854ZM113.895 74.3061C114.295 74.3061 114.649 74.2273 114.956 74.0696C115.263 73.9077 115.503 73.6903 115.678 73.4176C115.853 73.1449 115.94 72.8359 115.94 72.4908V71.4489C115.855 71.5043 115.738 71.5554 115.589 71.6023C115.444 71.6449 115.28 71.6854 115.096 71.7237C114.913 71.7578 114.73 71.7898 114.547 71.8196C114.363 71.8452 114.197 71.8686 114.048 71.8899C113.729 71.9368 113.449 72.0114 113.211 72.1136C112.972 72.2159 112.787 72.3544 112.655 72.5291C112.523 72.6996 112.456 72.9126 112.456 73.1683C112.456 73.5391 112.591 73.8224 112.859 74.0185C113.132 74.2102 113.477 74.3061 113.895 74.3061ZM125.193 76.1918C124.187 76.1918 123.322 75.9787 122.597 75.5526C121.877 75.1222 121.323 74.5256 120.936 73.7628C120.552 73 120.36 72.1222 120.36 71.1293C120.36 70.1236 120.554 69.2415 120.942 68.483C121.334 67.7202 121.89 67.1257 122.61 66.6996C123.33 66.2692 124.187 66.054 125.18 66.054C126.036 66.054 126.786 66.2095 127.43 66.5206C128.073 66.8317 128.583 67.2685 128.958 67.831C129.333 68.3935 129.539 69.054 129.578 69.8125H127.008C126.936 69.3224 126.744 68.9283 126.433 68.63C126.126 68.3274 125.723 68.1761 125.225 68.1761C124.803 68.1761 124.434 68.2912 124.119 68.5213C123.808 68.7472 123.565 69.0774 123.39 69.5121C123.215 69.9467 123.128 70.473 123.128 71.0909C123.128 71.7173 123.213 72.25 123.384 72.6889C123.558 73.1278 123.803 73.4624 124.119 73.6925C124.434 73.9226 124.803 74.0376 125.225 74.0376C125.536 74.0376 125.815 73.9737 126.062 73.8459C126.313 73.718 126.52 73.5327 126.682 73.2898C126.848 73.0426 126.957 72.7464 127.008 72.4013H129.578C129.535 73.1513 129.33 73.8118 128.964 74.3828C128.602 74.9496 128.101 75.3928 127.462 75.7124C126.823 76.032 126.066 76.1918 125.193 76.1918ZM135.795 76.1918C134.786 76.1918 133.916 75.9872 133.188 75.5781C132.463 75.1648 131.905 74.581 131.513 73.8267C131.121 73.0682 130.925 72.1712 130.925 71.1357C130.925 70.1257 131.121 69.2393 131.513 68.4766C131.905 67.7138 132.457 67.1193 133.168 66.6932C133.884 66.267 134.724 66.054 135.687 66.054C136.335 66.054 136.938 66.1584 137.496 66.3672C138.058 66.5717 138.548 66.8807 138.966 67.294C139.388 67.7074 139.716 68.2273 139.95 68.8537C140.185 69.4759 140.302 70.2045 140.302 71.0398V71.7876H132.011V70.1001H137.739C137.739 69.7081 137.653 69.3608 137.483 69.0582C137.313 68.7557 137.076 68.5192 136.773 68.3487C136.475 68.174 136.128 68.0866 135.732 68.0866C135.318 68.0866 134.952 68.1825 134.632 68.3743C134.317 68.5618 134.07 68.8153 133.891 69.1349C133.712 69.4503 133.62 69.8018 133.616 70.1896V71.794C133.616 72.2798 133.705 72.6996 133.884 73.0533C134.067 73.407 134.325 73.6797 134.658 73.8714C134.99 74.0632 135.384 74.1591 135.84 74.1591C136.143 74.1591 136.42 74.1165 136.671 74.0312C136.923 73.946 137.138 73.8182 137.317 73.6477C137.496 73.4773 137.632 73.2685 137.726 73.0213L140.244 73.1875C140.116 73.7926 139.854 74.321 139.458 74.7727C139.066 75.2202 138.559 75.5696 137.937 75.821C137.319 76.0682 136.605 76.1918 135.795 76.1918Z" fill="white"/>
<path d="M65.3807 143V133.182H66.8892V143H65.3807ZM66.1477 131.545C65.8537 131.545 65.6001 131.445 65.3871 131.245C65.1783 131.045 65.0739 130.804 65.0739 130.523C65.0739 130.241 65.1783 130.001 65.3871 129.8C65.6001 129.6 65.8537 129.5 66.1477 129.5C66.4418 129.5 66.6932 129.6 66.902 129.8C67.1151 130.001 67.2216 130.241 67.2216 130.523C67.2216 130.804 67.1151 131.045 66.902 131.245C66.6932 131.445 66.4418 131.545 66.1477 131.545ZM71.1607 137.094V143H69.6522V133.182H71.1096V134.716H71.2374C71.4675 134.217 71.8169 133.817 72.2857 133.514C72.7544 133.207 73.3596 133.054 74.101 133.054C74.7658 133.054 75.3475 133.19 75.8461 133.463C76.3446 133.732 76.7324 134.141 77.0094 134.69C77.2864 135.236 77.4249 135.926 77.4249 136.761V143H75.9164V136.864C75.9164 136.092 75.7161 135.491 75.3155 135.061C74.915 134.626 74.3652 134.409 73.6664 134.409C73.1848 134.409 72.7544 134.513 72.3752 134.722C72.0002 134.931 71.704 135.236 71.4867 135.636C71.2694 136.037 71.1607 136.523 71.1607 137.094ZM84.5025 132.191V129.909H95.2539V132.191H91.2461V143H88.5103V132.191H84.5025ZM100.024 143.192C99.014 143.192 98.1447 142.987 97.416 142.578C96.6916 142.165 96.1333 141.581 95.7413 140.827C95.3493 140.068 95.1532 139.171 95.1532 138.136C95.1532 137.126 95.3493 136.239 95.7413 135.477C96.1333 134.714 96.6852 134.119 97.3968 133.693C98.1127 133.267 98.9522 133.054 99.9153 133.054C100.563 133.054 101.166 133.158 101.724 133.367C102.287 133.572 102.777 133.881 103.194 134.294C103.616 134.707 103.944 135.227 104.179 135.854C104.413 136.476 104.53 137.205 104.53 138.04V138.788H96.2399V137.1H101.967C101.967 136.708 101.882 136.361 101.711 136.058C101.541 135.756 101.305 135.519 101.002 135.349C100.704 135.174 100.356 135.087 99.9601 135.087C99.5467 135.087 99.1802 135.183 98.8606 135.374C98.5453 135.562 98.2981 135.815 98.1191 136.135C97.9402 136.45 97.8485 136.802 97.8443 137.19V138.794C97.8443 139.28 97.9338 139.7 98.1127 140.053C98.296 140.407 98.5538 140.68 98.8862 140.871C99.2186 141.063 99.6127 141.159 100.069 141.159C100.371 141.159 100.648 141.116 100.9 141.031C101.151 140.946 101.366 140.818 101.545 140.648C101.724 140.477 101.861 140.268 101.954 140.021L104.473 140.188C104.345 140.793 104.083 141.321 103.687 141.773C103.295 142.22 102.787 142.57 102.165 142.821C101.547 143.068 100.834 143.192 100.024 143.192ZM110.782 143.192C109.772 143.192 108.903 142.987 108.174 142.578C107.449 142.165 106.891 141.581 106.499 140.827C106.107 140.068 105.911 139.171 105.911 138.136C105.911 137.126 106.107 136.239 106.499 135.477C106.891 134.714 107.443 134.119 108.155 133.693C108.871 133.267 109.71 133.054 110.673 133.054C111.321 133.054 111.924 133.158 112.482 133.367C113.045 133.572 113.535 133.881 113.952 134.294C114.374 134.707 114.702 135.227 114.937 135.854C115.171 136.476 115.288 137.205 115.288 138.04V138.788H106.998V137.1H112.725C112.725 136.708 112.64 136.361 112.469 136.058C112.299 135.756 112.062 135.519 111.76 135.349C111.461 135.174 111.114 135.087 110.718 135.087C110.305 135.087 109.938 135.183 109.618 135.374C109.303 135.562 109.056 135.815 108.877 136.135C108.698 136.45 108.606 136.802 108.602 137.19V138.794C108.602 139.28 108.692 139.7 108.871 140.053C109.054 140.407 109.312 140.68 109.644 140.871C109.976 141.063 110.371 141.159 110.827 141.159C111.129 141.159 111.406 141.116 111.657 141.031C111.909 140.946 112.124 140.818 112.303 140.648C112.482 140.477 112.618 140.268 112.712 140.021L115.231 140.188C115.103 140.793 114.841 141.321 114.444 141.773C114.052 142.22 113.545 142.57 112.923 142.821C112.305 143.068 111.591 143.192 110.782 143.192ZM117.065 143V133.182H119.705V134.895H119.807C119.986 134.286 120.287 133.825 120.709 133.514C121.131 133.199 121.616 133.041 122.166 133.041C122.302 133.041 122.449 133.05 122.607 133.067C122.765 133.084 122.903 133.107 123.023 133.137V135.553C122.895 135.515 122.718 135.481 122.492 135.451C122.266 135.421 122.059 135.406 121.872 135.406C121.471 135.406 121.113 135.494 120.798 135.668C120.487 135.839 120.24 136.077 120.057 136.384C119.878 136.691 119.788 137.045 119.788 137.445V143H117.065Z" fill="white"/>
<defs>
<linearGradient id="paint0_linear_431_37630" x1="10.4234" y1="128.84" x2="187.295" y2="91.0279" gradientUnits="userSpaceOnUse">
<stop stop-color="#576265"/>
<stop offset="0.172016" stop-color="#9EA1A1"/>
<stop offset="0.45741" stop-color="#848B8A"/>
<stop offset="0.553567" stop-color="#576265"/>
<stop offset="0.823421" stop-color="#576265"/>
<stop offset="0.925155" stop-color="#757A7B"/>
<stop offset="1" stop-color="#576265"/>
</linearGradient>
<linearGradient id="paint1_linear_431_37630" x1="75.0484" y1="103" x2="31.154" y2="-1.54268" gradientUnits="userSpaceOnUse">
<stop stop-color="white" stop-opacity="0"/>
<stop offset="1" stop-color="white"/>
</linearGradient>
<linearGradient id="paint2_linear_431_37630" x1="188" y1="103" x2="0" y2="103" gradientUnits="userSpaceOnUse">
<stop offset="0.0913122" stop-color="#24AD7C"/>
<stop offset="1" stop-color="#1845B9"/>
</linearGradient>
</defs>
</svg>
