<svg width="340" height="373" viewBox="0 0 340 373" fill="none" xmlns="http://www.w3.org/2000/svg">
<path d="M201.532 364.049C182.019 375.317 157.981 375.317 138.468 364.049L32.0317 302.587C12.521 291.319 0.5 270.497 0.5 247.962V125.038C0.5 102.503 12.521 81.6813 32.0317 70.4131L138.468 8.95111L138.218 8.51811L138.468 8.9511C157.981 -2.31703 182.019 -2.31703 201.532 8.9511L201.782 8.51811L201.532 8.95111L307.968 70.4131C327.479 81.6813 339.5 102.503 339.5 125.038V247.962C339.5 270.497 327.479 291.319 307.968 302.587L201.532 364.049Z" fill="black" stroke="url(#paint0_linear_431_37618)"/>
<path d="M82.824 162.2H102.088C111.56 162.2 117.768 167.768 117.768 176.344C117.768 184.792 111.56 190.552 102.088 190.552H91.144V207H82.824V162.2ZM100.616 169.368H91.144V183.512H100.616C105.928 183.512 109.064 180.696 109.064 176.344C109.064 171.992 105.992 169.368 100.616 169.368ZM124.236 207V175.128H131.468C131.468 178.008 130.06 181.912 128.46 184.536H132.108C133.58 178.136 136.332 174.552 142.796 174.552C143.628 174.552 144.396 174.616 145.164 174.744V182.744C144.204 182.552 143.052 182.488 141.708 182.488C134.988 182.488 132.044 185.688 132.044 193.88V207H124.236ZM150.666 170.072V162.136H158.986V170.072H150.666ZM150.986 207V175.128H158.73V207H150.986ZM166.062 207V199.256L184.366 180.312L182.253 178.072C180.27 180.056 177.966 181.464 174.382 181.464H166.702V175.128H192.11V181.848L172.782 201.816L174.894 203.992C176.686 202.264 179.438 200.6 183.278 200.6H192.942V207H166.062ZM197.06 191.064C197.06 181.016 203.652 174.168 212.484 174.168C221.7 174.168 227.46 181.08 227.46 190.552C227.46 191.512 227.396 192.28 227.332 192.984H204.804C205.06 199.128 208.26 201.816 212.676 201.816C216.772 201.816 219.012 199.384 220.484 196.056L227.524 198.68C225.284 204.312 220.548 207.96 212.612 207.96C203.204 207.96 197.06 201.624 197.06 191.064ZM205.06 187.224H219.588C219.332 182.616 216.58 179.992 212.484 179.992C208.58 179.992 205.636 182.616 205.06 187.224ZM232.045 198.808L239.277 196.44C239.789 199.256 241.965 202.072 246.957 202.072C250.605 202.072 252.653 200.664 252.653 198.424C252.653 196.44 251.501 195.16 247.917 194.456L243.693 193.688C237.229 192.344 233.389 190.104 233.389 184.088C233.389 178.2 238.701 174.168 246.317 174.168C253.997 174.168 258.093 177.944 259.629 181.848L253.037 184.664C252.013 181.912 249.709 179.8 246.061 179.8C242.669 179.8 240.813 181.272 240.813 183.384C240.813 185.24 241.837 186.2 245.677 186.968L249.837 187.736C255.277 188.76 260.717 191.512 260.717 197.656C260.717 203.864 255.405 207.896 246.637 207.896C239.469 207.896 233.389 204.44 232.045 198.808Z" fill="white"/>
<path fill-rule="evenodd" clip-rule="evenodd" d="M158.307 66.4286H156.071C155.479 66.4286 155 65.9491 155 65.3572V61.0714C155 60.4795 155.479 60 156.071 60H183.929C184.521 60 185 60.4795 185 61.0714V65.3572C185 65.9491 184.521 66.4286 183.929 66.4286H181.691C181.708 67.0961 181.743 67.7116 181.816 68.2661C181.831 68.2656 181.846 68.2656 181.861 68.2656C181.861 68.2656 186.812 68.2656 190.551 68.2656C191.92 68.2656 193.234 68.8093 194.202 69.7773C195.171 70.7459 195.714 72.059 195.714 73.4288C195.714 76.8788 195.714 82.079 195.714 87.3215C195.714 91.1138 194.649 94.6571 192.802 97.6694L199.857 109.888C200.088 110.29 200.035 110.796 199.725 111.14C199.415 111.485 198.917 111.592 198.493 111.403L193.183 109.04L192.571 114.822C192.522 115.284 192.182 115.661 191.728 115.758C191.274 115.854 190.81 115.647 190.578 115.245L186.144 107.566C185.848 107.054 186.024 106.398 186.536 106.102C187.048 105.806 187.704 105.982 188 106.494L190.787 111.322L191.17 107.701L189.734 105.192C189.44 104.679 189.618 104.024 190.131 103.73C190.644 103.436 191.3 103.614 191.593 104.127L193.022 106.623L196.352 108.105L191.447 99.6087C187.971 104.004 182.672 106.89 176.694 107.127C176.583 107.84 176.509 108.561 176.473 109.286C177.593 109.298 178.666 109.748 179.459 110.541C180.263 111.345 180.714 112.435 180.714 113.572C181.851 113.572 182.941 114.023 183.745 114.827C184.548 115.63 185 116.721 185 117.857V118.929C185 119.521 184.521 120 183.929 120H168.122C167.53 120 167.05 119.52 167.05 118.929C167.05 118.337 167.53 117.857 168.122 117.857H182.857C182.857 117.289 182.632 116.744 182.229 116.342C181.828 115.94 181.283 115.714 180.714 115.714H159.286C158.717 115.714 158.172 115.94 157.771 116.342C157.368 116.744 157.143 117.289 157.143 117.857H164.184C164.776 117.857 165.256 118.337 165.256 118.929C165.256 119.52 164.776 120 164.184 120H156.071C155.479 120 155 119.521 155 118.929C155 118.929 155 118.472 155 117.857C155 116.721 155.452 115.63 156.255 114.827C157.059 114.023 158.149 113.572 159.286 113.572C159.286 112.435 159.737 111.345 160.541 110.541C161.338 109.744 162.417 109.293 163.544 109.286C163.508 108.561 163.434 107.84 163.323 107.128C157.337 106.895 152.032 104.007 148.553 99.6087L143.648 108.105L146.978 106.623L148.407 104.127C148.7 103.614 149.356 103.436 149.869 103.73C150.382 104.024 150.56 104.679 150.266 105.192L148.83 107.701L149.213 111.322L152.046 106.415C152.342 105.903 152.997 105.727 153.51 106.023C154.022 106.319 154.197 106.974 153.902 107.486L149.422 115.245C149.19 115.647 148.726 115.854 148.272 115.758C147.818 115.661 147.478 115.284 147.429 114.822L146.817 109.04L141.507 111.403C141.083 111.592 140.585 111.485 140.275 111.14C139.965 110.796 139.912 110.29 140.143 109.888L147.198 97.6694C145.351 94.6571 144.286 91.1138 144.286 87.3215C144.286 82.079 144.286 76.8788 144.286 73.4288C144.286 70.5772 146.597 68.2656 149.449 68.2656H158.177C158.253 67.7122 158.29 67.0966 158.307 66.4286ZM178.571 113.572C178.571 113.003 178.346 112.458 177.944 112.057C177.542 111.654 176.997 111.429 176.429 111.429C172.861 111.429 167.139 111.429 163.571 111.429C163.003 111.429 162.458 111.654 162.056 112.057C161.654 112.458 161.429 113.003 161.429 113.572H178.571ZM175.874 64.2857C176.465 64.2857 176.946 64.7657 176.946 65.3572C176.946 65.9486 176.465 66.4286 175.874 66.4286H160.45C160.417 67.6404 160.327 68.7022 160.107 69.5706C159.876 70.4834 159.498 71.2099 158.974 71.7209C157.8 72.9252 157.143 74.5409 157.143 76.2225C157.143 79.4229 157.143 86.2565 157.143 87.0156C157.143 90.186 158.29 93.0885 160.211 95.3256C163.533 99.2551 165.454 104.166 165.69 109.286H174.327C174.548 104.497 176.243 99.8915 179.182 96.1019C179.544 95.6347 180.218 95.5496 180.685 95.9117C181.152 96.2744 181.237 96.9478 180.875 97.4155C179.13 99.6655 177.868 102.233 177.148 104.956C182.772 104.562 187.671 101.537 190.621 97.1031C190.642 97.0667 190.666 97.0313 190.691 96.9971C192.512 94.2172 193.571 90.8931 193.571 87.3215C193.571 82.079 193.571 76.8788 193.571 73.4288C193.571 72.6274 193.253 71.8591 192.687 71.2929C192.12 70.7266 191.352 70.4084 190.551 70.4084H182.666C184.133 71.9861 184.951 74.0625 184.951 76.2065C185 79.4111 185 86.2554 185 87.0156C185 89.5737 184.359 91.9828 183.23 94.0903C182.95 94.6115 182.301 94.8081 181.779 94.5285C181.258 94.2494 181.061 93.5996 181.341 93.0783C182.309 91.2724 182.857 89.2078 182.857 87.0156C182.857 86.2576 182.857 79.4347 182.808 76.2225C182.808 74.5538 182.156 72.9504 180.989 71.7536C180.466 71.2141 180.102 70.484 179.879 69.5722C179.606 68.452 179.541 67.0195 179.534 65.362C179.533 65.077 179.644 64.8032 179.846 64.6013C180.047 64.3993 180.32 64.2857 180.605 64.2857H182.857V62.1429H157.143V64.2857H175.874ZM157.268 70.4084H149.449C147.781 70.4084 146.429 71.7606 146.429 73.4288C146.429 76.8788 146.429 82.079 146.429 87.3215C146.429 90.8931 147.488 94.2172 149.309 96.9971C149.334 97.0308 149.358 97.0667 149.379 97.1031C152.333 101.542 157.239 104.569 162.87 104.957C162.075 101.946 160.617 99.1255 158.58 96.7153C156.342 94.1096 155 90.719 155 87.0156C155 86.2565 155 79.4229 155 76.2225C155 74.0733 155.806 72.0054 157.268 70.4084Z" fill="url(#paint1_linear_431_37618)"/>
<path fill-rule="evenodd" clip-rule="evenodd" d="M170 80.5378L169.849 81.0012C169.667 81.5637 169.062 81.8717 168.499 81.6891C167.937 81.5064 167.629 80.9016 167.811 80.3391C167.928 79.9796 168.051 79.5998 168.173 79.2269C168.43 78.4357 169.167 77.8994 170 77.8994C170.832 77.8994 171.57 78.4357 171.827 79.2269L172.583 81.5519H175.026C175.859 81.5519 176.597 82.0876 176.854 82.8794C177.111 83.6712 176.829 84.538 176.156 85.0276L174.178 86.4639L174.934 88.7889C175.191 89.5802 174.909 90.4475 174.236 90.9366C173.562 91.4262 172.651 91.4262 171.977 90.9366L170 89.5003L168.023 90.9366C167.349 91.4262 166.437 91.4262 165.764 90.9366C165.091 90.4475 164.809 89.5802 165.066 88.7889L165.821 86.4639L163.844 85.0276C163.171 84.538 162.889 83.6712 163.146 82.8794C163.403 82.0876 164.141 81.5519 164.973 81.5519C165.557 81.5519 165.621 81.5519 166.143 81.5519C166.734 81.5519 167.214 82.0319 167.214 82.6234C167.214 83.2148 166.734 83.6948 166.143 83.6948H165.655L167.211 84.8251C167.884 85.3143 168.166 86.1816 167.909 86.9734L167.314 88.8023L168.871 87.6719C169.544 87.1828 170.456 87.1828 171.129 87.6719L172.685 88.8023L172.091 86.9734C171.834 86.1816 172.115 85.3143 172.789 84.8251L174.344 83.6948H172.421C171.589 83.6948 170.852 83.1585 170.594 82.3673L170 80.5378Z" fill="url(#paint2_linear_431_37618)"/>
<defs>
<linearGradient id="paint0_linear_431_37618" x1="340" y1="186.5" x2="0" y2="186.5" gradientUnits="userSpaceOnUse">
<stop offset="0.0913122" stop-color="#24AD7C"/>
<stop offset="1" stop-color="#1845B9"/>
</linearGradient>
<linearGradient id="paint1_linear_431_37618" x1="200" y1="90.0001" x2="140" y2="90.0001" gradientUnits="userSpaceOnUse">
<stop offset="0.0913122" stop-color="#24AD7C"/>
<stop offset="1" stop-color="#1845B9"/>
</linearGradient>
<linearGradient id="paint2_linear_431_37618" x1="176.948" y1="84.6016" x2="163.052" y2="84.6016" gradientUnits="userSpaceOnUse">
<stop offset="0.0913122" stop-color="#24AD7C"/>
<stop offset="1" stop-color="#1845B9"/>
</linearGradient>
</defs>
</svg>
