<svg width="188" height="206" viewBox="0 0 188 206" fill="none" xmlns="http://www.w3.org/2000/svg">
<path d="M111.324 200.862C100.603 207.046 87.3967 207.046 76.6764 200.862L17.8232 166.918C7.10404 160.735 0.5 149.309 0.5 136.944V69.0558C0.5 56.6908 7.10403 45.265 17.8232 39.0817C17.8232 39.0817 17.8232 39.0817 17.8232 39.0817L76.6764 5.1375C87.3967 -1.04583 100.603 -1.04583 111.324 5.13749L170.177 39.0817C180.896 45.265 187.5 56.6908 187.5 69.0558V136.944C187.5 149.309 180.896 160.735 170.177 166.918L111.324 200.862Z" fill="url(#paint0_linear_431_37636)"/>
<path d="M111.324 200.862C100.603 207.046 87.3967 207.046 76.6764 200.862L17.8232 166.918C7.10404 160.735 0.5 149.309 0.5 136.944V69.0558C0.5 56.6908 7.10403 45.265 17.8232 39.0817C17.8232 39.0817 17.8232 39.0817 17.8232 39.0817L76.6764 5.1375C87.3967 -1.04583 100.603 -1.04583 111.324 5.13749L170.177 39.0817C180.896 45.265 187.5 56.6908 187.5 69.0558V136.944C187.5 149.309 180.896 160.735 170.177 166.918L111.324 200.862Z" fill="url(#paint1_linear_431_37636)" style="mix-blend-mode:overlay"/>
<path d="M111.324 200.862C100.603 207.046 87.3967 207.046 76.6764 200.862L17.8232 166.918C7.10404 160.735 0.5 149.309 0.5 136.944V69.0558C0.5 56.6908 7.10403 45.265 17.8232 39.0817C17.8232 39.0817 17.8232 39.0817 17.8232 39.0817L76.6764 5.1375C87.3967 -1.04583 100.603 -1.04583 111.324 5.13749L170.177 39.0817C180.896 45.265 187.5 56.6908 187.5 69.0558V136.944C187.5 149.309 180.896 160.735 170.177 166.918L111.324 200.862Z" fill="#D09742" style="mix-blend-mode:color"/>
<path d="M111.324 200.862C100.603 207.046 87.3967 207.046 76.6764 200.862L17.8232 166.918C7.10404 160.735 0.5 149.309 0.5 136.944V69.0558C0.5 56.6908 7.10403 45.265 17.8232 39.0817C17.8232 39.0817 17.8232 39.0817 17.8232 39.0817L76.6764 5.1375C87.3967 -1.04583 100.603 -1.04583 111.324 5.13749L170.177 39.0817C180.896 45.265 187.5 56.6908 187.5 69.0558V136.944C187.5 149.309 180.896 160.735 170.177 166.918L111.324 200.862Z" stroke="url(#paint2_linear_431_37636)"/>
<path d="M65.302 106.854L68.96 105.614C69.487 107.722 70.944 109.117 73.176 109.117C75.532 109.117 77.082 107.629 77.082 105.18C77.082 102.731 75.532 101.181 73.176 101.181C71.533 101.181 70.169 102.018 69.518 103.258L65.705 102.514L67.565 90.3H80.368V93.772H70.355L69.921 96.469C69.518 99.197 68.991 99.91 67.999 101.15H69.859C70.758 99.29 72.184 98.267 74.54 98.267C78.167 98.267 81.112 100.871 81.112 105.18C81.112 109.52 78.167 112.465 73.362 112.465C68.991 112.465 65.953 110.14 65.302 106.854ZM84.1083 101.119C84.1083 93.958 87.8593 89.835 92.9743 89.835C98.0583 89.835 101.809 93.958 101.809 101.119C101.809 108.435 98.1823 112.465 92.9743 112.465C87.7043 112.465 84.1083 108.435 84.1083 101.119ZM97.6553 101.119C97.6553 95.88 95.7023 93.245 92.9743 93.245C90.1843 93.245 88.2313 95.88 88.2313 101.119C88.2313 106.606 90.1843 109.055 92.9743 109.055C95.8263 109.055 97.6553 106.544 97.6553 101.119ZM104.409 106.11L107.881 104.715C108.377 106.823 109.679 108.528 111.787 109.055V102.545L111.136 102.421C107.509 101.677 105.432 99.879 105.432 96.159C105.432 93.028 107.819 90.3 111.787 89.897V87.169H114.422V89.928C118.142 90.331 120.281 92.873 121.025 95.291L117.708 96.686C117.181 95.105 116.158 93.772 114.422 93.276V99.29L115.29 99.507C118.886 100.375 121.273 102.328 121.273 105.831C121.273 109.334 119.01 111.969 114.422 112.434V115.131H111.787V112.403C107.695 111.907 105.308 109.334 104.409 106.11ZM113.182 108.838L113.864 109.923C115.662 109.272 117.491 108.28 117.491 106.079C117.491 104.498 116.437 103.568 114.422 103.072V105.087C114.422 106.668 114.205 107.846 113.182 108.838ZM111.787 98.763V96.934C111.787 95.508 111.849 94.237 113.089 93.152L112.407 92.067C112.19 92.16 112.004 92.191 111.787 92.284C109.834 93.121 109.152 94.392 109.152 95.973C109.152 97.554 109.927 98.298 111.787 98.763Z" fill="white"/>
<path d="M60.7784 76.179C59.9347 76.179 59.1825 76.0341 58.522 75.7443C57.8658 75.4545 57.3438 75.0518 56.956 74.5362C56.5724 74.0163 56.3636 73.4134 56.3295 72.7273H57.9403C57.9744 73.1491 58.1193 73.5135 58.375 73.8203C58.6307 74.1229 58.9652 74.3572 59.3786 74.5234C59.7919 74.6896 60.25 74.7727 60.7528 74.7727C61.3153 74.7727 61.8139 74.6747 62.2486 74.4787C62.6832 74.2827 63.0241 74.0099 63.2713 73.6605C63.5185 73.3111 63.642 72.9062 63.642 72.446C63.642 71.9645 63.5227 71.5405 63.2841 71.174C63.0455 70.8033 62.696 70.5135 62.2358 70.3047C61.7756 70.0959 61.2131 69.9915 60.5483 69.9915H59.5V68.5852H60.5483C61.0682 68.5852 61.5241 68.4915 61.9162 68.304C62.3125 68.1165 62.6214 67.8523 62.843 67.5114C63.0689 67.1705 63.1818 66.7699 63.1818 66.3097C63.1818 65.8665 63.0838 65.4808 62.8878 65.1527C62.6918 64.8246 62.4148 64.5689 62.0568 64.3857C61.7031 64.2024 61.2855 64.1108 60.804 64.1108C60.3523 64.1108 59.9261 64.1939 59.5256 64.3601C59.1293 64.522 58.8054 64.7585 58.554 65.0696C58.3026 65.3764 58.1662 65.7472 58.1449 66.1818H56.6108C56.6364 65.4957 56.843 64.8949 57.2308 64.3793C57.6186 63.8594 58.1257 63.4545 58.7521 63.1648C59.3828 62.875 60.0753 62.7301 60.8295 62.7301C61.6392 62.7301 62.3338 62.8942 62.9134 63.2223C63.4929 63.5462 63.9382 63.9744 64.2493 64.5071C64.5604 65.0398 64.7159 65.6151 64.7159 66.233C64.7159 66.9702 64.522 67.5987 64.1342 68.1186C63.7507 68.6385 63.2287 68.9986 62.5682 69.1989V69.3011C63.3949 69.4375 64.0405 69.7891 64.505 70.3558C64.9695 70.9183 65.2017 71.6151 65.2017 72.446C65.2017 73.1577 65.0078 73.7969 64.62 74.3636C64.2365 74.9261 63.7124 75.3693 63.0476 75.6932C62.3828 76.017 61.6264 76.179 60.7784 76.179ZM67.8416 76V66.1818H69.299V67.6648H69.4013C69.5803 67.179 69.9041 66.7848 70.3729 66.4822C70.8416 66.1797 71.37 66.0284 71.9581 66.0284C72.0689 66.0284 72.2074 66.0305 72.3736 66.0348C72.5398 66.0391 72.6655 66.0455 72.7507 66.054V67.5881C72.6996 67.5753 72.5824 67.5561 72.3991 67.5305C72.2202 67.5007 72.0305 67.4858 71.8303 67.4858C71.353 67.4858 70.9268 67.5859 70.5518 67.7862C70.1811 67.9822 69.8871 68.255 69.6697 68.6044C69.4567 68.9496 69.3501 69.3437 69.3501 69.7869V76H67.8416ZM77.9474 76.2045C77.1293 76.2045 76.407 75.9979 75.7805 75.5845C75.1541 75.1669 74.6641 74.5788 74.3104 73.8203C73.9567 73.0575 73.7798 72.1562 73.7798 71.1165C73.7798 70.0852 73.9567 69.1903 74.3104 68.4318C74.6641 67.6733 75.1563 67.0874 75.7869 66.674C76.4176 66.2607 77.1463 66.054 77.973 66.054C78.6122 66.054 79.1172 66.1605 79.4879 66.3736C79.8629 66.5824 80.1484 66.821 80.3445 67.0895C80.5447 67.3537 80.7003 67.571 80.8111 67.7415H80.9389V62.9091H82.4474V76H80.9901V74.4915H80.8111C80.7003 74.6705 80.5426 74.8963 80.3381 75.169C80.1335 75.4375 79.8416 75.6783 79.4624 75.8913C79.0831 76.1001 78.5781 76.2045 77.9474 76.2045ZM78.152 74.8494C78.7571 74.8494 79.2685 74.6918 79.6861 74.3764C80.1037 74.0568 80.4212 73.6158 80.6385 73.0533C80.8558 72.4865 80.9645 71.8324 80.9645 71.0909C80.9645 70.358 80.858 69.7166 80.6449 69.1669C80.4318 68.6129 80.1165 68.1825 79.6989 67.8757C79.2813 67.5646 78.7656 67.4091 78.152 67.4091C77.5128 67.4091 76.9801 67.5732 76.554 67.9013C76.1321 68.2251 75.8146 68.6662 75.6016 69.2244C75.3928 69.7784 75.2884 70.4006 75.2884 71.0909C75.2884 71.7898 75.3949 72.4247 75.608 72.9957C75.8253 73.5625 76.1449 74.0142 76.5668 74.3509C76.9929 74.6832 77.5213 74.8494 78.152 74.8494ZM90.2393 76V62.9091H95.4041C96.397 62.9091 97.2429 63.0987 97.9418 63.478C98.6406 63.853 99.1733 64.375 99.5398 65.044C99.9105 65.7088 100.096 66.4759 100.096 67.3452C100.096 68.2145 99.9084 68.9815 99.5334 69.6463C99.1584 70.3111 98.6151 70.8288 97.9034 71.1996C97.196 71.5703 96.3395 71.7557 95.3338 71.7557H92.0419V69.5376H94.8864C95.419 69.5376 95.858 69.446 96.2031 69.2628C96.5526 69.0753 96.8125 68.8175 96.983 68.4893C97.1577 68.157 97.245 67.7756 97.245 67.3452C97.245 66.9105 97.1577 66.5312 96.983 66.2074C96.8125 65.8793 96.5526 65.6257 96.2031 65.4467C95.8537 65.2635 95.4105 65.1719 94.8736 65.1719H93.0071V76H90.2393ZM104.566 62.9091V76H101.843V62.9091H104.566ZM109.547 76.1854C108.92 76.1854 108.362 76.0767 107.872 75.8594C107.382 75.6378 106.994 75.3118 106.708 74.8814C106.427 74.4467 106.287 73.9055 106.287 73.2578C106.287 72.7124 106.387 72.2543 106.587 71.8835C106.787 71.5128 107.06 71.2145 107.405 70.9886C107.75 70.7628 108.142 70.5923 108.581 70.4773C109.025 70.3622 109.489 70.2812 109.975 70.2344C110.546 70.1747 111.006 70.1193 111.355 70.0682C111.705 70.0128 111.958 69.9318 112.116 69.8253C112.274 69.7187 112.353 69.5611 112.353 69.3523V69.3139C112.353 68.9091 112.225 68.5959 111.969 68.3743C111.718 68.1527 111.36 68.0419 110.895 68.0419C110.405 68.0419 110.015 68.1506 109.725 68.3679C109.436 68.581 109.244 68.8494 109.15 69.1733L106.632 68.9688C106.76 68.3722 107.011 67.8565 107.386 67.4219C107.761 66.983 108.245 66.6463 108.837 66.4119C109.434 66.1733 110.124 66.054 110.908 66.054C111.453 66.054 111.975 66.1179 112.474 66.2457C112.977 66.3736 113.422 66.5717 113.81 66.8402C114.202 67.1087 114.511 67.4538 114.737 67.8757C114.963 68.2933 115.076 68.794 115.076 69.3778V76H112.493V74.6385H112.417C112.259 74.9453 112.048 75.2159 111.784 75.4503C111.52 75.6804 111.202 75.8615 110.831 75.9936C110.461 76.1214 110.032 76.1854 109.547 76.1854ZM110.326 74.3061C110.727 74.3061 111.081 74.2273 111.387 74.0696C111.694 73.9077 111.935 73.6903 112.11 73.4176C112.284 73.1449 112.372 72.8359 112.372 72.4908V71.4489C112.287 71.5043 112.169 71.5554 112.02 71.6023C111.875 71.6449 111.711 71.6854 111.528 71.7237C111.345 71.7578 111.162 71.7898 110.978 71.8196C110.795 71.8452 110.629 71.8686 110.48 71.8899C110.16 71.9368 109.881 72.0114 109.642 72.1136C109.404 72.2159 109.218 72.3544 109.086 72.5291C108.954 72.6996 108.888 72.9126 108.888 73.1683C108.888 73.5391 109.022 73.8224 109.291 74.0185C109.564 74.2102 109.909 74.3061 110.326 74.3061ZM121.624 76.1918C120.619 76.1918 119.754 75.9787 119.029 75.5526C118.309 75.1222 117.755 74.5256 117.367 73.7628C116.984 73 116.792 72.1222 116.792 71.1293C116.792 70.1236 116.986 69.2415 117.374 68.483C117.766 67.7202 118.322 67.1257 119.042 66.6996C119.762 66.2692 120.619 66.054 121.612 66.054C122.468 66.054 123.218 66.2095 123.862 66.5206C124.505 66.8317 125.014 67.2685 125.389 67.831C125.764 68.3935 125.971 69.054 126.009 69.8125H123.44C123.367 69.3224 123.175 68.9283 122.864 68.63C122.558 68.3274 122.155 68.1761 121.656 68.1761C121.234 68.1761 120.866 68.2912 120.55 68.5213C120.239 68.7472 119.996 69.0774 119.822 69.5121C119.647 69.9467 119.56 70.473 119.56 71.0909C119.56 71.7173 119.645 72.25 119.815 72.6889C119.99 73.1278 120.235 73.4624 120.55 73.6925C120.866 73.9226 121.234 74.0376 121.656 74.0376C121.967 74.0376 122.246 73.9737 122.494 73.8459C122.745 73.718 122.952 73.5327 123.114 73.2898C123.28 73.0426 123.388 72.7464 123.44 72.4013H126.009C125.967 73.1513 125.762 73.8118 125.396 74.3828C125.033 74.9496 124.533 75.3928 123.893 75.7124C123.254 76.032 122.498 76.1918 121.624 76.1918ZM132.227 76.1918C131.217 76.1918 130.348 75.9872 129.619 75.5781C128.895 75.1648 128.336 74.581 127.944 73.8267C127.552 73.0682 127.356 72.1712 127.356 71.1357C127.356 70.1257 127.552 69.2393 127.944 68.4766C128.336 67.7138 128.888 67.1193 129.6 66.6932C130.316 66.267 131.155 66.054 132.118 66.054C132.766 66.054 133.369 66.1584 133.927 66.3672C134.49 66.5717 134.98 66.8807 135.398 67.294C135.819 67.7074 136.148 68.2273 136.382 68.8537C136.616 69.4759 136.733 70.2045 136.733 71.0398V71.7876H128.443V70.1001H134.17C134.17 69.7081 134.085 69.3608 133.915 69.0582C133.744 68.7557 133.508 68.5192 133.205 68.3487C132.907 68.174 132.559 68.0866 132.163 68.0866C131.75 68.0866 131.383 68.1825 131.064 68.3743C130.748 68.5618 130.501 68.8153 130.322 69.1349C130.143 69.4503 130.052 69.8018 130.047 70.1896V71.794C130.047 72.2798 130.137 72.6996 130.316 73.0533C130.499 73.407 130.757 73.6797 131.089 73.8714C131.422 74.0632 131.816 74.1591 132.272 74.1591C132.574 74.1591 132.851 74.1165 133.103 74.0312C133.354 73.946 133.569 73.8182 133.748 73.6477C133.927 73.4773 134.064 73.2685 134.157 73.0213L136.676 73.1875C136.548 73.7926 136.286 74.321 135.89 74.7727C135.498 75.2202 134.991 75.5696 134.368 75.821C133.751 76.0682 133.037 76.1918 132.227 76.1918Z" fill="white"/>
<path d="M65.3807 143V133.182H66.8892V143H65.3807ZM66.1477 131.545C65.8537 131.545 65.6001 131.445 65.3871 131.245C65.1783 131.045 65.0739 130.804 65.0739 130.523C65.0739 130.241 65.1783 130.001 65.3871 129.8C65.6001 129.6 65.8537 129.5 66.1477 129.5C66.4418 129.5 66.6932 129.6 66.902 129.8C67.1151 130.001 67.2216 130.241 67.2216 130.523C67.2216 130.804 67.1151 131.045 66.902 131.245C66.6932 131.445 66.4418 131.545 66.1477 131.545ZM71.1607 137.094V143H69.6522V133.182H71.1096V134.716H71.2374C71.4675 134.217 71.8169 133.817 72.2857 133.514C72.7544 133.207 73.3596 133.054 74.101 133.054C74.7658 133.054 75.3475 133.19 75.8461 133.463C76.3446 133.732 76.7324 134.141 77.0094 134.69C77.2864 135.236 77.4249 135.926 77.4249 136.761V143H75.9164V136.864C75.9164 136.092 75.7161 135.491 75.3155 135.061C74.915 134.626 74.3652 134.409 73.6664 134.409C73.1848 134.409 72.7544 134.513 72.3752 134.722C72.0002 134.931 71.704 135.236 71.4867 135.636C71.2694 136.037 71.1607 136.523 71.1607 137.094ZM84.5025 132.191V129.909H95.2539V132.191H91.2461V143H88.5103V132.191H84.5025ZM100.024 143.192C99.014 143.192 98.1447 142.987 97.416 142.578C96.6916 142.165 96.1333 141.581 95.7413 140.827C95.3493 140.068 95.1532 139.171 95.1532 138.136C95.1532 137.126 95.3493 136.239 95.7413 135.477C96.1333 134.714 96.6852 134.119 97.3968 133.693C98.1127 133.267 98.9522 133.054 99.9153 133.054C100.563 133.054 101.166 133.158 101.724 133.367C102.287 133.572 102.777 133.881 103.194 134.294C103.616 134.707 103.944 135.227 104.179 135.854C104.413 136.476 104.53 137.205 104.53 138.04V138.788H96.2399V137.1H101.967C101.967 136.708 101.882 136.361 101.711 136.058C101.541 135.756 101.305 135.519 101.002 135.349C100.704 135.174 100.356 135.087 99.9601 135.087C99.5467 135.087 99.1802 135.183 98.8606 135.374C98.5453 135.562 98.2981 135.815 98.1191 136.135C97.9402 136.45 97.8485 136.802 97.8443 137.19V138.794C97.8443 139.28 97.9338 139.7 98.1127 140.053C98.296 140.407 98.5538 140.68 98.8862 140.871C99.2186 141.063 99.6127 141.159 100.069 141.159C100.371 141.159 100.648 141.116 100.9 141.031C101.151 140.946 101.366 140.818 101.545 140.648C101.724 140.477 101.861 140.268 101.954 140.021L104.473 140.188C104.345 140.793 104.083 141.321 103.687 141.773C103.295 142.22 102.787 142.57 102.165 142.821C101.547 143.068 100.834 143.192 100.024 143.192ZM110.782 143.192C109.772 143.192 108.903 142.987 108.174 142.578C107.449 142.165 106.891 141.581 106.499 140.827C106.107 140.068 105.911 139.171 105.911 138.136C105.911 137.126 106.107 136.239 106.499 135.477C106.891 134.714 107.443 134.119 108.155 133.693C108.871 133.267 109.71 133.054 110.673 133.054C111.321 133.054 111.924 133.158 112.482 133.367C113.045 133.572 113.535 133.881 113.952 134.294C114.374 134.707 114.702 135.227 114.937 135.854C115.171 136.476 115.288 137.205 115.288 138.04V138.788H106.998V137.1H112.725C112.725 136.708 112.64 136.361 112.469 136.058C112.299 135.756 112.062 135.519 111.76 135.349C111.461 135.174 111.114 135.087 110.718 135.087C110.305 135.087 109.938 135.183 109.618 135.374C109.303 135.562 109.056 135.815 108.877 136.135C108.698 136.45 108.606 136.802 108.602 137.19V138.794C108.602 139.28 108.692 139.7 108.871 140.053C109.054 140.407 109.312 140.68 109.644 140.871C109.976 141.063 110.371 141.159 110.827 141.159C111.129 141.159 111.406 141.116 111.657 141.031C111.909 140.946 112.124 140.818 112.303 140.648C112.482 140.477 112.618 140.268 112.712 140.021L115.231 140.188C115.103 140.793 114.841 141.321 114.444 141.773C114.052 142.22 113.545 142.57 112.923 142.821C112.305 143.068 111.591 143.192 110.782 143.192ZM117.065 143V133.182H119.705V134.895H119.807C119.986 134.286 120.287 133.825 120.709 133.514C121.131 133.199 121.616 133.041 122.166 133.041C122.302 133.041 122.449 133.05 122.607 133.067C122.765 133.084 122.903 133.107 123.023 133.137V135.553C122.895 135.515 122.718 135.481 122.492 135.451C122.266 135.421 122.059 135.406 121.872 135.406C121.471 135.406 121.113 135.494 120.798 135.668C120.487 135.839 120.24 136.077 120.057 136.384C119.878 136.691 119.788 137.045 119.788 137.445V143H117.065Z" fill="white"/>
<defs>
<linearGradient id="paint0_linear_431_37636" x1="10.4234" y1="128.84" x2="187.295" y2="91.0279" gradientUnits="userSpaceOnUse">
<stop stop-color="#576265"/>
<stop offset="0.172016" stop-color="#9EA1A1"/>
<stop offset="0.45741" stop-color="#848B8A"/>
<stop offset="0.553567" stop-color="#576265"/>
<stop offset="0.823421" stop-color="#576265"/>
<stop offset="0.925155" stop-color="#757A7B"/>
<stop offset="1" stop-color="#576265"/>
</linearGradient>
<linearGradient id="paint1_linear_431_37636" x1="75.0484" y1="103" x2="31.154" y2="-1.54268" gradientUnits="userSpaceOnUse">
<stop stop-color="white" stop-opacity="0"/>
<stop offset="1" stop-color="white"/>
</linearGradient>
<linearGradient id="paint2_linear_431_37636" x1="188" y1="103" x2="0" y2="103" gradientUnits="userSpaceOnUse">
<stop offset="0.0913122" stop-color="#24AD7C"/>
<stop offset="1" stop-color="#1845B9"/>
</linearGradient>
</defs>
</svg>
