<svg viewBox="0 0 938 994" fill="none" xmlns="http://www.w3.org/2000/svg">
	<g filter="url(#filter0_bd_597_10227)">
		<path d="M452 250.815C462.52 244.741 475.48 244.741 486 250.815L670.238 357.185C680.758 363.259 687.238 374.483 687.238 386.63V599.37C687.238 611.517 680.758 622.741 670.238 628.815L486 735.185C475.48 741.259 462.52 741.259 452 735.185L267.762 628.815C257.242 622.741 250.762 611.517 250.762 599.37L250.762 386.63C250.762 374.483 257.242 363.259 267.762 357.185L452 250.815Z" fill="#3E3E3E" fill-opacity="0.01" shape-rendering="crispEdges" />
		<path d="M452.25 251.248C462.615 245.264 475.385 245.264 485.75 251.248L669.988 357.618C680.353 363.602 686.738 374.662 686.738 386.63V599.37C686.738 611.339 680.353 622.398 669.988 628.382L485.75 734.752C475.385 740.736 462.615 740.736 452.25 734.752L268.012 628.382C257.647 622.398 251.262 611.339 251.262 599.37L251.262 386.63C251.262 374.662 257.647 363.602 268.012 357.618L452.25 251.248Z" stroke="url(#paint0_linear_597_10227)" shape-rendering="crispEdges" />
	</g>
	<defs>
		<filter id="filter0_bd_597_10227" x="0.761719" y="0.259827" width="936.477" height="993.48" filterUnits="userSpaceOnUse" color-interpolation-filters="sRGB">
			<feFlood flood-opacity="0" result="BackgroundImageFix" />
			<feGaussianBlur in="BackgroundImageFix" stdDeviation="35" />
			<feComposite in2="SourceAlpha" operator="in" result="effect1_backgroundBlur_597_10227" />
			<feColorMatrix in="SourceAlpha" type="matrix" values="0 0 0 0 0 0 0 0 0 0 0 0 0 0 0 0 0 0 127 0" result="hardAlpha" />
			<feOffset dy="4" />
			<feGaussianBlur stdDeviation="125" />
			<feComposite in2="hardAlpha" operator="out" />
			<feColorMatrix type="matrix" values="0 0 0 0 0.6 0 0 0 0 0.156863 0 0 0 0 0.996078 0 0 0 0.6 0" />
			<feBlend mode="normal" in2="effect1_backgroundBlur_597_10227" result="effect2_dropShadow_597_10227" />
			<feBlend mode="normal" in="SourceGraphic" in2="effect2_dropShadow_597_10227" result="shape" />
		</filter>
		<linearGradient id="paint0_linear_597_10227" x1="-604.48" y1="526.414" x2="497.984" y2="1179.46" gradientUnits="userSpaceOnUse">
			<stop stop-color="#9A74DB" />
			<stop offset="1" stop-color="#9A74DB" stop-opacity="0" />
		</linearGradient>
	</defs>
</svg>
