<svg width="340" height="373" viewBox="0 0 340 373" fill="none" xmlns="http://www.w3.org/2000/svg">
<path d="M201.532 364.049C182.019 375.317 157.981 375.317 138.468 364.049L32.0317 302.587C12.521 291.319 0.5 270.497 0.5 247.962V125.038C0.5 102.503 12.521 81.6813 32.0317 70.4131L138.468 8.95111L138.218 8.51811L138.468 8.9511C157.981 -2.31703 182.019 -2.31703 201.532 8.9511L201.782 8.51811L201.532 8.95111L307.968 70.4131C327.479 81.6813 339.5 102.503 339.5 125.038V247.962C339.5 270.497 327.479 291.319 307.968 302.587L201.532 364.049Z" fill="black" stroke="url(#paint0_linear_431_37787)"/>
<path d="M81 190.596C81.7991 186.542 82.6397 182.492 83.3879 178.428C86.4318 161.905 89.4386 145.378 92.4778 128.86C93.0506 125.738 94.8935 124.556 98.0944 125.147C105.166 126.454 112.233 127.788 119.318 129.031C121.526 129.419 123.059 130.356 123.581 132.67C123.66 133.025 124.209 133.459 124.602 133.533C134.671 135.399 144.749 137.237 154.832 139.015C155.502 139.135 156.292 138.858 156.966 138.604C160.144 137.421 163.211 135.828 166.476 135.048C172.924 133.501 179.174 135.006 185.229 137.287C196.513 141.541 206.379 148.186 215.676 155.708C217.612 157.274 219.533 158.507 222.06 158.733C223.487 158.858 224.891 159.204 226.503 159.481C227.21 156.221 229.616 155.911 232.438 155.995C239.403 156.207 246.378 156.262 253.348 156.387C256.465 156.442 258.05 158.008 257.999 161.102C257.648 181.836 257.283 202.571 256.909 223.305C256.849 226.524 255.255 228.043 252.045 227.992C244.613 227.877 237.182 227.761 229.755 227.581C228.877 227.558 227.699 227.429 227.191 226.87C226.046 225.605 225.002 226.057 223.833 226.547C223.782 226.57 223.722 226.579 223.667 226.593C220.027 227.563 217.242 229.165 215.556 233.049C213.783 237.145 210.166 239.56 205.321 239.403C204.822 239.385 204.208 239.666 203.811 240.003C200.037 243.199 195.834 244.968 190.776 244.261C190.263 244.187 189.557 244.533 189.136 244.908C184.818 248.69 179.982 250.329 174.287 248.68C173.857 248.556 173.363 248.505 172.929 248.583C165.202 249.992 158.366 247.452 151.862 243.716C142.509 238.345 134.689 231.086 127.664 223.037C121.646 216.147 116.066 208.879 110.38 201.707C109.392 200.46 108.436 199.814 106.801 199.555C99.868 198.456 92.9859 197.038 86.0576 195.916C83.7898 195.551 82.0346 194.776 81 192.67C81 191.977 81 191.289 81 190.596ZM196.019 235.575C195.815 235.284 195.769 235.173 195.686 235.099C185.899 226.801 179.599 215.953 173.645 204.866C172.319 202.395 173.746 199.805 176.495 199.172C178.462 198.719 179.834 199.44 181.007 201.462C183.169 205.198 185.238 208.99 187.552 212.628C191.109 218.225 194.905 223.674 199.903 228.108C201.289 229.336 202.993 230.296 204.697 231.045C206.434 231.807 207.686 230.666 208.531 229.239C209.335 227.881 210.42 226.727 209.025 224.82C197.229 208.694 185.557 192.476 173.843 176.29C173.52 175.842 173.169 175.417 172.91 175.08C169.811 176.424 166.952 177.786 164.005 178.922C156.971 181.628 149.793 183.573 142.117 182.663C134.616 181.772 129.512 177.098 128.86 170.144C128.463 165.918 129.886 162.09 132.043 158.516C134.916 153.75 138.856 149.991 143.267 146.68C143.692 146.362 144.089 146.001 144.722 145.47C137.004 144.034 129.636 142.658 122.26 141.287C122.122 141.799 122.029 142.072 121.978 142.349C119.041 158.303 116.089 174.254 113.203 190.218C113.078 190.91 113.29 191.848 113.697 192.43C121.101 203.088 129.041 213.316 138.2 222.543C144.223 228.611 150.624 234.217 158.333 238.119C158.989 238.452 159.677 238.733 160.573 239.14C158.278 235.792 156.024 232.859 154.163 229.701C151.83 225.743 149.747 221.633 147.705 217.51C146.597 215.27 147.479 213.146 149.608 212.153C151.761 211.151 153.788 211.899 154.934 214.134C155.197 214.646 155.414 215.182 155.659 215.699C159.211 223.102 163.248 230.213 169.132 236.037C170.934 237.819 173.183 239.246 175.428 240.465C177.34 241.509 179.515 241.439 181.94 240.114C181.488 239.874 181.197 239.777 180.98 239.592C172.195 232.291 166.758 222.649 162.144 212.462C161.077 210.102 162.209 207.923 164.629 207.096C166.772 206.367 168.481 207.189 169.589 209.585C172.375 215.612 175.594 221.384 179.631 226.667C182.194 230.019 184.947 233.206 188.785 235.196C191.072 236.383 193.432 236.748 196.023 235.565L196.019 235.575ZM227.196 190.975L226.35 192.55C226.35 184.778 226.327 177.001 226.374 169.229C226.378 168.112 226.152 167.535 224.932 167.415C223.505 167.276 222.106 166.847 220.679 166.708C216.956 166.343 213.935 164.819 211.007 162.381C202.577 155.353 193.413 149.419 183.197 145.226C175.843 142.206 168.744 141.55 161.303 145.53C155.761 148.495 150.066 151.1 145.354 155.348C141.867 158.493 138.685 161.91 137.248 166.533C136.001 170.559 137.567 173.561 141.669 174.295C144.338 174.776 147.193 174.817 149.885 174.462C157.636 173.432 164.647 170.195 171.497 166.602C174.375 165.092 175.913 165.47 177.848 168.103C178.19 168.564 178.522 169.035 178.859 169.502C190.919 186.145 202.993 202.778 215.002 219.458C216.018 220.871 216.794 220.714 218.646 219.749C220.166 218.955 221.801 218.401 223.473 218.031C225.145 217.662 225.598 216.978 225.584 215.533C225.524 208.135 226.406 199.163 226.411 191.76C226.411 191.331 226.757 190.984 227.186 190.984L227.196 190.975ZM104.75 191.109C108.117 172.808 111.447 154.729 114.805 136.493C109.706 135.551 104.778 134.641 99.7664 133.713C96.3854 152.083 93.0644 170.148 89.7204 188.324C94.8473 189.276 99.734 190.181 104.755 191.109H104.75ZM234.581 164.27C234.235 182.686 233.893 201.116 233.542 219.754H248.793C249.135 201.342 249.472 182.912 249.819 164.27H234.581Z" fill="url(#paint1_linear_431_37787)"/>
<defs>
<linearGradient id="paint0_linear_431_37787" x1="340" y1="186.5" x2="0" y2="186.5" gradientUnits="userSpaceOnUse">
<stop offset="0.0913122" stop-color="#24AD7C"/>
<stop offset="1" stop-color="#1845B9"/>
</linearGradient>
<linearGradient id="paint1_linear_431_37787" x1="258" y1="187.16" x2="81" y2="187.16" gradientUnits="userSpaceOnUse">
<stop offset="0.0913122" stop-color="#24AD7C"/>
<stop offset="1" stop-color="#1845B9"/>
</linearGradient>
</defs>
</svg>
