<svg width="340" height="373" viewBox="0 0 340 373" fill="none" xmlns="http://www.w3.org/2000/svg">
<path d="M201.532 364.049C182.019 375.317 157.981 375.317 138.468 364.049L32.0317 302.587C12.521 291.319 0.5 270.497 0.5 247.962V125.038C0.5 102.503 12.521 81.6813 32.0317 70.4131L138.468 8.95111L138.218 8.51811L138.468 8.9511C157.981 -2.31703 182.019 -2.31703 201.532 8.9511L201.782 8.51811L201.532 8.95111L307.968 70.4131C327.479 81.6813 339.5 102.503 339.5 125.038V247.962C339.5 270.497 327.479 291.319 307.968 302.587L201.532 364.049Z" fill="black" stroke="url(#paint0_linear_431_37778)"/>
<g clip-path="url(#clip0_431_37778)">
<path d="M171.218 234.304C150.3 245.653 125.334 237.133 112.843 213.741C110.02 214.877 107.147 215.968 104.348 217.21C103.872 217.419 103.585 218.244 103.381 218.841C101.636 223.877 99.9301 228.923 98.2096 233.969C98.0152 234.532 97.8014 235.09 97.5389 235.799C95.4685 235.1 93.4808 234.43 91.3083 233.698C91.6971 232.494 92.0519 231.359 92.4358 230.238C94.1758 225.139 95.7844 219.986 97.7625 214.978C98.3409 213.523 99.7843 212.091 101.199 211.344C104.013 209.855 107.084 208.85 109.645 207.802C108.207 201.058 106.807 194.517 105.339 187.637C103.118 187.637 100.416 187.603 97.7188 187.647C95.799 187.676 94.2098 187.045 92.7955 185.74C88.9268 182.164 85.0047 178.646 81.0049 175.012C82.4921 173.377 83.9112 171.814 85.481 170.087C87.8528 172.232 90.171 174.328 92.4844 176.424C96.0485 179.652 100.207 181.171 104.96 180.98C105.198 180.97 105.432 180.917 105.884 180.849C106.443 171.955 108.571 163.435 112.693 155.38C109.825 154.221 107.089 153.076 104.329 152.013C102.384 151.266 101.135 149.951 100.474 147.986C98.4138 141.853 96.3239 135.734 94.1952 129.47C96.2753 128.757 98.2582 128.078 100.45 127.326C100.912 128.621 101.344 129.786 101.748 130.965C103.269 135.438 104.732 139.931 106.345 144.366C106.627 145.147 107.415 145.967 108.173 146.317C110.754 147.491 113.422 148.461 115.701 149.369C119.118 145.841 122.165 142.294 125.65 139.237C127.963 137.204 129.727 135.128 130.972 132.231C135.078 122.677 144.055 117.126 153.96 118.111C163.597 119.067 169.799 124.851 173.415 133.522C174.251 135.521 175.456 136.87 176.997 138.286C180.326 141.358 183.466 144.652 186.445 148.063C187.495 149.267 188.185 149.504 189.56 148.854C191.528 147.928 193.638 147.297 195.591 146.341C196.35 145.972 197.142 145.172 197.424 144.39C199.421 138.81 201.288 133.182 203.28 127.33C205.404 128.034 207.431 128.708 209.598 129.427C207.547 135.467 205.477 141.334 203.577 147.253C202.746 149.834 201.229 151.474 198.668 152.362C196.165 153.231 193.735 154.332 191.276 155.327C192.675 158.811 194.027 162.168 195.431 165.672C210.016 160.97 224.013 162.314 237.019 170.844C246.331 176.953 252.62 185.463 255.92 196.099C262.559 217.506 252.863 240.67 233.005 251.233C213.03 261.859 185.453 256.852 171.213 234.295L171.218 234.304ZM171.097 209.772C171.033 231.786 188.996 249.855 211.027 249.928C233.204 250.001 251.264 232.101 251.342 209.966C251.419 187.821 233.466 169.776 211.319 169.733C189.147 169.689 171.169 187.588 171.101 209.772H171.097ZM148.463 162.586C147.846 162.557 147.316 162.508 146.781 162.508C137.324 162.508 127.861 162.532 118.403 162.474C117.096 162.464 116.503 162.867 116.056 164.095C111.949 175.497 111.288 187.098 114.326 198.802C117.431 210.772 123.609 220.738 134.267 227.502C138.563 230.229 143.253 231.893 148.463 232.431V162.586ZM168.365 228.7C163.612 216.948 163.111 205.662 167.102 194.318C171.111 182.926 178.649 174.425 189.166 168.495C188.656 166.982 188.112 165.628 187.747 164.226C187.402 162.901 186.732 162.455 185.322 162.464C175.923 162.532 166.523 162.498 157.119 162.503C156.536 162.503 155.952 162.557 155.398 162.581V232.936C159.85 231.48 164.001 230.122 168.36 228.695L168.365 228.7ZM120.031 155.715H183.723C176.375 144.434 167.019 136.622 153.382 136.045C138.408 135.409 128.114 143.42 120.031 155.715ZM139.394 131.299C147.768 128.607 156.011 128.65 164.492 131.309C157.814 122.173 145.221 122.794 139.394 131.299Z" fill="url(#paint1_linear_431_37778)"/>
<path d="M200.588 223.542C204.972 224.187 209.156 224.799 213.341 225.42C217.71 226.065 220.947 223.503 220.83 219.486C220.748 216.676 218.74 214.415 215.776 213.911C212.675 213.377 209.56 212.887 206.444 212.441C199.494 211.446 194.916 206.477 194.931 199.903C194.95 193.333 199.592 188.34 206.512 187.443C206.872 187.394 207.232 187.35 207.839 187.268V182.241H214.527V188.258C217.248 188.68 219.853 189.083 222.74 189.529C222.444 191.683 222.152 193.794 221.831 196.094C217.734 195.502 213.802 194.886 209.856 194.386C208.495 194.216 207.037 194.08 205.725 194.376C203.207 194.939 201.468 197.525 201.55 200.102C201.633 202.717 203.387 205.027 206.06 205.56C209.618 206.274 213.229 206.725 216.811 207.322C222.959 208.345 227.289 213.227 227.489 219.321C227.683 225.255 223.746 230.466 217.948 231.883C216.898 232.14 215.81 232.218 214.59 232.397V237.405H207.931V231.398C205.122 230.961 202.512 230.558 199.679 230.117C199.971 228.001 200.257 225.939 200.588 223.542Z" fill="url(#paint2_linear_431_37778)"/>
</g>
<defs>
<linearGradient id="paint0_linear_431_37778" x1="340" y1="186.5" x2="0" y2="186.5" gradientUnits="userSpaceOnUse">
<stop offset="0.0913122" stop-color="#24AD7C"/>
<stop offset="1" stop-color="#1845B9"/>
</linearGradient>
<linearGradient id="paint1_linear_431_37778" x1="257.999" y1="187.288" x2="81.0049" y2="187.288" gradientUnits="userSpaceOnUse">
<stop offset="0.0913122" stop-color="#24AD7C"/>
<stop offset="1" stop-color="#1845B9"/>
</linearGradient>
<linearGradient id="paint2_linear_431_37778" x1="227.495" y1="209.823" x2="194.931" y2="209.823" gradientUnits="userSpaceOnUse">
<stop offset="0.0913122" stop-color="#24AD7C"/>
<stop offset="1" stop-color="#1845B9"/>
</linearGradient>
<clipPath id="clip0_431_37778">
<rect width="177" height="138.585" fill="white" transform="translate(81 118)"/>
</clipPath>
</defs>
</svg>
