<svg width="835" height="546" viewBox="0 0 835 546" fill="none" xmlns="http://www.w3.org/2000/svg">
<path d="M591.76 484.625C725.309 484.625 833.572 376.362 833.572 242.812C833.572 109.263 725.309 1 591.76 1C458.21 1 349.947 109.263 349.947 242.812C349.947 376.362 458.21 484.625 591.76 484.625Z" stroke="#11111A" stroke-linecap="round"/>
<path d="M591.76 484.625C725.309 484.625 833.572 376.362 833.572 242.812C833.572 109.263 725.309 1 591.76 1C458.21 1 349.947 109.263 349.947 242.812C349.947 376.362 458.21 484.625 591.76 484.625Z" stroke="url(#paint0_linear_1048_17403)" stroke-linecap="round"/>
<path d="M280.405 242.492H321.528M280.297 231.169C298.785 231.169 291.021 242.431 311.455 242.431H350.052M280.405 222.651C299.421 222.651 295.299 242.166 323.167 242.166H350.052M280.297 211.978C306.42 211.978 299.658 242.105 323.495 242.105M280.297 253.815C298.785 253.815 291.021 242.553 311.455 242.553H350.052M280.405 262.333C299.421 262.333 295.299 242.817 323.167 242.817H350.052M280.297 273.005C306.42 273.005 299.658 242.878 323.495 242.878" stroke="#11111A" stroke-linecap="round"/>
<path d="M280.405 242.492H321.528M280.297 231.169C298.785 231.169 291.021 242.431 311.455 242.431H350.052M280.405 222.651C299.421 222.651 295.299 242.166 323.167 242.166H350.052M280.297 211.978C306.42 211.978 299.658 242.105 323.495 242.105M280.297 253.815C298.785 253.815 291.021 242.553 311.455 242.553H350.052M280.405 262.333C299.421 262.333 295.299 242.817 323.167 242.817H350.052M280.297 273.005C306.42 273.005 299.658 242.878 323.495 242.878" stroke="url(#paint1_linear_1048_17403)" stroke-linecap="round"/>
<path d="M98.7533 448.124C89.2584 453.607 77.5612 453.607 68.0663 448.124L15.8435 417.974C6.34949 412.492 0.5 402.361 0.5 391.398V331.097C0.5 320.134 6.34949 310.003 15.8436 304.521L68.0663 274.371L67.8163 273.938L68.0663 274.371C77.5612 268.888 89.2584 268.888 98.7533 274.371L150.976 304.521C160.47 310.003 166.32 320.134 166.32 331.097V391.398C166.32 402.361 160.47 412.492 150.976 417.974L98.7533 448.124Z" fill="#11111A" fill-opacity="0.55" stroke="url(#paint2_linear_1048_17403)"/>
<path d="M75.5534 407.894C79.885 410.395 85.2218 410.395 89.5534 407.894L120.038 390.293C124.37 387.792 127.038 383.171 127.038 378.169L127.038 342.968C127.038 337.966 124.37 333.344 120.038 330.843L89.5534 313.243C85.2218 310.742 79.885 310.742 75.5534 313.243L45.0684 330.843C40.7368 333.344 38.0684 337.966 38.0684 342.968L38.0684 378.169C38.0684 383.171 40.7368 387.792 45.0684 390.293L75.5534 407.894Z" fill="url(#paint3_linear_1048_17403)"/>
<path d="M73.0698 356.092V354.52H82.4378V356.092H78.661V366.625H76.8406V356.092H73.0698Z" fill="white"/>
<path d="M84.9157 357.546L86.9193 361.081L88.9406 357.546H90.8733L88.0423 362.085L90.897 366.625H88.9643L86.9193 363.232L84.8802 366.625H82.9416L85.7668 362.085L82.9771 357.546H84.9157Z" fill="white"/>
<path d="M120.412 183.019L120.662 183.452L120.412 183.019C113.346 187.098 104.64 187.098 97.5741 183.019L97.3241 183.452L97.5741 183.019L58.495 160.457C51.4294 156.377 47.0762 148.837 47.0762 140.678V95.5542C47.0762 87.3951 51.4294 79.856 58.4951 75.776L97.5741 53.214L97.3241 52.781L97.5741 53.214C104.64 49.1341 113.346 49.1341 120.412 53.214L120.662 52.781L120.412 53.214L159.491 75.7761C166.556 79.856 170.91 87.3951 170.91 95.5542V140.678C170.91 148.837 166.556 156.377 159.491 160.457L120.412 183.019Z" fill="#11111A" fill-opacity="0.55" stroke="url(#paint4_linear_1048_17403)"/>
<path d="M101.695 151.976C106.027 154.477 111.364 154.477 115.695 151.976L134.662 141.026C138.994 138.525 141.662 133.903 141.662 128.902L141.662 107.001C141.662 101.999 138.994 97.3775 134.662 94.8766L115.695 83.9262C111.364 81.4254 106.027 81.4254 101.695 83.9262L82.7289 94.8766C78.3972 97.3775 75.7289 101.999 75.7289 107.001L75.7289 128.902C75.7289 133.903 78.3972 138.525 82.7289 141.026L101.695 151.976Z" fill="url(#paint5_linear_1048_17403)"/>
<path d="M98.8672 113.332V111.76H108.235V113.332H104.458V123.864H102.638V113.332H98.8672Z" fill="white"/>
<path d="M110.713 114.786L112.717 118.32L114.738 114.786H116.671L113.84 119.325L116.694 123.864H114.762L112.717 120.472L110.678 123.864H108.739L111.564 119.325L108.774 114.786H110.713Z" fill="white"/>
<path d="M297.445 153.666L297.695 154.099L297.444 153.666C290.378 157.746 281.673 157.746 274.607 153.666L274.357 154.099L274.607 153.666L235.528 131.104C228.462 127.024 224.109 119.485 224.109 111.326V66.2017C224.109 58.0426 228.462 50.5035 235.528 46.4236L274.607 23.8615L274.357 23.4285L274.607 23.8615C281.673 19.7816 290.378 19.7816 297.444 23.8615L297.695 23.4285L297.445 23.8615L336.524 46.4236C343.589 50.5035 347.942 58.0426 347.942 66.2017V111.326C347.942 119.485 343.589 127.024 336.524 131.104L297.445 153.666Z" fill="#11111A" fill-opacity="0.55" stroke="url(#paint6_linear_1048_17403)"/>
<path d="M292.728 122.624C288.397 125.125 283.06 125.125 278.728 122.624L259.762 111.674C255.43 109.173 252.762 104.551 252.762 99.5492L252.762 77.6485C252.762 72.6468 255.43 68.025 259.762 65.5241L278.728 54.5738C283.06 52.0729 288.397 52.0729 292.728 54.5738L311.695 65.5241C316.027 68.025 318.695 72.6468 318.695 77.6485L318.695 99.5492C318.695 104.551 316.027 109.173 311.695 111.674L292.728 122.624Z" fill="url(#paint7_linear_1048_17403)"/>
<path d="M277.008 84.0977V82.5256H286.376V84.0977H282.6V94.63H280.779V84.0977H277.008Z" fill="white"/>
<path d="M288.854 85.5517L290.858 89.0861L292.879 85.5517H294.812L291.981 90.0908L294.835 94.63H292.903L290.858 91.2375L288.819 94.63H286.88L289.705 90.0908L286.916 85.5517H288.854Z" fill="white"/>
<path d="M202.015 339.305C191.371 345.451 178.258 345.451 167.614 339.305L109.171 305.563C98.5282 299.418 91.9707 288.061 91.9707 275.771V208.288C91.9707 195.997 98.5282 184.641 109.171 178.495L167.614 144.754C178.258 138.608 191.371 138.608 202.015 144.754L260.458 178.495C271.101 184.641 277.659 195.997 277.659 208.288V275.771C277.659 288.061 271.101 299.418 260.458 305.563L202.015 339.305Z" fill="#11111A" fill-opacity="0.85" stroke="url(#paint8_linear_1048_17403)"/>
<path d="M196.829 292.183C189.403 296.47 180.254 296.47 172.829 292.183L147.18 277.375C139.754 273.088 135.18 265.165 135.18 256.591L135.18 226.974C135.18 218.4 139.754 210.477 147.18 206.19L172.829 191.381C180.254 187.094 189.403 187.094 196.829 191.381L222.477 206.19C229.903 210.477 234.477 218.4 234.477 226.974L234.477 256.591C234.477 265.165 229.903 273.088 222.477 277.375L196.829 292.183Z" fill="url(#paint9_linear_1048_17403)"/>
<path d="M174.987 228.597C174.924 228.038 174.664 227.604 174.207 227.297C173.75 226.986 173.175 226.83 172.481 226.83C171.985 226.83 171.555 226.909 171.193 227.067C170.83 227.22 170.549 227.433 170.348 227.705C170.151 227.973 170.052 228.278 170.052 228.621C170.052 228.909 170.119 229.157 170.253 229.366C170.391 229.575 170.57 229.75 170.791 229.892C171.016 230.03 171.256 230.146 171.512 230.24C171.768 230.331 172.015 230.406 172.251 230.465L173.433 230.772C173.819 230.867 174.215 230.995 174.621 231.157C175.027 231.318 175.403 231.531 175.75 231.795C176.097 232.059 176.376 232.386 176.589 232.776C176.806 233.166 176.914 233.633 176.914 234.177C176.914 234.862 176.737 235.471 176.382 236.003C176.032 236.535 175.521 236.955 174.851 237.262C174.186 237.569 173.38 237.723 172.434 237.723C171.528 237.723 170.744 237.579 170.082 237.292C169.42 237.004 168.902 236.596 168.527 236.068C168.153 235.536 167.946 234.906 167.907 234.177H169.739C169.774 234.614 169.916 234.979 170.165 235.27C170.417 235.558 170.738 235.773 171.128 235.914C171.522 236.052 171.953 236.121 172.422 236.121C172.938 236.121 173.398 236.041 173.799 235.879C174.205 235.713 174.524 235.485 174.757 235.193C174.989 234.898 175.106 234.553 175.106 234.159C175.106 233.8 175.003 233.507 174.798 233.278C174.597 233.05 174.323 232.861 173.977 232.711C173.634 232.561 173.246 232.429 172.812 232.315L171.382 231.925C170.413 231.661 169.644 231.273 169.077 230.761C168.514 230.248 168.232 229.571 168.232 228.727C168.232 228.03 168.421 227.421 168.799 226.901C169.178 226.381 169.69 225.977 170.336 225.689C170.982 225.398 171.711 225.252 172.523 225.252C173.342 225.252 174.065 225.396 174.692 225.684C175.322 225.971 175.819 226.367 176.181 226.872C176.544 227.372 176.733 227.947 176.749 228.597H174.987Z" fill="white"/>
<path d="M178.955 237.522V228.444H180.722V237.522H178.955ZM179.847 227.043C179.54 227.043 179.276 226.941 179.055 226.736C178.839 226.527 178.73 226.279 178.73 225.991C178.73 225.699 178.839 225.451 179.055 225.246C179.276 225.037 179.54 224.933 179.847 224.933C180.155 224.933 180.417 225.037 180.633 225.246C180.854 225.451 180.964 225.699 180.964 225.991C180.964 226.279 180.854 226.527 180.633 226.736C180.417 226.941 180.155 227.043 179.847 227.043Z" fill="white"/>
<path d="M186.498 237.699C185.765 237.699 185.111 237.512 184.536 237.138C183.964 236.76 183.515 236.222 183.188 235.524C182.865 234.823 182.703 233.982 182.703 233.001C182.703 232.019 182.867 231.18 183.194 230.483C183.525 229.785 183.978 229.251 184.553 228.881C185.129 228.511 185.781 228.326 186.51 228.326C187.073 228.326 187.526 228.42 187.869 228.609C188.216 228.794 188.484 229.011 188.673 229.259C188.866 229.508 189.016 229.726 189.122 229.915H189.228V225.418H190.996V237.522H189.27V236.109H189.122C189.016 236.303 188.862 236.523 188.661 236.771C188.464 237.02 188.192 237.236 187.845 237.422C187.499 237.607 187.049 237.699 186.498 237.699ZM186.888 236.192C187.396 236.192 187.826 236.058 188.176 235.79C188.531 235.518 188.799 235.142 188.98 234.661C189.165 234.181 189.258 233.621 189.258 232.983C189.258 232.352 189.167 231.801 188.986 231.328C188.805 230.855 188.539 230.487 188.188 230.223C187.838 229.959 187.404 229.827 186.888 229.827C186.356 229.827 185.913 229.965 185.558 230.24C185.203 230.516 184.936 230.893 184.754 231.369C184.577 231.846 184.488 232.384 184.488 232.983C184.488 233.59 184.579 234.135 184.76 234.62C184.941 235.105 185.209 235.489 185.564 235.773C185.923 236.052 186.364 236.192 186.888 236.192Z" fill="white"/>
<path d="M197.431 237.705C196.536 237.705 195.766 237.514 195.12 237.132C194.477 236.746 193.981 236.204 193.63 235.507C193.283 234.805 193.11 233.984 193.11 233.042C193.11 232.112 193.283 231.293 193.63 230.583C193.981 229.874 194.469 229.32 195.096 228.922C195.726 228.524 196.463 228.326 197.306 228.326C197.819 228.326 198.315 228.41 198.796 228.58C199.277 228.749 199.708 229.015 200.09 229.378C200.472 229.74 200.774 230.211 200.995 230.79C201.215 231.365 201.325 232.065 201.325 232.888V233.515H194.109V232.191H199.594C199.594 231.726 199.499 231.314 199.31 230.956C199.121 230.593 198.855 230.307 198.512 230.099C198.173 229.89 197.775 229.785 197.318 229.785C196.822 229.785 196.388 229.908 196.018 230.152C195.652 230.392 195.368 230.707 195.167 231.097C194.97 231.484 194.871 231.903 194.871 232.356V233.391C194.871 233.997 194.978 234.514 195.191 234.939C195.407 235.365 195.709 235.69 196.095 235.914C196.481 236.135 196.932 236.245 197.448 236.245C197.783 236.245 198.089 236.198 198.364 236.104C198.64 236.005 198.879 235.859 199.08 235.666C199.281 235.473 199.434 235.235 199.541 234.951L201.213 235.252C201.079 235.745 200.839 236.176 200.492 236.547C200.149 236.913 199.718 237.199 199.198 237.404C198.682 237.605 198.093 237.705 197.431 237.705Z" fill="white"/>
<path d="M173.051 249.465H171.207C171.136 249.071 171.004 248.724 170.811 248.425C170.618 248.125 170.382 247.871 170.102 247.662C169.822 247.453 169.509 247.296 169.162 247.189C168.819 247.083 168.455 247.03 168.069 247.03C167.371 247.03 166.747 247.205 166.195 247.556C165.647 247.907 165.214 248.421 164.895 249.098C164.58 249.776 164.422 250.604 164.422 251.581C164.422 252.566 164.58 253.397 164.895 254.075C165.214 254.753 165.649 255.265 166.201 255.612C166.753 255.958 167.373 256.132 168.063 256.132C168.445 256.132 168.807 256.081 169.15 255.978C169.497 255.872 169.81 255.716 170.09 255.511C170.37 255.306 170.606 255.056 170.799 254.761C170.996 254.461 171.132 254.118 171.207 253.732L173.051 253.738C172.953 254.333 172.761 254.881 172.478 255.381C172.198 255.878 171.837 256.307 171.396 256.67C170.959 257.028 170.458 257.306 169.895 257.503C169.331 257.7 168.717 257.799 168.051 257.799C167.003 257.799 166.069 257.55 165.249 257.054C164.43 256.553 163.784 255.838 163.311 254.908C162.842 253.978 162.607 252.869 162.607 251.581C162.607 250.288 162.844 249.179 163.317 248.253C163.789 247.323 164.436 246.61 165.255 246.114C166.075 245.613 167.007 245.363 168.051 245.363C168.693 245.363 169.292 245.456 169.848 245.641C170.407 245.822 170.91 246.09 171.355 246.445C171.8 246.795 172.168 247.225 172.46 247.733C172.752 248.238 172.949 248.815 173.051 249.465Z" fill="white"/>
<path d="M176.862 252.243V257.633H175.095V245.529H176.838V250.032H176.95C177.163 249.544 177.488 249.156 177.926 248.868C178.363 248.58 178.934 248.437 179.64 248.437C180.262 248.437 180.806 248.565 181.271 248.821C181.74 249.077 182.102 249.459 182.358 249.967C182.618 250.472 182.748 251.102 182.748 251.859V257.633H180.981V252.071C180.981 251.405 180.81 250.889 180.467 250.523C180.124 250.152 179.648 249.967 179.037 249.967C178.619 249.967 178.245 250.056 177.914 250.233C177.587 250.411 177.329 250.671 177.14 251.013C176.954 251.352 176.862 251.762 176.862 252.243Z" fill="white"/>
<path d="M187.749 257.834C187.173 257.834 186.653 257.728 186.188 257.515C185.723 257.298 185.355 256.985 185.083 256.575C184.815 256.165 184.681 255.663 184.681 255.068C184.681 254.556 184.78 254.134 184.977 253.803C185.174 253.472 185.44 253.21 185.775 253.017C186.11 252.824 186.484 252.678 186.898 252.58C187.311 252.481 187.733 252.406 188.162 252.355C188.706 252.292 189.147 252.241 189.486 252.201C189.825 252.158 190.071 252.089 190.225 251.995C190.379 251.9 190.456 251.746 190.456 251.534V251.492C190.456 250.976 190.31 250.576 190.018 250.292C189.731 250.009 189.301 249.867 188.73 249.867C188.135 249.867 187.666 249.999 187.323 250.263C186.984 250.523 186.75 250.812 186.62 251.132L184.959 250.753C185.156 250.202 185.444 249.756 185.822 249.418C186.204 249.075 186.643 248.827 187.14 248.673C187.636 248.515 188.158 248.437 188.706 248.437C189.069 248.437 189.453 248.48 189.859 248.567C190.268 248.649 190.651 248.803 191.005 249.028C191.364 249.252 191.657 249.573 191.886 249.991C192.114 250.405 192.229 250.943 192.229 251.604V257.633H190.503V256.392H190.432C190.318 256.62 190.146 256.845 189.918 257.066C189.689 257.286 189.396 257.47 189.037 257.615C188.679 257.761 188.249 257.834 187.749 257.834ZM188.133 256.416C188.621 256.416 189.039 256.319 189.386 256.126C189.736 255.933 190.002 255.681 190.184 255.369C190.369 255.054 190.462 254.717 190.462 254.359V253.188C190.398 253.251 190.276 253.311 190.095 253.366C189.918 253.417 189.715 253.462 189.486 253.502C189.258 253.537 189.035 253.571 188.818 253.602C188.602 253.63 188.42 253.653 188.275 253.673C187.932 253.716 187.619 253.789 187.335 253.892C187.055 253.994 186.831 254.142 186.661 254.335C186.496 254.524 186.413 254.776 186.413 255.092C186.413 255.529 186.574 255.86 186.898 256.085C187.221 256.305 187.632 256.416 188.133 256.416Z" fill="white"/>
<path d="M194.583 257.633V248.555H196.35V257.633H194.583ZM195.475 247.154C195.168 247.154 194.904 247.052 194.683 246.847C194.466 246.638 194.358 246.39 194.358 246.102C194.358 245.81 194.466 245.562 194.683 245.357C194.904 245.148 195.168 245.044 195.475 245.044C195.782 245.044 196.044 245.148 196.261 245.357C196.482 245.562 196.592 245.81 196.592 246.102C196.592 246.39 196.482 246.638 196.261 246.847C196.044 247.052 195.782 247.154 195.475 247.154Z" fill="white"/>
<path d="M200.494 252.243V257.633H198.727V248.555H200.423V250.032H200.536C200.745 249.552 201.072 249.165 201.517 248.874C201.966 248.582 202.531 248.437 203.213 248.437C203.832 248.437 204.374 248.567 204.838 248.827C205.303 249.083 205.664 249.465 205.92 249.973C206.176 250.481 206.304 251.11 206.304 251.859V257.633H204.537V252.071C204.537 251.413 204.366 250.899 204.023 250.529C203.68 250.154 203.209 249.967 202.61 249.967C202.2 249.967 201.836 250.056 201.517 250.233C201.202 250.411 200.951 250.671 200.766 251.013C200.585 251.352 200.494 251.762 200.494 252.243Z" fill="white"/>
<path d="M311.559 540.768C302.064 546.25 290.367 546.25 280.872 540.768L228.649 510.618C219.155 505.136 213.306 495.005 213.306 484.042V423.741C213.306 412.777 219.155 402.647 228.649 397.165L280.872 367.014L280.622 366.581L280.872 367.014C290.367 361.532 302.064 361.532 311.559 367.014L363.782 397.165C373.276 402.647 379.125 412.777 379.125 423.741V484.042C379.125 495.005 373.276 505.136 363.782 510.618L311.559 540.768Z" fill="#11111A" fill-opacity="0.55" stroke="url(#paint10_linear_1048_17403)"/>
<path d="M302.359 500.538C298.028 503.038 292.691 503.038 288.359 500.538L257.874 482.937C253.543 480.436 250.874 475.814 250.874 470.813L250.874 435.612C250.874 430.61 253.543 425.988 257.874 423.487L288.359 405.887C292.691 403.386 298.028 403.386 302.359 405.887L332.844 423.487C337.176 425.988 339.844 430.61 339.844 435.612L339.844 470.813C339.844 475.814 337.176 480.436 332.844 482.937L302.359 500.538Z" fill="url(#paint11_linear_1048_17403)"/>
<path d="M285.5 447.865V446.293H294.868V447.865H291.091V458.398H289.271V447.865H285.5Z" fill="white"/>
<path d="M297.346 449.319L299.349 452.854L301.371 449.319H303.304L300.472 453.858L303.327 458.398H301.394L299.349 455.005L297.31 458.398H295.372L298.197 453.858L295.407 449.319H297.346Z" fill="white"/>
<defs>
<linearGradient id="paint0_linear_1048_17403" x1="3977.13" y1="450.608" x2="3977.17" y2="0.922153" gradientUnits="userSpaceOnUse">
<stop offset="0.0001" stop-color="#8B69CA"/>
<stop offset="0.416667" stop-color="#9A74DB"/>
<stop offset="0.84375" stop-color="#9872D8"/>
</linearGradient>
<linearGradient id="paint1_linear_1048_17403" x1="875.006" y1="268.713" x2="875.01" y2="211.969" gradientUnits="userSpaceOnUse">
<stop offset="0.0001" stop-color="#8B69CA"/>
<stop offset="0.416667" stop-color="#9A74DB"/>
<stop offset="0.84375" stop-color="#9872D8"/>
</linearGradient>
<linearGradient id="paint2_linear_1048_17403" x1="233.903" y1="466.054" x2="-29.8111" y2="263.797" gradientUnits="userSpaceOnUse">
<stop stop-color="#9A74DB"/>
<stop offset="1" stop-color="#9A74DB" stop-opacity="0"/>
</linearGradient>
<linearGradient id="paint3_linear_1048_17403" x1="133.92" y1="360.568" x2="31.1865" y2="360.568" gradientUnits="userSpaceOnUse">
<stop offset="0.0913122" stop-color="#24AD7C"/>
<stop offset="1" stop-color="#1845B9"/>
</linearGradient>
<linearGradient id="paint4_linear_1048_17403" x1="221.609" y1="196.544" x2="24.2681" y2="45.1924" gradientUnits="userSpaceOnUse">
<stop stop-color="#9A74DB"/>
<stop offset="1" stop-color="#9A74DB" stop-opacity="0"/>
</linearGradient>
<linearGradient id="paint5_linear_1048_17403" x1="146.762" y1="117.951" x2="70.6289" y2="117.951" gradientUnits="userSpaceOnUse">
<stop stop-color="#D5A222"/>
<stop offset="1" stop-color="#F242E1"/>
</linearGradient>
<linearGradient id="paint6_linear_1048_17403" x1="398.642" y1="167.192" x2="201.301" y2="15.8399" gradientUnits="userSpaceOnUse">
<stop stop-color="#9A74DB"/>
<stop offset="1" stop-color="#9A74DB" stop-opacity="0"/>
</linearGradient>
<linearGradient id="paint7_linear_1048_17403" x1="247.662" y1="88.5989" x2="323.795" y2="88.5989" gradientUnits="userSpaceOnUse">
<stop stop-color="#9B08CE"/>
<stop offset="1" stop-color="#FC315A"/>
</linearGradient>
<linearGradient id="paint8_linear_1048_17403" x1="353.232" y1="359.318" x2="58.109" y2="132.972" gradientUnits="userSpaceOnUse">
<stop stop-color="#9A74DB"/>
<stop offset="1" stop-color="#9A74DB" stop-opacity="0"/>
</linearGradient>
<linearGradient id="paint9_linear_1048_17403" x1="242.145" y1="241.726" x2="127.549" y2="241.726" gradientUnits="userSpaceOnUse">
<stop stop-color="#B000FD"/>
<stop offset="0.0001" stop-color="#B000FD"/>
<stop offset="0.98" stop-color="#30DAFF"/>
</linearGradient>
<linearGradient id="paint10_linear_1048_17403" x1="446.709" y1="558.698" x2="182.995" y2="356.441" gradientUnits="userSpaceOnUse">
<stop stop-color="#9A74DB"/>
<stop offset="1" stop-color="#9A74DB" stop-opacity="0"/>
</linearGradient>
<linearGradient id="paint11_linear_1048_17403" x1="243.992" y1="453.212" x2="346.724" y2="453.634" gradientUnits="userSpaceOnUse">
<stop stop-color="#F43053"/>
<stop offset="1" stop-color="#E38048"/>
</linearGradient>
</defs>
</svg>
