<?xml version="1.0" encoding="utf-8"?>
<!-- Generator: Adobe Illustrator 28.1.0, SVG Export Plug-In . SVG Version: 6.00 Build 0)  -->
<svg version="1.1" id="Ebene_1" xmlns="http://www.w3.org/2000/svg" xmlns:xlink="http://www.w3.org/1999/xlink" x="0px" y="0px"
	 viewBox="0 0 260 260" style="enable-background:new 0 0 260 260;" xml:space="preserve">
<style type="text/css">
	.st0{fill:#FFFFFF;}
</style>
<path d="M258.3,45.7c-4.2-28.6-14.8-39.5-42.7-43.8C207,0.6,82.7-0.2,59.6,1C30.4,2.4,17.5,7.6,9.4,21.2c-5.5,9.1-7.3,18.4-8.5,44.3
	c-1.2,27.9-0.4,139.8,1.1,150c4.3,27.9,15.2,38.5,43.8,42.7c12.6,1.8,156,1.8,168.6,0c29-4.3,39.6-14.9,43.9-43.9
	C260.1,201.7,260.1,58.3,258.3,45.7z"/>
<path class="st0" d="M198.9,113.1c-0.3,12.9-2.1,25.1-7.8,36.4c-1.9,3.7-4.2,7.1-7.4,9.8c-5.1,4.3-10.9,5.3-16.9,2.3
	c-3.6-1.8-6.8-4.2-10.3-6.2c-3.7-2.2-7.3-4.3-11.1-6.3c-10.5-5.4-21-5.4-31.4,0.2c-6,3.2-11.8,6.9-17.6,10.5
	c-3.5,2.2-7.2,3.8-11.4,3.4c-4.7-0.4-8.2-2.9-11.2-6.3c-5.2-6.1-8-13.4-9.9-21c-2.5-9.6-3.3-19.4-2.7-29.3c0.1-1.5,0.6-2.7,1.7-3.7
	c4.4-3.9,9.7-5.7,15.4-6.1c11.8-0.9,22.9,1.8,33.5,6.9c3.6,1.7,7.4,3.2,11.2,4.7c4.7,1.9,9.5,1.8,14.1-0.1c4.3-1.7,8.5-3.6,12.7-5.5
	c10.2-4.5,20.9-7,32.1-6c5.5,0.5,10.6,2.3,14.9,6.1c1.1,0.9,1.7,2,1.7,3.4C198.7,108.7,198.8,111.1,198.9,113.1z M142.5,127.8
	c2.9,3.7,6,6.9,10,9.2c4.9,2.9,10,3.4,15.2,0.9c4.5-2.2,8-5.5,11.1-9.5c0.2-0.3,0.1-1.1-0.1-1.5c-2.5-3.2-5.4-6-8.8-8.1
	c-5.1-3.2-10.4-3.9-15.9-1C149.2,120.2,145.6,123.7,142.5,127.8z M117.5,127.8c-3.4-4.5-7.3-8.2-12.4-10.5c-2.6-1.1-5.3-1.7-8.1-1.1
	c-7.1,1.4-11.9,6.1-16.3,11.6c3.2,4.2,6.9,7.8,11.6,10.1c4.9,2.4,9.8,2.1,14.5-0.5C111.1,135.1,114.4,131.8,117.5,127.8L117.5,127.8
	z"/>
</svg>
