<?xml version="1.0" encoding="utf-8"?>
<!-- Generator: Adobe Illustrator 28.1.0, SVG Export Plug-In . SVG Version: 6.00 Build 0)  -->
<svg version="1.1" id="Ebene_1" xmlns="http://www.w3.org/2000/svg" xmlns:xlink="http://www.w3.org/1999/xlink" x="0px" y="0px"
	 viewBox="0 0 2000 2000" style="enable-background:new 0 0 2000 2000;" xml:space="preserve">
<style type="text/css">
	.st0{fill:#B3B3B3;}
	.st1{fill:#FFFFFF;}
</style>
<g id="Layer_2">
	<circle class="st0" cx="1000" cy="1000" r="1000"/>
	<g id="Layer_1-2">
		<path class="st1" d="M1687.5,575.3c-23.4-18.5-51.4-43.7-102.3-50c-47.8-6.3-96.4,25.7-129.3,46.9s-95.1,83.3-120.7,102.3
			s-91.5,36.5-197.3,100C1032,838,616.6,1104.7,616.6,1104.7l108.1,1.4l-482.1,248.2h48.2l-69.4,52.7c0,0,61.3,16.2,112.6-16.2v14.9
			c0,0,574-226.2,684.8-167.6l-67.6,19.8c5.9,0,114.9,7.2,114.9,7.2c5.4,45.7,30.8,86.7,69.4,111.7c65.8,43.3,67.1,67.1,67.1,67.1
			s-34.2,14-34.2,31.5c0,0,50.5-15.3,97.3-14c29.7,1.1,59.2,5.8,87.9,14c0,0-3.6-18.9-49.1-31.5s-90.6-62.2-112.6-89.2
			c-27.5-35-34.5-81.9-18.5-123.4c15.8-41,70.7-63.5,184.3-122.1c133.8-69.4,164.4-120.7,183.4-160.8s46.9-119.8,62.6-157.2
			c19.8-48.2,44.2-73.9,64.4-89.2s110.4-49.1,110.4-49.1S1709.6,592.9,1687.5,575.3z"/>
	</g>
</g>
</svg>
