<?xml version="1.0" encoding="UTF-8"?>
<svg id="Ebene_1" xmlns="http://www.w3.org/2000/svg" version="1.1" viewBox="0 0 45 48">
  <!-- Generator: Adobe Illustrator 29.0.1, SVG Export Plug-In . SVG Version: 2.1.0 Build 192)  -->
  <defs>
    <style>
      .st0 {
        fill: #fff;
      }
    </style>
  </defs>
  <path class="st0" d="M44,11.6c-2.9-1.6-5.8-3.2-8.7-4.8l-4.6-2.5-4,2.2c4.4,2.4,8.8,4.8,13.3,7.2.3.1.5.3.6.5.1.2.2.5.2.7v3.2h0c-2.2-1.2-9-4.7-11.2-5.9s-4.5-2.4-6.7-3.7l-4.3,2.3c5.9,3.2,16,8.5,22.2,11.9,0,1.4,0,2.9,0,4.3,0,0-.1,0-.2-.1-8.4-4.6-21.5-11.5-29.9-16.1l3.8-2.1,4.3-2.3,3.9-2.1,4-2.2-3.4-1.8c-.3-.1-.7-.4-.9-.3-.7.3-1.3.7-2,1l-14.3,7.8h-.2c0,0-.6.4-.6.4L1,11.6c-.2,0-.4.3-.5.5-.1.2-.2.4-.2.7,0,7.6,0,15.1,0,22.7,0,.3,0,.5.2.7.1.2.3.4.6.5,1.1.6,2.2,1.2,3.3,1.8v-5c0-.1,0-.3,0-.4,0-6.3,0-12.5,0-18.8l2-1.1c7.3,4,17,9.2,25.7,13.8h0c2.6,1.4,5.1,2.8,7.5,4l5.1,2.8c0-7,0-14,0-20.9,0-.3,0-.5-.2-.7-.1-.2-.3-.4-.6-.5Z"/>
  <path class="st0" d="M7.4,17.6v21.8c0,.3,0,.5.2.8.1.2.3.4.6.6,2.2,1.3,8.7,4.9,12.3,6.9.3.2.8.4,1,.3,1.2-.6,2.4-1.3,3.6-2-.3-.2-.5-.4-.7-.5-4.3-2.5-8.7-4.9-13-7.4v-4.4l3.5,2c4.4,2.5,8.9,5,13.3,7.5.3.2.8.5,1.1.4,1.3-.6,2.5-1.4,4-2.2l-21.8-12.4v-4.4c1.9,1.1,3.8,2.1,5.7,3.2,6.5,3.7,13,7.3,19.4,11,.2.1.4.2.6.2s.4,0,.6-.2c1.1-.7,2.3-1.3,3.4-1.9l-4.6-2.6L7.4,17.6Z"/>
</svg>