<svg width="340" height="373" viewBox="0 0 340 373" fill="none" xmlns="http://www.w3.org/2000/svg">
<path d="M201.532 364.049C182.019 375.317 157.981 375.317 138.468 364.049L32.0317 302.587C12.521 291.319 0.5 270.497 0.5 247.962V125.038C0.5 102.503 12.521 81.6813 32.0317 70.4131L138.468 8.95111L138.218 8.51811L138.468 8.9511C157.981 -2.31703 182.019 -2.31703 201.532 8.9511L201.782 8.51811L201.532 8.95111L307.968 70.4131C327.479 81.6813 339.5 102.503 339.5 125.038V247.962C339.5 270.497 327.479 291.319 307.968 302.587L201.532 364.049Z" fill="black" stroke="url(#paint0_linear_431_37793)"/>
<path d="M219.27 97.7094C219.102 106.121 217.889 114.061 214.195 121.44C212.982 123.862 211.475 126.078 209.397 127.833C206.055 130.656 202.338 131.261 198.433 129.323C196.114 128.173 193.997 126.61 191.757 125.29C189.379 123.887 187.007 122.467 184.556 121.203C177.758 117.695 170.897 117.7 164.173 121.324C160.268 123.429 156.523 125.841 152.735 128.162C150.441 129.565 148.063 130.613 145.315 130.376C142.293 130.116 139.972 128.518 138.043 126.268C134.656 122.315 132.862 117.564 131.586 112.591C129.977 106.329 129.436 99.9538 129.837 93.4936C129.898 92.4975 130.22 91.746 130.974 91.0871C133.851 88.5622 137.262 87.3937 140.964 87.1235C148.624 86.5598 155.828 88.328 162.732 91.6405C165.099 92.7755 167.548 93.7432 169.989 94.711C173.039 95.9181 176.132 95.8769 179.159 94.6466C181.942 93.5142 184.688 92.2813 187.438 91.0639C194.091 88.1221 200.996 86.4878 208.288 87.1441C211.881 87.4658 215.205 88.6291 217.983 91.1051C218.668 91.7151 219.062 92.392 219.082 93.3314C219.115 94.8731 219.211 96.4122 219.27 97.7094ZM182.605 107.304C184.459 109.744 186.525 111.798 189.075 113.314C192.267 115.211 195.553 115.543 198.943 113.878C201.853 112.447 204.157 110.275 206.126 107.719C206.271 107.531 206.21 106.988 206.042 106.772C204.436 104.679 202.559 102.878 200.326 101.475C196.989 99.3824 193.543 98.9603 189.96 100.798C186.989 102.322 184.655 104.589 182.605 107.304ZM166.355 107.307C164.138 104.401 161.621 101.961 158.319 100.489C156.64 99.7401 154.871 99.3978 153.039 99.7504C148.411 100.638 145.325 103.74 142.461 107.286C144.564 110.051 146.937 112.365 149.992 113.87C153.191 115.448 156.34 115.268 159.446 113.554C162.194 112.035 164.374 109.878 166.355 107.31V107.307Z" fill="url(#paint1_linear_431_37793)"/>
<path d="M235.633 252.725V277.394C235.632 277.696 235.713 277.992 235.866 278.254C236.02 278.515 236.242 278.731 236.508 278.881C239.032 280.305 246.389 284.457 250.434 286.731C250.772 286.923 251.295 287.238 251.539 287.119C252.89 286.455 254.215 285.649 255.658 284.832C255.279 284.577 255.083 284.427 254.867 284.304C249.963 281.51 245.06 278.715 240.158 275.921V270.942L244.074 273.163C249.091 276.002 254.109 278.836 259.128 281.666C259.5 281.875 260.054 282.21 260.321 282.084C261.788 281.377 263.193 280.544 264.812 279.648L240.144 265.592V260.66C242.28 261.862 244.405 263.076 246.541 264.281C253.874 268.423 261.205 272.566 268.536 276.711C268.756 276.838 269.006 276.905 269.261 276.905C269.516 276.905 269.766 276.838 269.986 276.711C271.263 275.967 272.548 275.235 273.841 274.513L268.671 271.556L235.633 252.725Z" fill="url(#paint2_linear_431_37793)"/>
<path d="M276.937 246.053C273.631 244.286 270.354 242.479 267.069 240.683L261.899 237.857L257.366 240.325C262.359 243.034 267.353 245.739 272.348 248.44C272.638 248.558 272.882 248.757 273.047 249.01C273.211 249.264 273.289 249.559 273.269 249.856C273.269 251.077 273.269 252.299 273.269 253.52L273.228 253.497C270.733 252.168 263.018 248.198 260.541 246.843C258.064 245.489 255.498 244.089 252.976 242.712L248.165 245.331C254.806 248.933 266.275 254.926 273.283 258.713C273.283 260.33 273.288 261.942 273.3 263.551C273.218 263.495 273.134 263.443 273.046 263.396C263.511 258.213 248.754 250.407 239.232 245.192L243.574 242.828L248.401 240.202L252.767 237.822L257.308 235.348L253.513 233.281C253.202 233.113 252.712 232.878 252.487 232.99C251.744 233.348 251.019 233.732 250.28 234.132L234.082 242.934L233.884 243.031L233.159 243.437L228.368 246.04C228.109 246.15 227.893 246.334 227.75 246.565C227.606 246.796 227.543 247.064 227.568 247.33C227.593 255.856 227.599 264.381 227.585 272.904C227.561 273.188 227.63 273.472 227.784 273.717C227.938 273.962 228.168 274.156 228.444 274.272C229.689 274.917 230.928 275.601 232.163 276.275V270.637C232.14 270.494 232.129 270.349 232.129 270.205C232.17 263.154 232.166 256.103 232.17 249.053L234.39 247.843C242.694 252.359 253.629 258.164 263.401 263.38L263.476 263.418C266.426 264.999 269.269 266.525 271.904 267.934L277.72 271.05C277.72 263.176 277.743 255.301 277.789 247.427C277.813 247.143 277.744 246.86 277.592 246.614C277.439 246.368 277.211 246.172 276.937 246.053Z" fill="url(#paint3_linear_431_37793)"/>
<g clip-path="url(#clip0_431_37793)">
<path d="M88.7277 244.3C94.1333 244.3 98.5154 241.756 98.5154 238.617C98.5154 235.479 94.1333 232.935 88.7277 232.935C83.3221 232.935 78.9399 235.479 78.9399 238.617C78.9399 241.756 83.3221 244.3 88.7277 244.3Z" fill="#E6007A"/>
<path d="M88.7277 287.118C94.1333 287.118 98.5154 284.574 98.5154 281.436C98.5154 278.297 94.1333 275.753 88.7277 275.753C83.3221 275.753 78.9399 278.297 78.9399 281.436C78.9399 284.574 83.3221 287.118 88.7277 287.118Z" fill="#E6007A"/>
<path d="M75.0882 252.165C77.7909 247.492 77.7732 242.431 75.0487 240.861C72.3241 239.29 67.9245 241.806 65.2218 246.479C62.5191 251.152 62.5368 256.213 65.2613 257.784C67.9858 259.354 72.3855 256.839 75.0882 252.165Z" fill="#E6007A"/>
<path d="M112.229 273.572C114.932 268.899 114.915 263.838 112.193 262.269C109.47 260.7 105.072 263.216 102.369 267.889C99.6666 272.562 99.6828 277.623 102.405 279.192C105.128 280.761 109.526 278.245 112.229 273.572Z" fill="#E6007A"/>
<path d="M75.0491 279.192C77.7737 277.622 77.7914 272.56 75.0887 267.887C72.386 263.214 67.9863 260.699 65.2618 262.269C62.5373 263.839 62.5196 268.901 65.2223 273.574C67.925 278.247 72.3246 280.762 75.0491 279.192Z" fill="#E6007A"/>
<path d="M112.196 257.786C114.918 256.216 114.935 251.156 112.232 246.483C109.529 241.81 105.131 239.294 102.408 240.863C99.6857 242.432 99.6695 247.492 102.372 252.166C105.075 256.839 109.473 259.355 112.196 257.786Z" fill="#E6007A"/>
</g>
<g clip-path="url(#clip1_431_37793)">
<path d="M126.896 220.745C126.919 220.704 126.943 220.66 126.97 220.611C127.007 220.542 127.049 220.464 127.102 220.371L127.102 220.371C129.288 216.587 131.473 212.802 133.659 209.018C138.03 201.446 142.402 193.875 146.777 186.306L126.896 220.745ZM126.896 220.745L126.702 221.009C126.186 221.713 125.607 222.192 124.964 222.463C124.323 222.734 123.583 222.813 122.721 222.664L122.719 222.663C122.719 222.663 122.709 222.661 122.673 222.649C122.669 222.647 122.664 222.646 122.659 222.644C122.626 222.632 122.568 222.612 122.511 222.597C122.426 222.575 122.315 222.557 122.19 222.57L120.767 221.749C120.643 221.468 120.478 221.227 120.34 221.025L120.328 221.007C120.148 220.743 120.01 220.537 119.926 220.304L119.925 220.303C119.487 219.101 119.59 217.983 120.207 216.906C122.539 212.844 124.881 208.788 127.225 204.732C127.946 203.484 128.667 202.235 129.388 200.986C130.105 199.745 130.821 198.504 131.537 197.263C134.402 192.301 137.265 187.34 140.141 182.384L140.142 182.383C140.216 182.254 140.293 182.114 140.343 181.977C140.393 181.842 140.442 181.647 140.386 181.434C140.325 181.204 140.17 181.053 140.016 180.956C139.87 180.865 139.694 180.802 139.512 180.751L139.511 180.751C138.184 180.382 136.872 179.972 135.551 179.559C135.03 179.396 134.507 179.232 133.981 179.071L133.981 179.071C133.738 178.996 133.585 178.942 133.477 178.867C133.399 178.812 133.348 178.75 133.328 178.612C133.307 178.468 133.342 178.399 133.395 178.335C133.474 178.242 133.605 178.153 133.821 178.028C135.56 177.025 137.299 176.022 139.037 175.019C143.613 172.379 148.189 169.74 152.763 167.097L152.763 167.097C152.976 166.973 153.114 166.898 153.242 166.865C153.34 166.839 153.422 166.842 153.532 166.902L153.771 166.463C154.231 166.714 154.23 167.14 154.23 167.58C154.23 167.6 154.23 167.621 154.23 167.641C154.226 173.45 154.227 179.255 154.229 185.061L126.896 220.745ZM119.456 220.474C118.967 219.135 119.082 217.862 119.774 216.658C122.105 212.594 124.449 208.538 126.792 204.482C127.513 203.233 128.235 201.985 128.955 200.736C129.672 199.495 130.388 198.255 131.104 197.014C133.968 192.051 136.832 187.089 139.709 182.133C140.003 181.623 140.042 181.418 139.377 181.233C138.042 180.862 136.718 180.448 135.394 180.034C134.875 179.871 134.355 179.709 133.834 179.549C133.372 179.407 132.914 179.253 132.833 178.683L119.456 220.474ZM153.73 167.641C153.726 173.45 153.727 179.256 153.729 185.061C153.729 186.434 153.729 187.806 153.73 189.178L153.73 189.179C153.73 189.219 153.728 189.274 153.727 189.335C153.724 189.461 153.721 189.617 153.727 189.742C153.735 189.912 153.71 190.016 153.677 190.08C153.65 190.133 153.601 190.192 153.48 190.244L153.48 190.244C153.365 190.294 153.289 190.287 153.216 190.26C153.12 190.225 153.008 190.147 152.861 190.011L152.861 190.01C151.905 189.126 150.954 188.239 150.002 187.35C149.444 186.83 148.886 186.31 148.327 185.79C148.327 185.789 148.326 185.789 148.326 185.789L147.985 186.155L153.73 167.641Z" fill="white" stroke="url(#paint4_linear_431_37793)"/>
<path d="M118.307 169.323C117.639 170.479 116.971 171.635 116.304 172.792C113.666 177.357 111.03 181.922 108.404 186.493M118.307 169.323L102.778 182.392L102.436 182.757C102.947 183.236 103.458 183.708 103.968 184.177C104.892 185.03 105.811 185.877 106.711 186.753L106.711 186.753C106.839 186.878 106.976 186.994 107.123 187.072C107.279 187.155 107.479 187.213 107.702 187.158C107.913 187.106 108.059 186.974 108.154 186.864C108.249 186.754 108.331 186.62 108.404 186.493M118.307 169.323L118.311 169.323L118.466 169.055C119.385 167.463 120.304 165.87 121.223 164.277C123.612 160.135 126.001 155.994 128.4 151.86C129.522 149.925 131.835 149.347 133.724 150.49L133.724 150.49C135.406 151.506 136.017 153.752 135.064 155.58C134.963 155.773 134.855 155.958 134.74 156.154C134.696 156.229 134.651 156.305 134.606 156.384L134.568 156.45L134.53 156.516L134.491 156.582L134.453 156.648L134.415 156.714L134.377 156.78L134.339 156.846L134.301 156.912L134.263 156.978L134.225 157.045L134.186 157.111L134.148 157.177L134.11 157.243L134.072 157.309L134.034 157.375L133.996 157.441L133.958 157.507L133.919 157.573L133.881 157.639L133.843 157.705L133.805 157.771L133.767 157.837L133.729 157.903L133.691 157.969L133.653 158.035L133.614 158.101L133.576 158.167L133.538 158.233L133.5 158.299L133.462 158.365L133.424 158.431L133.386 158.497L133.348 158.563L133.309 158.63L133.271 158.696L133.233 158.762L133.195 158.828L133.157 158.894L133.119 158.96L133.081 159.026L133.043 159.092L133.004 159.158L132.966 159.224L132.928 159.29L132.89 159.356L132.852 159.422L132.814 159.488L132.776 159.554L132.737 159.62L132.699 159.686L132.661 159.752L132.623 159.818L132.585 159.884L132.547 159.95L132.509 160.016L132.471 160.082L132.432 160.148L132.394 160.215L132.356 160.281L132.318 160.347L132.28 160.413L132.242 160.479L132.204 160.545L132.166 160.611L132.127 160.677L132.089 160.743L132.051 160.809L132.013 160.875L131.975 160.941L131.937 161.007L131.899 161.073L131.86 161.139L131.822 161.205L131.784 161.271L131.746 161.337L131.708 161.403L131.67 161.469L131.632 161.535L131.594 161.601L131.555 161.667L131.517 161.734L131.479 161.8L131.441 161.866L131.403 161.932L131.365 161.998L131.327 162.064L131.289 162.13L131.25 162.196L131.212 162.262L131.174 162.328L131.136 162.394L131.098 162.46L131.06 162.526L131.022 162.592L130.984 162.658L130.945 162.724L130.907 162.79L130.869 162.856L130.831 162.922L130.793 162.988L130.755 163.054L130.717 163.12L130.678 163.186L130.64 163.252L130.602 163.319L130.564 163.385L130.526 163.451L130.488 163.517L130.45 163.583L130.412 163.649L130.373 163.715L130.335 163.781L130.297 163.847L130.259 163.913L130.221 163.979L130.183 164.045L130.145 164.111L130.107 164.177L130.068 164.243L130.03 164.309L129.992 164.375L129.954 164.441L129.916 164.507L129.878 164.573L129.84 164.639L129.801 164.705L129.763 164.771L129.725 164.837L129.687 164.904L129.649 164.97L129.611 165.036L129.573 165.102L129.535 165.168L129.496 165.234L129.458 165.3L129.42 165.366L129.382 165.432L129.344 165.498L129.306 165.564L129.268 165.63L129.23 165.696L129.191 165.762L129.153 165.828L129.115 165.894L129.077 165.96L129.039 166.026L129.001 166.092L128.963 166.158L128.925 166.224L128.886 166.29L128.848 166.356L128.81 166.423L128.772 166.489L128.734 166.555L128.696 166.621L128.658 166.687L128.619 166.753L128.581 166.819L128.543 166.885L128.505 166.951L128.467 167.017L128.429 167.083L128.391 167.149L128.353 167.215L128.314 167.281L128.276 167.347L128.238 167.413L128.2 167.479L128.162 167.545L128.124 167.611L128.086 167.677L128.048 167.743L128.009 167.809L127.971 167.875L127.933 167.941L127.895 168.008L127.857 168.074L127.819 168.14L127.781 168.206L127.743 168.272L127.704 168.338L127.666 168.404L127.628 168.47L127.59 168.536L127.552 168.602L127.514 168.668L127.476 168.734L127.437 168.8L127.399 168.866L127.361 168.932L127.323 168.998L127.285 169.064L127.247 169.13L127.209 169.196L127.171 169.262L127.132 169.328L127.094 169.394L127.056 169.46L127.018 169.526L126.98 169.593L126.942 169.659L126.904 169.725L126.866 169.791L126.827 169.857L126.789 169.923L126.751 169.989L126.713 170.055L126.675 170.121L126.637 170.187L126.599 170.253L126.56 170.319L126.522 170.385L126.484 170.451L126.446 170.517L126.408 170.583L126.37 170.649L126.332 170.715L126.294 170.781L126.255 170.847L126.217 170.913L126.179 170.979L126.141 171.045L126.103 171.112L126.065 171.178L126.027 171.244L125.989 171.31L125.95 171.376L125.912 171.442L125.874 171.508L125.836 171.574L125.798 171.64L125.76 171.706L125.722 171.772L125.684 171.838L125.645 171.904L125.607 171.97L125.569 172.036L125.531 172.102L125.493 172.168L125.455 172.234L125.417 172.3L125.378 172.366L125.34 172.432L125.302 172.498L125.264 172.564L125.226 172.63L125.188 172.697L125.15 172.763L125.112 172.829L125.073 172.895L125.035 172.961L124.997 173.027L124.959 173.093L124.921 173.159L124.883 173.225L124.845 173.291L124.807 173.357L124.768 173.423L124.73 173.489L124.692 173.555L124.654 173.621L124.616 173.687L124.578 173.753L124.54 173.819L124.501 173.885L124.463 173.951L124.425 174.017L124.387 174.083L124.349 174.149L124.311 174.216L124.273 174.282L124.235 174.348L124.196 174.414L124.158 174.48L124.12 174.546L124.082 174.612L124.044 174.678L124.006 174.744L123.968 174.81L123.93 174.876L123.891 174.942L123.853 175.008L123.815 175.074L123.777 175.14L123.739 175.206L123.701 175.272L123.663 175.338L123.625 175.404L123.586 175.47L123.548 175.536L123.51 175.602L123.472 175.668L123.434 175.734L123.396 175.801L123.358 175.867L123.319 175.933L123.281 175.999L123.243 176.065L123.205 176.131L123.167 176.197L123.129 176.263L123.091 176.329L123.053 176.395L123.014 176.461L122.976 176.527L122.938 176.593L122.9 176.659L122.862 176.725L122.824 176.791L122.786 176.857L122.748 176.923L122.709 176.989L122.671 177.055L122.633 177.121L122.595 177.187L122.557 177.253L122.519 177.319L122.481 177.386L122.442 177.452L122.404 177.518L122.366 177.584L122.328 177.65L122.29 177.716L122.252 177.782L122.214 177.848L122.176 177.914L122.137 177.98L122.099 178.046L122.061 178.112L122.023 178.178L121.985 178.244L121.947 178.31L121.909 178.376L121.871 178.442L121.832 178.508L121.794 178.574L121.756 178.64L121.718 178.706L121.68 178.772L121.642 178.838L121.604 178.905L121.566 178.971L121.527 179.037L121.489 179.103L121.451 179.169L121.413 179.235L121.375 179.301L121.337 179.367L121.299 179.433L121.26 179.499L121.222 179.565L121.184 179.631L121.146 179.697L121.108 179.763L121.07 179.829L121.032 179.895L120.994 179.961L120.955 180.027L120.917 180.093L120.879 180.159L120.841 180.225L120.803 180.291L120.765 180.357L120.727 180.423L120.689 180.49L120.65 180.556L120.612 180.622L120.574 180.688L120.536 180.754L120.498 180.82L120.46 180.886L120.422 180.952L120.384 181.018L120.345 181.084L120.307 181.15L120.269 181.216L120.231 181.282L120.193 181.348L120.155 181.414L120.117 181.48L120.078 181.546L120.04 181.612L120.002 181.678L119.964 181.744L119.926 181.81L119.888 181.876L119.85 181.942L119.812 182.008L119.773 182.075L119.735 182.141L119.697 182.207L119.659 182.273L119.621 182.339L119.583 182.405L119.545 182.471L119.507 182.537L119.468 182.603L119.43 182.669L119.392 182.735L119.354 182.801L119.316 182.867L119.278 182.933L119.24 182.999L119.201 183.065L119.163 183.131L119.125 183.197L119.087 183.263L119.049 183.329L119.011 183.395L118.973 183.461L118.935 183.527L118.896 183.594L118.858 183.66L118.82 183.726L118.782 183.792L118.744 183.858L118.706 183.924L118.668 183.99L118.63 184.056L118.591 184.122L118.553 184.188L118.515 184.254L118.477 184.32L118.439 184.386L118.401 184.452L118.363 184.518L118.325 184.584L118.286 184.65L118.248 184.716L118.21 184.782L118.172 184.848L118.134 184.914L118.096 184.98L118.058 185.046L118.019 185.112L117.981 185.179L117.943 185.245L117.905 185.311L117.867 185.377L117.829 185.443L117.791 185.509L117.753 185.575L117.714 185.641L117.676 185.707L117.638 185.773L117.6 185.839L117.562 185.905L117.524 185.971L117.486 186.037L117.448 186.103L117.409 186.169L117.371 186.235L117.333 186.301L117.295 186.367L117.257 186.433L117.219 186.499L117.181 186.565L117.142 186.631L117.104 186.697L117.066 186.764L117.028 186.83L116.99 186.896L116.952 186.962L116.914 187.028L116.876 187.094L116.837 187.16L116.799 187.226L116.761 187.292L116.723 187.358L116.685 187.424L116.647 187.49L116.609 187.556L116.571 187.622L116.532 187.688L116.494 187.754L116.456 187.82L116.418 187.886L116.38 187.952L116.342 188.018L116.304 188.084L116.266 188.15L116.227 188.216L116.189 188.283L116.151 188.349L116.113 188.415L116.075 188.481L116.037 188.547L115.999 188.613L115.96 188.679L115.922 188.745L115.884 188.811L115.846 188.877L115.808 188.943L115.77 189.009L115.732 189.075L115.694 189.141L115.655 189.207L115.617 189.273L115.579 189.339L115.541 189.405L115.503 189.471L115.465 189.537L115.427 189.603L115.389 189.669L115.35 189.735L115.312 189.801L115.274 189.868L115.236 189.934L115.198 190L115.16 190.066L115.122 190.132L115.083 190.198L115.071 190.219C114.975 190.385 114.883 190.544 114.825 190.678C114.771 190.801 114.677 191.045 114.78 191.308C114.883 191.572 115.118 191.687 115.241 191.741C115.376 191.8 115.553 191.855 115.739 191.912L115.759 191.918L115.759 191.918C117.606 192.488 119.451 193.057 121.299 193.621L118.307 169.323ZM108.404 186.493L107.971 186.243L108.405 186.492C108.405 186.492 108.404 186.492 108.404 186.493ZM121.422 194.561L121.422 194.561C121.613 194.451 121.725 194.37 121.789 194.291C121.835 194.235 121.864 194.175 121.853 194.057C121.84 193.923 121.795 193.863 121.735 193.815C121.651 193.747 121.517 193.688 121.299 193.621L121.422 194.561ZM121.422 194.561C118.865 196.036 116.309 197.512 113.753 198.987C109.92 201.201 106.087 203.414 102.251 205.624L102.25 205.624M121.422 194.561L102.25 205.624M102.25 205.624C101.86 205.85 101.714 205.774 101.688 205.756M102.25 205.624L101.688 205.756M101.688 205.756C101.632 205.717 101.492 205.543 101.491 205.018M101.688 205.756L101.491 205.018M101.491 205.018C101.487 201.255 101.487 197.493 101.487 193.729M101.491 205.018L101.487 193.729M101.487 193.729C101.487 192.679 101.487 191.629 101.486 190.578M101.487 193.729L101.486 190.578M101.486 190.578C101.486 189.476 101.487 188.372 101.488 187.268M101.486 190.578L101.488 187.268M101.488 187.268C101.49 185.897 101.491 184.525 101.49 183.155L101.488 187.268ZM101.718 182.428C101.718 182.427 101.718 182.427 101.718 182.427L101.53 181.964L101.718 182.428Z" fill="white" stroke="url(#paint5_linear_431_37793)"/>
</g>
<g clip-path="url(#clip2_431_37793)">
<path d="M189.962 168.543C189.986 168.584 190.012 168.626 190.042 168.674C190.082 168.74 190.129 168.816 190.183 168.909L190.183 168.909C192.367 172.694 194.552 176.479 196.737 180.263C201.108 187.835 205.479 195.407 209.847 202.98L189.962 168.543ZM189.962 168.543L189.83 168.243C189.479 167.445 189.354 166.704 189.44 166.011C189.526 165.32 189.827 164.64 190.389 163.968L190.39 163.967C190.389 163.967 190.396 163.959 190.425 163.934C190.428 163.932 190.432 163.928 190.436 163.925C190.463 163.901 190.509 163.861 190.551 163.819C190.612 163.757 190.683 163.67 190.735 163.555L192.158 162.734C192.463 162.766 192.753 162.744 192.997 162.726L193.019 162.724C193.338 162.7 193.586 162.684 193.83 162.728L193.831 162.728C195.09 162.949 196.008 163.597 196.631 164.67C198.984 168.72 201.324 172.777 203.665 176.835C204.386 178.083 205.107 179.332 205.828 180.581C206.544 181.822 207.261 183.063 207.977 184.304C210.843 189.265 213.708 194.226 216.561 199.194L216.562 199.195C216.636 199.324 216.72 199.461 216.813 199.573C216.905 199.684 217.049 199.824 217.262 199.882C217.491 199.944 217.7 199.886 217.861 199.8C218.012 199.719 218.155 199.598 218.29 199.466L218.29 199.465C219.274 198.5 220.285 197.569 221.303 196.632C221.705 196.262 222.108 195.891 222.51 195.517L222.511 195.516C222.696 195.343 222.82 195.238 222.939 195.182C223.026 195.142 223.106 195.128 223.234 195.18C223.369 195.234 223.412 195.298 223.441 195.377C223.482 195.491 223.493 195.649 223.494 195.899C223.493 197.907 223.492 199.914 223.492 201.921C223.49 207.203 223.488 212.486 223.49 217.769L223.49 217.769C223.49 218.015 223.486 218.172 223.451 218.3C223.424 218.397 223.381 218.467 223.274 218.532L223.534 218.959C223.087 219.231 222.718 219.018 222.337 218.798C222.32 218.787 222.302 218.777 222.285 218.767C217.256 215.859 212.228 212.958 207.199 210.056L189.962 168.543ZM193.917 162.235C195.321 162.482 196.366 163.218 197.063 164.419C199.416 168.47 201.758 172.528 204.099 176.585C204.819 177.834 205.54 179.083 206.261 180.331C206.977 181.572 207.694 182.813 208.41 184.053C211.276 189.015 214.141 193.976 216.995 198.945C217.289 199.455 217.447 199.591 217.94 199.109C218.929 198.138 219.95 197.198 220.97 196.259C221.371 195.89 221.771 195.521 222.17 195.15C222.524 194.821 222.886 194.501 223.421 194.716L193.917 162.235ZM222.534 218.334C217.506 215.426 212.477 212.525 207.449 209.623C206.26 208.937 205.072 208.251 203.883 207.565L203.882 207.565C203.847 207.545 203.801 207.517 203.749 207.485C203.641 207.419 203.508 207.338 203.396 207.281C203.245 207.203 203.168 207.13 203.129 207.069C203.096 207.019 203.069 206.948 203.085 206.816L203.085 206.816C203.099 206.692 203.143 206.63 203.204 206.58C203.281 206.515 203.405 206.456 203.596 206.397L203.597 206.397C204.84 206.012 206.085 205.631 207.33 205.251C208.059 205.028 208.789 204.805 209.519 204.581C209.52 204.581 209.52 204.581 209.521 204.58L209.374 204.102L222.534 218.334Z" fill="white" stroke="url(#paint6_linear_431_37793)"/>
<path d="M238.789 186.816C238.122 185.659 237.454 184.503 236.787 183.347C234.151 178.78 231.517 174.214 228.871 169.655M238.789 186.816L235.235 166.833L235.09 166.354C234.42 166.557 233.756 166.764 233.095 166.97C231.894 167.345 230.701 167.717 229.492 168.058L229.492 168.058C229.32 168.107 229.151 168.167 229.01 168.256C228.861 168.349 228.71 168.494 228.646 168.714C228.585 168.923 228.627 169.115 228.675 169.252C228.723 169.39 228.797 169.528 228.871 169.655M238.789 186.816L238.787 186.819L238.942 187.087C239.861 188.68 240.781 190.272 241.702 191.864C244.094 196.004 246.486 200.143 248.867 204.288C249.981 206.228 249.324 208.52 247.391 209.584L247.391 209.584C245.67 210.532 243.419 209.938 242.312 208.2C242.196 208.016 242.09 207.829 241.977 207.632C241.935 207.557 241.891 207.48 241.845 207.4L241.807 207.334L241.769 207.268L241.731 207.202L241.693 207.136L241.655 207.07L241.616 207.004L241.578 206.938L241.54 206.872L241.502 206.806L241.464 206.74L241.426 206.674L241.388 206.608L241.35 206.542L241.311 206.476L241.273 206.41L241.235 206.344L241.197 206.278L241.159 206.212L241.121 206.146L241.083 206.08L241.044 206.014L241.006 205.948L240.968 205.882L240.93 205.815L240.892 205.749L240.854 205.683L240.816 205.617L240.778 205.551L240.739 205.485L240.701 205.419L240.663 205.353L240.625 205.287L240.587 205.221L240.549 205.155L240.511 205.089L240.473 205.023L240.434 204.957L240.396 204.891L240.358 204.825L240.32 204.759L240.282 204.693L240.244 204.627L240.206 204.561L240.168 204.495L240.129 204.429L240.091 204.363L240.053 204.297L240.015 204.23L239.977 204.164L239.939 204.098L239.901 204.032L239.862 203.966L239.824 203.9L239.786 203.834L239.748 203.768L239.71 203.702L239.672 203.636L239.634 203.57L239.596 203.504L239.557 203.438L239.519 203.372L239.481 203.306L239.443 203.24L239.405 203.174L239.367 203.108L239.329 203.042L239.291 202.976L239.252 202.91L239.214 202.844L239.176 202.778L239.138 202.711L239.1 202.645L239.062 202.579L239.024 202.513L238.986 202.447L238.947 202.381L238.909 202.315L238.871 202.249L238.833 202.183L238.795 202.117L238.757 202.051L238.719 201.985L238.68 201.919L238.642 201.853L238.604 201.787L238.566 201.721L238.528 201.655L238.49 201.589L238.452 201.523L238.414 201.457L238.375 201.391L238.337 201.325L238.299 201.259L238.261 201.193L238.223 201.126L238.185 201.06L238.147 200.994L238.109 200.928L238.07 200.862L238.032 200.796L237.994 200.73L237.956 200.664L237.918 200.598L237.88 200.532L237.842 200.466L237.803 200.4L237.765 200.334L237.727 200.268L237.689 200.202L237.651 200.136L237.613 200.07L237.575 200.004L237.537 199.938L237.498 199.872L237.46 199.806L237.422 199.74L237.384 199.674L237.346 199.608L237.308 199.541L237.27 199.475L237.232 199.409L237.193 199.343L237.155 199.277L237.117 199.211L237.079 199.145L237.041 199.079L237.003 199.013L236.965 198.947L236.927 198.881L236.888 198.815L236.85 198.749L236.812 198.683L236.774 198.617L236.736 198.551L236.698 198.485L236.66 198.419L236.621 198.353L236.583 198.287L236.545 198.221L236.507 198.155L236.469 198.089L236.431 198.022L236.393 197.956L236.355 197.89L236.316 197.824L236.278 197.758L236.24 197.692L236.202 197.626L236.164 197.56L236.126 197.494L236.088 197.428L236.05 197.362L236.011 197.296L235.973 197.23L235.935 197.164L235.897 197.098L235.859 197.032L235.821 196.966L235.783 196.9L235.744 196.834L235.706 196.768L235.668 196.702L235.63 196.636L235.592 196.57L235.554 196.504L235.516 196.437L235.478 196.371L235.439 196.305L235.401 196.239L235.363 196.173L235.325 196.107L235.287 196.041L235.249 195.975L235.211 195.909L235.173 195.843L235.134 195.777L235.096 195.711L235.058 195.645L235.02 195.579L234.982 195.513L234.944 195.447L234.906 195.381L234.868 195.315L234.829 195.249L234.791 195.183L234.753 195.117L234.715 195.051L234.677 194.985L234.639 194.919L234.601 194.852L234.562 194.786L234.524 194.72L234.486 194.654L234.448 194.588L234.41 194.522L234.372 194.456L234.334 194.39L234.296 194.324L234.257 194.258L234.219 194.192L234.181 194.126L234.143 194.06L234.105 193.994L234.067 193.928L234.029 193.862L233.991 193.796L233.952 193.73L233.914 193.664L233.876 193.598L233.838 193.532L233.8 193.466L233.762 193.4L233.724 193.333L233.685 193.267L233.647 193.201L233.609 193.135L233.571 193.069L233.533 193.003L233.495 192.937L233.457 192.871L233.419 192.805L233.38 192.739L233.342 192.673L233.304 192.607L233.266 192.541L233.228 192.475L233.19 192.409L233.152 192.343L233.114 192.277L233.075 192.211L233.037 192.145L232.999 192.079L232.961 192.013L232.923 191.947L232.885 191.881L232.847 191.815L232.809 191.748L232.77 191.682L232.732 191.616L232.694 191.55L232.656 191.484L232.618 191.418L232.58 191.352L232.542 191.286L232.503 191.22L232.465 191.154L232.427 191.088L232.389 191.022L232.351 190.956L232.313 190.89L232.275 190.824L232.237 190.758L232.198 190.692L232.16 190.626L232.122 190.56L232.084 190.494L232.046 190.428L232.008 190.362L231.97 190.296L231.932 190.23L231.893 190.163L231.855 190.097L231.817 190.031L231.779 189.965L231.741 189.899L231.703 189.833L231.665 189.767L231.626 189.701L231.588 189.635L231.55 189.569L231.512 189.503L231.474 189.437L231.436 189.371L231.398 189.305L231.36 189.239L231.321 189.173L231.283 189.107L231.245 189.041L231.207 188.975L231.169 188.909L231.131 188.843L231.093 188.777L231.055 188.711L231.016 188.644L230.978 188.578L230.94 188.512L230.902 188.446L230.864 188.38L230.826 188.314L230.788 188.248L230.75 188.182L230.711 188.116L230.673 188.05L230.635 187.984L230.597 187.918L230.559 187.852L230.521 187.786L230.483 187.72L230.444 187.654L230.406 187.588L230.368 187.522L230.33 187.456L230.292 187.39L230.254 187.324L230.216 187.258L230.178 187.192L230.139 187.126L230.101 187.059L230.063 186.993L230.025 186.927L229.987 186.861L229.949 186.795L229.911 186.729L229.873 186.663L229.834 186.597L229.796 186.531L229.758 186.465L229.72 186.399L229.682 186.333L229.644 186.267L229.606 186.201L229.568 186.135L229.529 186.069L229.491 186.003L229.453 185.937L229.415 185.871L229.377 185.805L229.339 185.739L229.301 185.673L229.262 185.607L229.224 185.541L229.186 185.474L229.148 185.408L229.11 185.342L229.072 185.276L229.034 185.21L228.996 185.144L228.957 185.078L228.919 185.012L228.881 184.946L228.843 184.88L228.805 184.814L228.767 184.748L228.729 184.682L228.691 184.616L228.652 184.55L228.614 184.484L228.576 184.418L228.538 184.352L228.5 184.286L228.462 184.22L228.424 184.154L228.385 184.088L228.347 184.022L228.309 183.955L228.271 183.889L228.233 183.823L228.195 183.757L228.157 183.691L228.119 183.625L228.08 183.559L228.042 183.493L228.004 183.427L227.966 183.361L227.928 183.295L227.89 183.229L227.852 183.163L227.814 183.097L227.775 183.031L227.737 182.965L227.699 182.899L227.661 182.833L227.623 182.767L227.585 182.701L227.547 182.635L227.509 182.569L227.47 182.503L227.432 182.437L227.394 182.37L227.356 182.304L227.318 182.238L227.28 182.172L227.242 182.106L227.203 182.04L227.165 181.974L227.127 181.908L227.089 181.842L227.051 181.776L227.013 181.71L226.975 181.644L226.937 181.578L226.898 181.512L226.86 181.446L226.822 181.38L226.784 181.314L226.746 181.248L226.708 181.182L226.67 181.116L226.632 181.05L226.593 180.984L226.555 180.918L226.517 180.851L226.479 180.785L226.441 180.719L226.403 180.653L226.365 180.587L226.326 180.521L226.288 180.455L226.25 180.389L226.212 180.323L226.174 180.257L226.136 180.191L226.098 180.125L226.06 180.059L226.021 179.993L225.983 179.927L225.945 179.861L225.907 179.795L225.869 179.729L225.831 179.663L225.793 179.597L225.755 179.531L225.716 179.465L225.678 179.399L225.64 179.333L225.602 179.266L225.564 179.2L225.526 179.134L225.488 179.068L225.45 179.002L225.411 178.936L225.373 178.87L225.335 178.804L225.297 178.738L225.259 178.672L225.221 178.606L225.183 178.54L225.144 178.474L225.106 178.408L225.068 178.342L225.03 178.276L224.992 178.21L224.954 178.144L224.916 178.078L224.878 178.012L224.839 177.946L224.801 177.88L224.763 177.814L224.725 177.748L224.687 177.681L224.649 177.615L224.611 177.549L224.573 177.483L224.534 177.417L224.496 177.351L224.458 177.285L224.42 177.219L224.382 177.153L224.344 177.087L224.306 177.021L224.267 176.955L224.229 176.889L224.191 176.823L224.153 176.757L224.115 176.691L224.077 176.625L224.039 176.559L224.001 176.493L223.962 176.427L223.924 176.361L223.886 176.295L223.848 176.229L223.81 176.162L223.772 176.096L223.734 176.03L223.696 175.964L223.657 175.898L223.619 175.832L223.581 175.766L223.543 175.7L223.505 175.634L223.467 175.568L223.429 175.502L223.391 175.436L223.352 175.37L223.314 175.304L223.276 175.238L223.238 175.172L223.2 175.106L223.162 175.04L223.124 174.974L223.085 174.908L223.047 174.842L223.009 174.776L222.971 174.71L222.933 174.644L222.895 174.577L222.857 174.511L222.819 174.445L222.78 174.379L222.742 174.313L222.704 174.247L222.666 174.181L222.628 174.115L222.59 174.049L222.552 173.983L222.514 173.917L222.475 173.851L222.437 173.785L222.399 173.719L222.361 173.653L222.323 173.587L222.311 173.565C222.215 173.399 222.123 173.24 222.036 173.122C221.957 173.015 221.792 172.811 221.513 172.768C221.234 172.726 221.016 172.872 220.908 172.952C220.789 173.039 220.653 173.165 220.511 173.297L220.495 173.312L220.495 173.312C219.078 174.626 217.663 175.94 216.25 177.258L238.789 186.816ZM228.871 169.655L229.304 169.404L228.871 169.656C228.871 169.655 228.871 169.655 228.871 169.655ZM215.375 176.894L215.375 176.895C215.375 177.115 215.389 177.252 215.425 177.348C215.451 177.415 215.488 177.47 215.596 177.52C215.718 177.576 215.792 177.567 215.865 177.539C215.965 177.5 216.083 177.414 216.25 177.258L215.375 176.894ZM215.375 176.894C215.376 173.943 215.376 170.991 215.376 168.04C215.376 163.613 215.376 159.187 215.38 154.76L215.38 154.76M215.375 176.894L215.38 154.76M215.38 154.76C215.38 154.309 215.518 154.221 215.547 154.207M215.38 154.76L215.547 154.207M215.547 154.207C215.608 154.178 215.83 154.144 216.284 154.405M215.547 154.207L216.284 154.405M216.284 154.405C219.545 156.284 222.804 158.165 226.063 160.046M216.284 154.405L226.063 160.046M226.063 160.046C226.972 160.571 227.882 161.096 228.792 161.621M226.063 160.046L228.792 161.621M228.792 161.621C229.747 162.172 230.702 162.725 231.658 163.278M228.792 161.621L231.658 163.278M231.658 163.278C232.844 163.965 234.032 164.652 235.218 165.336L231.658 163.278ZM235.735 165.897C235.735 165.897 235.735 165.897 235.735 165.897L236.23 165.966L235.735 165.897Z" fill="white" stroke="url(#paint7_linear_431_37793)"/>
</g>
<defs>
<linearGradient id="paint0_linear_431_37793" x1="340" y1="186.5" x2="0" y2="186.5" gradientUnits="userSpaceOnUse">
<stop offset="0.0913122" stop-color="#24AD7C"/>
<stop offset="1" stop-color="#1845B9"/>
</linearGradient>
<linearGradient id="paint1_linear_431_37793" x1="219.27" y1="108.725" x2="129.71" y2="108.725" gradientUnits="userSpaceOnUse">
<stop offset="0.0913122" stop-color="#24AD7C"/>
<stop offset="1" stop-color="#1845B9"/>
</linearGradient>
<linearGradient id="paint2_linear_431_37793" x1="235.637" y1="269.952" x2="273.825" y2="269.952" gradientUnits="userSpaceOnUse">
<stop stop-color="#B000FD"/>
<stop offset="0.0001" stop-color="#B000FD"/>
<stop offset="0.98" stop-color="#30DAFF"/>
</linearGradient>
<linearGradient id="paint3_linear_431_37793" x1="227.568" y1="254.639" x2="277.772" y2="254.639" gradientUnits="userSpaceOnUse">
<stop stop-color="#B000FD"/>
<stop offset="0.0001" stop-color="#B000FD"/>
<stop offset="0.98" stop-color="#30DAFF"/>
</linearGradient>
<linearGradient id="paint4_linear_431_37793" x1="121.336" y1="222.654" x2="153.776" y2="166.465" gradientUnits="userSpaceOnUse">
<stop offset="0.0913122" stop-color="#24AD7C"/>
<stop offset="1" stop-color="#1845B9"/>
</linearGradient>
<linearGradient id="paint5_linear_431_37793" x1="101.422" y1="206.18" x2="133.863" y2="149.992" gradientUnits="userSpaceOnUse">
<stop offset="0.0913122" stop-color="#24AD7C"/>
<stop offset="1" stop-color="#1845B9"/>
</linearGradient>
<linearGradient id="paint6_linear_431_37793" x1="191.089" y1="162.773" x2="223.53" y2="218.962" gradientUnits="userSpaceOnUse">
<stop offset="0.0913122" stop-color="#24AD7C"/>
<stop offset="1" stop-color="#1845B9"/>
</linearGradient>
<linearGradient id="paint7_linear_431_37793" x1="215.312" y1="153.765" x2="247.753" y2="209.953" gradientUnits="userSpaceOnUse">
<stop offset="0.0913122" stop-color="#24AD7C"/>
<stop offset="1" stop-color="#1845B9"/>
</linearGradient>
<clipPath id="clip0_431_37793">
<rect width="51.0425" height="54.1835" fill="white" transform="translate(63.2061 232.935)"/>
</clipPath>
<clipPath id="clip1_431_37793">
<rect width="69.1924" height="49.9012" fill="white" transform="translate(166.516 168.843) rotate(120)"/>
</clipPath>
<clipPath id="clip2_431_37793">
<rect width="69.1924" height="49.9012" fill="white" transform="translate(215.101 228.807) rotate(-120)"/>
</clipPath>
</defs>
</svg>
