<svg width="45" height="48" viewBox="0 0 45 48" fill="none" xmlns="http://www.w3.org/2000/svg">
<path d="M43.9642 11.607C41.0397 10.04 38.1396 8.43865 35.2333 6.84593L30.659 4.34105L26.6478 6.52857C31.0657 8.93051 35.4846 11.3286 39.9046 13.7229C40.1608 13.8273 40.3765 14.004 40.5223 14.2287C40.6681 14.4534 40.7368 14.7153 40.7189 14.9783C40.7189 16.061 40.7189 17.1438 40.7189 18.2266L40.6826 18.2065C38.4756 17.0284 31.6489 13.5085 29.4571 12.3075C27.2653 11.1065 24.9948 9.86552 22.7637 8.64454L18.5072 10.9664C24.3833 14.1605 34.531 19.4733 40.731 22.8303C40.731 24.2638 40.736 25.6936 40.7461 27.1195C40.674 27.0701 40.5993 27.0243 40.5222 26.9822C32.0849 22.3871 19.0279 15.4672 10.6028 10.8434L14.4445 8.74751L18.716 6.41988L22.579 4.30963L26.5963 2.11639L23.2389 0.283505C22.9634 0.134813 22.5305 -0.0738986 22.3307 0.0261822C21.6738 0.343581 21.032 0.683867 20.3781 1.03844L6.04653 8.84182L5.87106 8.92762L5.22923 9.28791L0.990928 11.5955C0.761762 11.6931 0.570488 11.8556 0.44355 12.0606C0.316612 12.2655 0.26035 12.5028 0.282574 12.7393C0.304775 20.2978 0.309761 27.8553 0.297652 35.4119C0.276173 35.6634 0.337637 35.915 0.473705 36.1321C0.609774 36.3492 0.813694 36.5211 1.05745 36.6243C2.15941 37.1962 3.25534 37.8024 4.34822 38.4V33.4017C4.32831 33.2748 4.31816 33.1467 4.31792 33.0185C4.35424 26.7677 4.35125 20.517 4.35428 14.2662L6.31911 13.1939C13.6665 17.1971 23.3419 22.3442 31.9881 26.9679L32.0546 27.0022C34.6642 28.4033 37.1799 29.7558 39.5109 31.0054L44.6574 33.7677C44.6574 26.7868 44.6777 19.806 44.7181 12.8251C44.7395 12.5736 44.6787 12.3219 44.5439 12.104C44.4091 11.8862 44.2067 11.7127 43.9642 11.607Z" fill="url(#paint0_linear_1213_2813)"/>
<path d="M7.38868 17.6V39.3882C7.38808 39.6546 7.45933 39.9164 7.59522 40.1471C7.73111 40.3777 7.9269 40.569 8.16249 40.7014C10.394 41.9589 16.8974 45.6259 20.4732 47.6338C20.772 47.8038 21.235 48.0823 21.4501 47.9768C22.645 47.3905 23.816 46.6782 25.0916 45.9572C24.7571 45.7314 24.5838 45.5995 24.3926 45.4911C20.057 43.0229 15.7224 40.5548 11.3887 38.0867V33.6897L14.851 35.6508C19.2862 38.158 23.7225 40.6613 28.1596 43.1607C28.4882 43.3454 28.9781 43.6414 29.2141 43.53C30.5106 42.9057 31.7533 42.1699 33.1843 41.3785L11.3768 28.9646V24.6087C13.2648 25.6698 15.1439 26.7427 17.0318 27.8067C23.5143 31.465 29.9958 35.1241 36.4763 38.7843C36.6705 38.8965 36.8917 38.9556 37.1171 38.9556C37.3424 38.9556 37.5637 38.8965 37.7579 38.7843C38.8871 38.1277 40.0233 37.4809 41.1665 36.8438L36.5958 34.2321L7.38868 17.6Z" fill="url(#paint1_linear_1213_2813)"/>
<defs>
<linearGradient id="paint0_linear_1213_2813" x1="0.282574" y1="19.2188" x2="44.7029" y2="19.2188" gradientUnits="userSpaceOnUse">
<stop stop-color="#B000FD"/>
<stop offset="0.0001" stop-color="#B000FD"/>
<stop offset="0.98" stop-color="#30DAFF"/>
</linearGradient>
<linearGradient id="paint1_linear_1213_2813" x1="7.39228" y1="32.8149" x2="41.1517" y2="32.8149" gradientUnits="userSpaceOnUse">
<stop stop-color="#B000FD"/>
<stop offset="0.0001" stop-color="#B000FD"/>
<stop offset="0.98" stop-color="#30DAFF"/>
</linearGradient>
</defs>
</svg>
