<?xml version="1.0" encoding="UTF-8" standalone="no"?>
<svg
   width="64"
   height="64"
   viewBox="0 0 64 64"
   fill="none"
   version="1.1"
   id="svg27"
   sodipodi:docname="paseo-logo.svg"
   inkscape:version="1.1.2 (0a00cf5339, 2022-02-04)"
   xmlns:inkscape="http://www.inkscape.org/namespaces/inkscape"
   xmlns:sodipodi="http://sodipodi.sourceforge.net/DTD/sodipodi-0.dtd"
   xmlns="http://www.w3.org/2000/svg"
   xmlns:svg="http://www.w3.org/2000/svg">
  <sodipodi:namedview
     id="namedview29"
     pagecolor="#ffffff"
     bordercolor="#000000"
     borderopacity="0.25"
     inkscape:pageshadow="2"
     inkscape:pageopacity="0.0"
     inkscape:pagecheckerboard="0"
     showgrid="false"
     fit-margin-top="0"
     fit-margin-left="0"
     fit-margin-right="0"
     fit-margin-bottom="0"
     inkscape:zoom="7.3627451"
     inkscape:cx="52.22237"
     inkscape:cy="32.121172"
     inkscape:window-width="1715"
     inkscape:window-height="1099"
     inkscape:window-x="152"
     inkscape:window-y="114"
     inkscape:window-maximized="0"
     inkscape:current-layer="svg27" />
  <g
     clip-path="url(#clip0_1_75)"
     id="g10"
     style="fill:#00ffa7;fill-opacity:1">
    <path
       fill-rule="evenodd"
       clip-rule="evenodd"
       d="M 32,60 C 47.464,60 60,47.464 60,32 60,16.536 47.464,4 32,4 16.536,4 4,16.536 4,32 4,47.464 16.536,60 32,60 Z m 0,4 C 49.6731,64 64,49.6731 64,32 64,14.3269 49.6731,0 32,0 14.3269,0 0,14.3269 0,32 0,49.6731 14.3269,64 32,64 Z"
       fill="#d6e4e3"
       id="path2"
       style="fill:#00ffa7;fill-opacity:1" />
    <path
       fill-rule="evenodd"
       clip-rule="evenodd"
       d="m 10.9312,33.3736 c 4.1352,3.5393 10.5546,6.8777 18.3016,8.9535 7.747,2.0758 14.9755,2.3944 20.3264,1.3969 5.6698,-1.057 7.8263,-3.2327 8.2486,-4.8088 0.4224,-1.5761 -0.3574,-4.5385 -4.7392,-8.2889 C 48.9334,27.087 42.514,23.7487 34.767,21.6729 27.0201,19.5971 19.7915,19.2785 14.4407,20.276 8.77079,21.333 6.61433,23.5087 6.192,25.0848 c -0.42232,1.5761 0.35741,4.5385 4.7392,8.2888 z M 2.3283,24.0495 c -2.10001,7.8374 9.482,17.7503 25.8692,22.1413 16.3872,4.3909 31.374,1.597 33.474,-6.2403 2.1,-7.8374 -9.482,-17.7503 -25.8692,-22.1413 -16.3872,-4.3909 -31.37399,-1.597 -33.474,6.2403 z"
       fill="#d6e4e3"
       id="path4"
       style="fill:#00ffa7;fill-opacity:1" />
    <path
       d="m 46.1421,26.3432 c -2.3431,2.3432 -6.1421,2.3432 -8.4853,0 -2.3431,-2.3431 -2.3431,-6.1421 0,-8.4853 2.3432,-2.3431 6.1422,-2.3431 8.4853,0 2.3432,2.3432 2.3432,6.1422 0,8.4853 z"
       fill="#d6e4e3"
       id="path6"
       style="fill:#00ffa7;fill-opacity:1" />
    <path
       d="m 22.8076,44.0209 c -2.3432,2.3431 -6.1422,2.3431 -8.4853,0 -2.3431,-2.3432 -2.3431,-6.1421 0,-8.4853 2.3431,-2.3431 6.1421,-2.3431 8.4853,0 2.3431,2.3432 2.3431,6.1421 0,8.4853 z"
       fill="#d6e4e3"
       id="path8"
       style="fill:#00ffa7;fill-opacity:1" />
  </g>
  <defs
     id="defs25">
    <clipPath
       id="clip0_1_75">
      <rect
         width="64"
         height="64"
         fill="#ffffff"
         id="rect22"
         x="0"
         y="0" />
    </clipPath>
  </defs>
</svg>
