<svg width="558" height="382" viewBox="0 0 558 382" fill="none" xmlns="http://www.w3.org/2000/svg">
<path d="M234.683 194.492C224.318 200.477 211.548 200.477 201.183 194.492L144.25 161.622C133.886 155.638 127.5 144.579 127.5 132.61V66.8705C127.5 54.9022 133.886 43.8432 144.25 37.8585L201.183 4.98851C211.548 -0.996169 224.318 -0.996169 234.683 4.98851L291.616 37.8585C301.98 43.8432 308.366 54.9022 308.366 66.8705V132.61C308.366 144.579 301.98 155.638 291.616 161.622L234.683 194.492Z" fill="black" fill-opacity="0.55" stroke="url(#paint0_linear_1043_13713)"/>
<path d="M60.4656 179.248C54.7575 182.544 47.7255 182.544 42.0173 179.248L41.8015 179.622L42.0173 179.248L10.2884 160.929C4.58077 157.634 1.06421 151.544 1.06421 144.953V108.315C1.06421 101.725 4.58077 95.6344 10.2884 92.3387L42.0173 74.0201L41.8041 73.6508L42.0173 74.0201C47.7255 70.7244 54.7575 70.7244 60.4656 74.0201L60.7156 73.5871L60.4656 74.0201L92.1946 92.3387C97.9022 95.6344 101.419 101.725 101.419 108.315V144.953C101.419 151.544 97.9022 157.634 92.1946 160.929L60.4656 179.248L60.7156 179.681L60.4656 179.248Z" fill="black" fill-opacity="0.1" stroke="url(#paint1_linear_1043_13713)"/>
<path d="M516.466 313.748C510.758 317.044 503.725 317.044 498.017 313.748L497.802 314.122L498.017 313.748L466.288 295.429C460.581 292.134 457.064 286.044 457.064 279.453V242.815C457.064 236.225 460.581 230.134 466.288 226.839L498.017 208.52L497.804 208.151L498.017 208.52C503.725 205.224 510.758 205.224 516.466 208.52L516.716 208.087L516.466 208.52L548.195 226.839C553.902 230.134 557.419 236.225 557.419 242.815V279.453C557.419 286.044 553.902 292.134 548.195 295.429L516.466 313.748L516.716 314.181L516.466 313.748Z" fill="black" fill-opacity="0.1" stroke="url(#paint2_linear_1043_13713)"/>
<path d="M456.683 198.492C446.318 204.477 433.548 204.477 423.183 198.492L366.25 165.622C355.886 159.638 349.5 148.579 349.5 136.61V70.8705C349.5 58.9022 355.886 47.8432 366.25 41.8585L423.183 8.98851C433.548 3.00383 446.318 3.00383 456.683 8.98851L513.616 41.8585C523.98 47.8432 530.366 58.9022 530.366 70.8705V136.61C530.366 148.579 523.98 159.638 513.616 165.622L456.683 198.492Z" fill="black" fill-opacity="0.55" stroke="url(#paint3_linear_1043_13713)"/>
<path d="M127.683 376.492C117.318 382.477 104.548 382.477 94.183 376.492L37.25 343.622C26.8857 337.638 20.5 326.579 20.5 314.61V248.87C20.5 236.902 26.8857 225.843 37.25 219.858L94.183 186.989C104.548 181.004 117.318 181.004 127.683 186.989L184.616 219.859C194.98 225.843 201.366 236.902 201.366 248.87V314.61C201.366 326.579 194.98 337.638 184.616 343.622L127.683 376.492Z" fill="black" fill-opacity="0.55" stroke="url(#paint4_linear_1043_13713)"/>
<path d="M346.683 376.492C336.318 382.477 323.548 382.477 313.183 376.492L256.25 343.622C245.886 337.638 239.5 326.579 239.5 314.61V248.87C239.5 236.902 245.886 225.843 256.25 219.858L313.183 186.989C323.548 181.004 336.318 181.004 346.683 186.989L403.616 219.859C413.98 225.843 420.366 236.902 420.366 248.87V314.61C420.366 326.579 413.98 337.638 403.616 343.622L346.683 376.492Z" fill="black" fill-opacity="0.55" stroke="url(#paint5_linear_1043_13713)"/>
<path d="M51 302H54.193L59.744 315.764H59.949L65.5 302H68.693V319.706H66.19V306.893H66.028L60.885 319.68H58.808L53.665 306.885H53.503V319.706H51V302Z" fill="white"/>
<path d="M77.9501 319.974C76.6611 319.974 75.5521 319.695 74.6211 319.135C73.6961 318.571 72.9801 317.778 72.4751 316.758C71.9761 315.732 71.7261 314.53 71.7261 313.153C71.7261 311.793 71.9761 310.594 72.4751 309.556C72.9801 308.519 73.6841 307.709 74.5871 307.127C75.4951 306.545 76.5561 306.254 77.7711 306.254C78.5091 306.254 79.2241 306.378 79.9171 306.625C80.6091 306.873 81.2311 307.262 81.7811 307.793C82.3321 308.323 82.7661 309.012 83.0841 309.859C83.4021 310.7 83.5611 311.723 83.5611 312.928V313.844H73.1651V311.908H81.0661C81.0661 311.228 80.9301 310.625 80.6581 310.101C80.3851 309.571 80.0021 309.153 79.5081 308.847C79.0201 308.542 78.4471 308.389 77.7881 308.389C77.0731 308.389 76.4491 308.568 75.9151 308.925C75.3871 309.277 74.9781 309.738 74.6891 310.308C74.4051 310.873 74.2631 311.487 74.2631 312.15V313.663C74.2631 314.55 74.4171 315.305 74.7231 315.928C75.0351 316.55 75.4691 317.026 76.0261 317.354C76.5821 317.677 77.2321 317.839 77.9761 317.839C78.4581 317.839 78.8981 317.769 79.2951 317.631C79.6931 317.487 80.0361 317.274 80.3251 316.991C80.6151 316.709 80.8361 316.36 80.9901 315.945L83.399 316.386C83.206 317.107 82.86 317.738 82.36 318.28C81.867 318.816 81.2451 319.233 80.4961 319.533C79.7521 319.827 78.9041 319.974 77.9501 319.974Z" fill="white"/>
<path d="M92.4902 306.427V308.501H85.3472V306.427H92.4902ZM87.2632 303.245H89.8082V315.807C89.8082 316.308 89.8822 316.686 90.0302 316.939C90.1772 317.187 90.3672 317.357 90.6002 317.45C90.8392 317.536 91.0972 317.579 91.3752 317.579C91.5792 317.579 91.7582 317.565 91.9112 317.536C92.0652 317.507 92.1842 317.484 92.2692 317.467L92.7292 319.602C92.5812 319.66 92.3712 319.718 92.0992 319.775C91.8262 319.839 91.4862 319.873 91.0772 319.879C90.4072 319.89 89.7832 319.769 89.2042 319.516C88.6252 319.262 88.1572 318.87 87.7992 318.34C87.4412 317.81 87.2632 317.144 87.2632 316.343V303.245Z" fill="white"/>
<path d="M99.1119 320C98.2839 320 97.5339 319.844 96.8649 319.533C96.1949 319.216 95.6639 318.758 95.2719 318.159C94.8859 317.559 94.6929 316.824 94.6929 315.954C94.6929 315.205 94.8349 314.588 95.1189 314.104C95.4029 313.62 95.7859 313.236 96.2689 312.954C96.7509 312.671 97.2899 312.458 97.8859 312.314C98.4819 312.17 99.0899 312.061 99.7079 311.986C100.492 311.893 101.127 311.818 101.616 311.761C102.104 311.697 102.458 311.597 102.68 311.458C102.901 311.32 103.012 311.095 103.012 310.784V310.723C103.012 309.968 102.802 309.383 102.382 308.968C101.967 308.553 101.349 308.346 100.526 308.346C99.6689 308.346 98.9929 308.539 98.4989 308.925C98.0109 309.305 97.6729 309.729 97.4859 310.196L95.0939 309.643C95.3769 308.836 95.7919 308.184 96.3369 307.689C96.8869 307.187 97.5199 306.824 98.2349 306.599C98.9509 306.369 99.7029 306.254 100.492 306.254C101.014 306.254 101.567 306.317 102.152 306.444C102.742 306.565 103.293 306.79 103.804 307.118C104.32 307.447 104.743 307.916 105.072 308.527C105.402 309.133 105.566 309.919 105.566 310.888V319.706H103.08V317.89H102.978C102.813 318.225 102.566 318.553 102.237 318.876C101.908 319.199 101.485 319.467 100.968 319.68C100.452 319.893 99.8329 320 99.1119 320ZM99.6659 317.925C100.37 317.925 100.971 317.784 101.471 317.501C101.976 317.219 102.359 316.85 102.62 316.395C102.887 315.934 103.02 315.441 103.02 314.916V313.205C102.93 313.297 102.754 313.383 102.492 313.464C102.237 313.539 101.945 313.605 101.616 313.663C101.286 313.715 100.966 313.764 100.653 313.81C100.341 313.85 100.08 313.885 99.8699 313.914C99.3759 313.977 98.9249 314.084 98.5159 314.233C98.1129 314.383 97.7899 314.599 97.5459 314.882C97.3069 315.159 97.1879 315.527 97.1879 315.988C97.1879 316.628 97.4209 317.112 97.8859 317.441C98.3519 317.764 98.9449 317.925 99.6659 317.925Z" fill="white"/>
<path d="M119.677 306.427L114.934 319.706H112.209L107.458 306.427H110.192L113.504 316.646H113.64L116.943 306.427H119.677Z" fill="white"/>
<path d="M127.261 319.974C125.972 319.974 124.862 319.695 123.932 319.135C123.006 318.571 122.291 317.778 121.786 316.758C121.286 315.732 121.037 314.53 121.037 313.153C121.037 311.793 121.286 310.594 121.786 309.556C122.291 308.519 122.995 307.709 123.898 307.127C124.806 306.545 125.867 306.254 127.082 306.254C127.82 306.254 128.535 306.378 129.227 306.625C129.92 306.873 130.542 307.262 131.092 307.793C131.643 308.323 132.077 309.012 132.395 309.859C132.713 310.7 132.872 311.723 132.872 312.928V313.844H122.476V311.908H130.377C130.377 311.228 130.241 310.625 129.968 310.101C129.696 309.571 129.313 309.153 128.819 308.847C128.331 308.542 127.757 308.389 127.099 308.389C126.384 308.389 125.759 308.568 125.226 308.925C124.698 309.277 124.289 309.738 124 310.308C123.716 310.873 123.574 311.487 123.574 312.15V313.663C123.574 314.55 123.727 315.305 124.034 315.928C124.346 316.55 124.78 317.026 125.336 317.354C125.893 317.677 126.543 317.839 127.286 317.839C127.769 317.839 128.209 317.769 128.606 317.631C129.003 317.487 129.347 317.274 129.636 316.991C129.926 316.709 130.147 316.36 130.3 315.945L132.71 316.386C132.517 317.107 132.171 317.738 131.671 318.28C131.177 318.816 130.556 319.233 129.806 319.533C129.063 319.827 128.214 319.974 127.261 319.974Z" fill="white"/>
<path d="M135.696 319.706V306.427H138.157V308.536H138.293C138.532 307.821 138.952 307.259 139.553 306.85C140.161 306.435 140.847 306.228 141.614 306.228C141.773 306.228 141.96 306.233 142.176 306.245C142.397 306.256 142.57 306.271 142.695 306.288V308.761C142.593 308.732 142.411 308.7 142.15 308.666C141.889 308.625 141.628 308.605 141.367 308.605C140.765 308.605 140.229 308.735 139.758 308.994C139.292 309.248 138.923 309.602 138.651 310.058C138.378 310.507 138.242 311.02 138.242 311.597V319.706H135.696Z" fill="white"/>
<path d="M154.698 309.669L152.391 310.084C152.294 309.784 152.141 309.499 151.931 309.228C151.727 308.957 151.448 308.735 151.097 308.562C150.745 308.389 150.305 308.303 149.777 308.303C149.056 308.303 148.454 308.467 147.972 308.795C147.489 309.118 147.248 309.536 147.248 310.049C147.248 310.493 147.41 310.85 147.733 311.121C148.057 311.392 148.579 311.614 149.3 311.787L151.377 312.271C152.581 312.553 153.478 312.988 154.068 313.576C154.658 314.164 154.954 314.928 154.954 315.867C154.954 316.663 154.726 317.372 154.272 317.994C153.824 318.611 153.197 319.095 152.391 319.447C151.59 319.798 150.662 319.974 149.607 319.974C148.142 319.974 146.947 319.657 146.022 319.023C145.097 318.383 144.529 317.476 144.319 316.3L146.78 315.919C146.933 316.571 147.248 317.063 147.725 317.398C148.202 317.726 148.823 317.89 149.589 317.89C150.424 317.89 151.091 317.715 151.59 317.363C152.09 317.006 152.34 316.571 152.34 316.058C152.34 315.643 152.186 315.294 151.88 315.012C151.579 314.729 151.116 314.516 150.492 314.372L148.278 313.879C147.058 313.597 146.155 313.147 145.571 312.53C144.992 311.914 144.702 311.133 144.702 310.187C144.702 309.403 144.918 308.718 145.349 308.13C145.781 307.542 146.377 307.084 147.137 306.755C147.898 306.421 148.769 306.254 149.751 306.254C151.165 306.254 152.277 306.565 153.089 307.187C153.901 307.804 154.437 308.631 154.698 309.669Z" fill="white"/>
<path d="M163.389 319.974C162.101 319.974 160.991 319.695 160.06 319.135C159.135 318.571 158.42 317.778 157.914 316.758C157.415 315.732 157.165 314.53 157.165 313.153C157.165 311.793 157.415 310.594 157.914 309.556C158.42 308.519 159.123 307.709 160.026 307.127C160.934 306.545 161.996 306.254 163.21 306.254C163.948 306.254 164.663 306.378 165.356 306.625C166.048 306.873 166.67 307.262 167.221 307.793C167.771 308.323 168.205 309.012 168.523 309.859C168.841 310.7 169 311.723 169 312.928V313.844H158.604V311.908H166.505C166.505 311.228 166.369 310.625 166.097 310.101C165.824 309.571 165.441 309.153 164.947 308.847C164.459 308.542 163.886 308.389 163.227 308.389C162.512 308.389 161.888 308.568 161.354 308.925C160.826 309.277 160.418 309.738 160.128 310.308C159.844 310.873 159.702 311.487 159.702 312.15V313.663C159.702 314.55 159.856 315.305 160.162 315.928C160.474 316.55 160.909 317.026 161.465 317.354C162.021 317.677 162.671 317.839 163.415 317.839C163.897 317.839 164.337 317.769 164.734 317.631C165.132 317.487 165.475 317.274 165.765 316.991C166.054 316.709 166.275 316.36 166.429 315.945L168.838 316.386C168.645 317.107 168.299 317.738 167.799 318.28C167.306 318.816 166.684 319.233 165.935 319.533C165.191 319.827 164.343 319.974 163.389 319.974Z" fill="white"/>
<path fill-rule="evenodd" clip-rule="evenodd" d="M110.628 274H109.372C108.412 274 107.481 274.31 106.732 274.879L103.777 277.121C103.028 277.69 102.097 278 101.137 278H97.333C93.836 278 91 275.314 91 272V266C91 263.791 92.89 262 95.222 262H124.778C127.11 262 129 263.791 129 266V272C129 275.314 126.164 278 122.667 278H118.863C117.903 278 116.972 277.69 116.223 277.121L113.268 274.879C112.519 274.31 111.588 274 110.628 274Z" fill="#9928FE"/>
<path d="M97 268V270" stroke="white" stroke-width="2" stroke-linecap="round" stroke-linejoin="round"/>
<path d="M129 266V260.949C129 260.311 128.917 259.675 128.753 259.054L126.384 250.105C125.44 246.54 121.984 244.023 118 244" stroke="#9928FE" stroke-width="2" stroke-linecap="round" stroke-linejoin="round"/>
<path d="M91 266V260.949C91 260.311 91.083 259.675 91.247 259.054L93.616 250.105C94.56 246.54 98.016 244.023 102 244" stroke="#9928FE" stroke-width="2" stroke-linecap="round" stroke-linejoin="round"/>
<path d="M187.386 123.124C187.221 122.614 186.999 122.158 186.721 121.755C186.448 121.346 186.121 120.999 185.74 120.713C185.359 120.422 184.924 120.201 184.434 120.049C183.951 119.898 183.419 119.822 182.839 119.822C181.856 119.822 180.968 120.072 180.178 120.57C179.387 121.069 178.762 121.799 178.301 122.763C177.846 123.72 177.619 124.893 177.619 126.282C177.619 127.677 177.849 128.856 178.31 129.819C178.77 130.782 179.402 131.513 180.203 132.011C181.005 132.51 181.918 132.759 182.942 132.759C183.891 132.759 184.719 132.569 185.424 132.188C186.135 131.807 186.684 131.269 187.07 130.575C187.463 129.875 187.659 129.052 187.659 128.105L188.341 128.231H183.343V126.089H190.209V128.046C190.209 129.491 189.897 130.746 189.271 131.81C188.651 132.868 187.793 133.686 186.695 134.263C185.603 134.839 184.352 135.128 182.942 135.128C181.361 135.128 179.973 134.769 178.779 134.053C177.59 133.336 176.663 132.319 175.998 131.003C175.333 129.682 175 128.114 175 126.299C175 124.927 175.193 123.695 175.58 122.603C175.967 121.511 176.51 120.584 177.209 119.822C177.915 119.055 178.742 118.47 179.692 118.067C180.647 117.658 181.691 117.454 182.822 117.454C183.766 117.454 184.645 117.591 185.458 117.865C186.277 118.14 187.005 118.529 187.642 119.033C188.284 119.537 188.816 120.136 189.237 120.831C189.658 121.519 189.942 122.284 190.09 123.124H187.386Z" fill="white"/>
<path d="M197.164 135.178C196.334 135.178 195.583 135.027 194.912 134.725C194.241 134.417 193.709 133.971 193.317 133.389C192.93 132.807 192.737 132.093 192.737 131.247C192.737 130.519 192.879 129.92 193.163 129.449C193.447 128.979 193.831 128.606 194.315 128.332C194.798 128.058 195.338 127.85 195.935 127.71C196.533 127.57 197.141 127.464 197.761 127.391C198.546 127.302 199.183 127.229 199.672 127.173C200.161 127.111 200.516 127.013 200.738 126.879C200.96 126.744 201.071 126.526 201.071 126.224V126.165C201.071 125.431 200.86 124.863 200.439 124.459C200.024 124.056 199.404 123.855 198.58 123.855C197.721 123.855 197.044 124.042 196.55 124.417C196.061 124.787 195.722 125.199 195.535 125.652L193.138 125.115C193.422 124.331 193.837 123.698 194.383 123.216C194.935 122.729 195.569 122.376 196.285 122.158C197.002 121.934 197.755 121.822 198.546 121.822C199.069 121.822 199.623 121.883 200.209 122.007C200.801 122.124 201.352 122.343 201.864 122.662C202.381 122.981 202.805 123.437 203.135 124.031C203.465 124.619 203.63 125.383 203.63 126.324V134.893H201.139V133.129H201.037C200.872 133.453 200.624 133.773 200.294 134.086C199.965 134.4 199.541 134.66 199.023 134.867C198.506 135.075 197.886 135.178 197.164 135.178ZM197.718 133.162C198.423 133.162 199.026 133.025 199.527 132.751C200.033 132.476 200.417 132.118 200.678 131.675C200.946 131.227 201.079 130.748 201.079 130.239V128.576C200.988 128.665 200.812 128.749 200.55 128.828C200.294 128.9 200.002 128.965 199.672 129.021C199.342 129.071 199.021 129.119 198.708 129.164C198.395 129.203 198.133 129.236 197.923 129.264C197.428 129.326 196.976 129.43 196.567 129.575C196.163 129.721 195.839 129.931 195.594 130.205C195.355 130.474 195.236 130.832 195.236 131.28C195.236 131.902 195.469 132.373 195.935 132.692C196.402 133.005 196.996 133.162 197.718 133.162Z" fill="white"/>
<path d="M207.027 134.893V121.99H209.475V124.09H209.637C209.91 123.379 210.357 122.824 210.976 122.427C211.596 122.023 212.338 121.822 213.203 121.822C214.079 121.822 214.812 122.023 215.404 122.427C216.001 122.83 216.442 123.384 216.726 124.09H216.862C217.175 123.401 217.673 122.852 218.355 122.443C219.038 122.029 219.851 121.822 220.795 121.822C221.983 121.822 222.953 122.189 223.704 122.922C224.46 123.656 224.838 124.762 224.838 126.24V134.893H222.288V126.476C222.288 125.602 222.046 124.969 221.563 124.577C221.079 124.185 220.502 123.989 219.831 123.989C219.001 123.989 218.355 124.241 217.895 124.745C217.434 125.243 217.204 125.885 217.204 126.669V134.893H214.662V126.316C214.662 125.616 214.44 125.053 213.996 124.627C213.553 124.202 212.975 123.989 212.265 123.989C211.781 123.989 211.335 124.115 210.925 124.367C210.522 124.613 210.195 124.958 209.944 125.4C209.7 125.843 209.577 126.355 209.577 126.938V134.893H207.027Z" fill="white"/>
<path d="M228.257 134.893V121.99H230.807V134.893H228.257ZM229.545 119.999C229.101 119.999 228.72 119.853 228.402 119.562C228.089 119.265 227.933 118.912 227.933 118.504C227.933 118.089 228.089 117.736 228.402 117.445C228.72 117.148 229.101 117 229.545 117C229.988 117 230.367 117.148 230.679 117.445C230.998 117.736 231.157 118.089 231.157 118.504C231.157 118.912 230.998 119.265 230.679 119.562C230.367 119.853 229.988 119.999 229.545 119.999Z" fill="white"/>
<path d="M236.789 127.232V134.893H234.239V121.99H236.687V124.09H236.849C237.15 123.407 237.622 122.858 238.265 122.443C238.913 122.029 239.729 121.822 240.713 121.822C241.606 121.822 242.388 122.007 243.059 122.376C243.73 122.74 244.25 123.283 244.62 124.006C244.99 124.728 245.174 125.621 245.174 126.686V134.893H242.624V126.988C242.624 126.053 242.376 125.322 241.882 124.795C241.387 124.263 240.707 123.997 239.843 123.997C239.252 123.997 238.725 124.123 238.265 124.375C237.81 124.627 237.449 124.997 237.181 125.484C236.92 125.966 236.789 126.548 236.789 127.232Z" fill="white"/>
<path d="M254.089 140C253.048 140 252.152 139.866 251.401 139.597C250.656 139.328 250.048 138.972 249.576 138.53C249.104 138.088 248.751 137.603 248.518 137.077L250.711 136.186C250.864 136.433 251.069 136.693 251.325 136.967C251.586 137.248 251.939 137.486 252.382 137.682C252.832 137.878 253.409 137.976 254.114 137.976C255.081 137.976 255.88 137.743 256.511 137.278C257.142 136.819 257.458 136.085 257.458 135.077V132.541H257.296C257.142 132.815 256.921 133.12 256.631 133.456C256.346 133.792 255.954 134.083 255.453 134.33C254.953 134.576 254.302 134.699 253.5 134.699C252.465 134.699 251.532 134.461 250.702 133.985C249.877 133.504 249.223 132.795 248.74 131.86C248.262 130.919 248.023 129.763 248.023 128.391C248.023 127.019 248.259 125.843 248.731 124.863C249.209 123.883 249.863 123.132 250.693 122.611C251.524 122.085 252.465 121.822 253.517 121.822C254.33 121.822 254.987 121.956 255.487 122.225C255.988 122.488 256.377 122.796 256.656 123.149C256.94 123.502 257.159 123.813 257.313 124.081H257.501V121.99H260V135.178C260 136.287 259.738 137.197 259.215 137.908C258.692 138.62 257.984 139.146 257.091 139.488C256.204 139.829 255.203 140 254.089 140ZM254.063 132.616C254.797 132.616 255.416 132.448 255.923 132.112C256.434 131.771 256.821 131.283 257.083 130.65C257.35 130.012 257.484 129.248 257.484 128.357C257.484 127.489 257.353 126.725 257.091 126.064C256.83 125.403 256.446 124.888 255.94 124.518C255.433 124.143 254.808 123.955 254.063 123.955C253.295 123.955 252.655 124.151 252.144 124.543C251.632 124.93 251.245 125.456 250.983 126.123C250.728 126.789 250.6 127.534 250.6 128.357C250.6 129.203 250.73 129.945 250.992 130.583C251.254 131.222 251.64 131.72 252.152 132.079C252.67 132.437 253.307 132.616 254.063 132.616Z" fill="white"/>
<path fill-rule="evenodd" clip-rule="evenodd" d="M234.063 62.7517C223.701 59.0828 212.299 59.0828 201.937 62.7517C200.118 63.4457 198.753 64.9207 198.259 66.7267C196.522 73.8647 196.583 81.2937 198.437 88.4057C198.812 89.6927 199.837 90.7167 201.169 91.1357L203.561 91.8947C204.612 92.2327 205.758 91.7297 206.171 90.7487C207.012 88.7457 208.371 85.5097 209.114 83.7417C209.432 82.9837 210.204 82.4877 211.061 82.4907H224.939C225.797 82.4907 226.57 82.9877 226.889 83.7477L229.825 90.7397C230.238 91.7227 231.384 92.2297 232.439 91.8947L234.832 91.1347C236.163 90.7157 237.188 89.6917 237.563 88.4047C239.417 81.2927 239.478 73.8647 237.741 66.7267C237.247 64.9207 235.882 63.4457 234.063 62.7517Z" fill="#9928FE"/>
<path d="M205 71.9998H211" stroke="white" stroke-width="2" stroke-linecap="round" stroke-linejoin="round"/>
<path d="M208 68.9998V74.9998" stroke="white" stroke-width="2" stroke-linecap="round" stroke-linejoin="round"/>
<path d="M222.35 71.9998C222.35 72.1938 222.193 72.3498 222 72.3498C221.807 72.3498 221.65 72.1928 221.65 71.9998C221.65 71.8068 221.806 71.6498 222 71.6498C222.093 71.6498 222.182 71.6868 222.247 71.7528C222.313 71.8178 222.35 71.9068 222.35 71.9998Z" stroke="white" stroke-width="2" stroke-linecap="round" stroke-linejoin="round"/>
<path d="M230.35 71.9998C230.35 72.1938 230.193 72.3498 230 72.3498C229.807 72.3498 229.65 72.1928 229.65 71.9998C229.65 71.8068 229.806 71.6498 230 71.6498C230.093 71.6498 230.182 71.6868 230.247 71.7528C230.313 71.8178 230.35 71.9068 230.35 71.9998Z" stroke="white" stroke-width="2" stroke-linecap="round" stroke-linejoin="round"/>
<path d="M226 74.6498C226.194 74.6498 226.35 74.8068 226.35 74.9998C226.35 75.1928 226.193 75.3498 226 75.3498C225.807 75.3498 225.65 75.1938 225.65 74.9998C225.65 74.9068 225.687 74.8178 225.753 74.7528C225.818 74.6868 225.907 74.6498 226 74.6498Z" stroke="white" stroke-width="2" stroke-linecap="round" stroke-linejoin="round"/>
<path d="M226 67.6498C226.194 67.6498 226.35 67.8068 226.35 67.9998C226.35 68.1928 226.193 68.3498 226 68.3498C225.807 68.3498 225.65 68.1938 225.65 67.9998C225.65 67.9068 225.687 67.8178 225.753 67.7528C225.818 67.6868 225.907 67.6498 226 67.6498Z" stroke="white" stroke-width="2" stroke-linecap="round" stroke-linejoin="round"/>
<path d="M289.641 299.697V317.104H287V299.697H289.641Z" fill="white"/>
<path d="M298.197 317.359C297.138 317.359 296.192 317.09 295.36 316.552C294.533 316.008 293.884 315.234 293.411 314.231C292.943 313.223 292.71 312.013 292.71 310.602C292.71 309.191 292.946 307.984 293.419 306.981C293.898 305.978 294.553 305.21 295.385 304.678C296.217 304.145 297.16 303.879 298.215 303.879C299.029 303.879 299.685 304.015 300.18 304.287C300.682 304.553 301.069 304.865 301.343 305.222C301.622 305.579 301.839 305.893 301.993 306.165H302.146V299.697H304.702V317.104H302.206V315.073H301.993C301.839 315.35 301.616 315.668 301.326 316.025C301.041 316.382 300.648 316.693 300.146 316.96C299.645 317.226 298.995 317.359 298.197 317.359ZM298.762 315.192C299.497 315.192 300.118 314.999 300.625 314.614C301.138 314.223 301.525 313.682 301.787 312.99C302.055 312.299 302.189 311.494 302.189 310.576C302.189 309.67 302.058 308.877 301.796 308.197C301.534 307.517 301.149 306.987 300.642 306.607C300.135 306.228 299.508 306.038 298.762 306.038C297.992 306.038 297.351 306.236 296.838 306.633C296.325 307.029 295.938 307.57 295.676 308.256C295.419 308.942 295.291 309.715 295.291 310.576C295.291 311.449 295.422 312.234 295.684 312.931C295.947 313.628 296.334 314.18 296.847 314.588C297.365 314.991 298.004 315.192 298.762 315.192Z" fill="white"/>
<path d="M314.008 317.368C312.715 317.368 311.601 317.093 310.666 316.543C309.737 315.988 309.019 315.209 308.512 314.206C308.011 313.197 307.76 312.016 307.76 310.661C307.76 309.324 308.011 308.146 308.512 307.126C309.019 306.106 309.726 305.31 310.632 304.737C311.544 304.165 312.609 303.879 313.829 303.879C314.57 303.879 315.288 304.001 315.983 304.244C316.678 304.488 317.302 304.87 317.855 305.392C318.408 305.913 318.844 306.59 319.163 307.423C319.482 308.25 319.641 309.256 319.641 310.441V311.341H309.205V309.438H317.137C317.137 308.769 317 308.177 316.727 307.661C316.453 307.14 316.068 306.729 315.573 306.429C315.083 306.128 314.507 305.978 313.846 305.978C313.128 305.978 312.501 306.154 311.966 306.505C311.436 306.851 311.025 307.304 310.735 307.865C310.45 308.42 310.307 309.024 310.307 309.676V311.163C310.307 312.036 310.461 312.778 310.769 313.39C311.082 314.002 311.518 314.469 312.077 314.792C312.635 315.11 313.288 315.268 314.034 315.268C314.518 315.268 314.96 315.2 315.359 315.064C315.758 314.923 316.103 314.713 316.393 314.435C316.684 314.158 316.906 313.815 317.06 313.407L319.479 313.84C319.285 314.549 318.938 315.169 318.436 315.702C317.94 316.229 317.316 316.64 316.564 316.934C315.818 317.223 314.966 317.368 314.008 317.368Z" fill="white"/>
<path d="M325.033 309.353V317.104H322.477V304.049H324.93V306.174H325.093C325.395 305.482 325.868 304.927 326.512 304.508C327.161 304.088 327.979 303.879 328.965 303.879C329.859 303.879 330.643 304.066 331.315 304.44C331.988 304.808 332.509 305.358 332.88 306.089C333.25 306.82 333.435 307.723 333.435 308.8V317.104H330.879V309.106C330.879 308.16 330.631 307.42 330.136 306.888C329.64 306.349 328.959 306.08 328.093 306.08C327.5 306.08 326.973 306.208 326.512 306.463C326.056 306.718 325.694 307.092 325.426 307.585C325.164 308.072 325.033 308.661 325.033 309.353Z" fill="white"/>
<path d="M342.991 304.049V306.089H335.82V304.049H342.991ZM337.743 300.921H340.299V313.271C340.299 313.764 340.373 314.135 340.521 314.384C340.669 314.628 340.86 314.795 341.094 314.886C341.333 314.971 341.592 315.013 341.872 315.013C342.077 315.013 342.256 314.999 342.41 314.971C342.564 314.942 342.684 314.92 342.769 314.903L343.231 317.002C343.083 317.059 342.872 317.116 342.598 317.172C342.325 317.235 341.983 317.269 341.572 317.274C340.9 317.286 340.273 317.167 339.692 316.917C339.111 316.668 338.641 316.283 338.282 315.761C337.923 315.24 337.743 314.585 337.743 313.798V300.921Z" fill="white"/>
<path d="M345.819 317.104V304.049H348.374V317.104H345.819ZM347.109 302.034C346.665 302.034 346.283 301.887 345.964 301.592C345.65 301.292 345.494 300.935 345.494 300.521C345.494 300.102 345.65 299.745 345.964 299.45C346.283 299.15 346.665 299 347.109 299C347.554 299 347.933 299.15 348.246 299.45C348.565 299.745 348.725 300.102 348.725 300.521C348.725 300.935 348.565 301.292 348.246 301.592C347.933 301.887 347.554 302.034 347.109 302.034Z" fill="white"/>
<path d="M357.941 304.049V306.089H350.77V304.049H357.941ZM352.693 300.921H355.249V313.271C355.249 313.764 355.323 314.135 355.471 314.384C355.619 314.628 355.81 314.795 356.044 314.886C356.283 314.971 356.542 315.013 356.822 315.013C357.027 315.013 357.206 314.999 357.36 314.971C357.514 314.942 357.634 314.92 357.719 314.903L358.181 317.002C358.032 317.059 357.822 317.116 357.548 317.172C357.275 317.235 356.933 317.269 356.522 317.274C355.85 317.286 355.223 317.167 354.642 316.917C354.061 316.668 353.59 316.283 353.231 315.761C352.872 315.24 352.693 314.585 352.693 313.798V300.921Z" fill="white"/>
<path d="M362.384 322C362.002 322 361.654 321.969 361.341 321.907C361.028 321.85 360.794 321.788 360.64 321.72L361.256 319.637C361.723 319.762 362.139 319.816 362.504 319.799C362.868 319.782 363.19 319.646 363.469 319.391C363.754 319.136 364.005 318.719 364.222 318.141L364.538 317.274L359.734 304.049H362.469L365.794 314.18H365.931L369.256 304.049H372L366.589 318.847C366.339 319.527 366.019 320.102 365.632 320.572C365.245 321.048 364.783 321.405 364.247 321.643C363.712 321.881 363.09 322 362.384 322Z" fill="white"/>
<path fill-rule="evenodd" clip-rule="evenodd" d="M308 271V245.082C308 242.828 309.919 241 312.286 241H345.8C348.12 241 350 242.79 350 245V271C350 273.21 348.12 275 345.8 275H312.2C309.879 275 308 273.21 308 271Z" fill="#9928FE"/>
<path d="M324.682 250.318C326.439 252.075 326.439 254.925 324.682 256.682C322.925 258.439 320.075 258.439 318.318 256.682C316.561 254.925 316.561 252.075 318.318 250.318C320.075 248.561 322.925 248.561 324.682 250.318Z" stroke="white" stroke-width="2" stroke-linecap="round" stroke-linejoin="round"/>
<path d="M335 253H343" stroke="white" stroke-width="2" stroke-linecap="round" stroke-linejoin="round"/>
<path d="M340 261H335" stroke="white" stroke-width="2" stroke-linecap="round" stroke-linejoin="round"/>
<path d="M329 267C328.635 266.122 328.072 265.334 327.348 264.692C326.123 263.604 324.517 263 322.848 263H320.152C318.483 263 316.877 263.604 315.652 264.692C314.928 265.334 314.365 266.122 314 267" stroke="white" stroke-width="2" stroke-linecap="round" stroke-linejoin="round"/>
<path d="M415.687 141.732H410V124H415.867C417.589 124 419.067 124.355 420.302 125.065C421.537 125.769 422.484 126.782 423.141 128.104C423.805 129.42 424.137 130.999 424.137 132.84C424.137 134.687 423.802 136.274 423.133 137.602C422.47 138.929 421.509 139.951 420.251 140.667C418.993 141.377 417.471 141.732 415.687 141.732ZM412.651 139.394H415.541C416.88 139.394 417.992 139.14 418.878 138.632C419.765 138.118 420.428 137.377 420.868 136.407C421.309 135.431 421.529 134.242 421.529 132.84C421.529 131.449 421.309 130.268 420.868 129.299C420.434 128.329 419.785 127.593 418.921 127.091C418.058 126.589 416.985 126.338 415.704 126.338H412.651V139.394Z" fill="white"/>
<path d="M427.433 141.732V124H438.447V126.303H430.083V131.706H437.872V134H430.083V139.429H438.55V141.732H427.433Z" fill="white"/>
<path d="M443.832 124L448.035 130.935H448.172L452.375 124H455.446L449.973 132.866L455.48 141.732H452.392L448.172 134.892H448.035L443.814 141.732H440.726L446.328 132.866L440.761 124H443.832Z" fill="white"/>
<path d="M467.743 131.68L465.418 132.095C465.321 131.795 465.166 131.509 464.955 131.238C464.749 130.967 464.469 130.745 464.114 130.571C463.76 130.398 463.316 130.312 462.785 130.312C462.058 130.312 461.452 130.476 460.966 130.805C460.48 131.128 460.237 131.547 460.237 132.061C460.237 132.505 460.4 132.863 460.726 133.134C461.052 133.405 461.578 133.628 462.304 133.801L464.397 134.286C465.61 134.569 466.513 135.004 467.108 135.593C467.703 136.182 468 136.947 468 137.887C468 138.684 467.771 139.394 467.314 140.017C466.862 140.635 466.23 141.12 465.418 141.472C464.612 141.824 463.677 142 462.613 142C461.138 142 459.934 141.683 459.002 141.048C458.07 140.407 457.498 139.498 457.286 138.32L459.765 137.939C459.92 138.592 460.237 139.085 460.717 139.42C461.198 139.749 461.824 139.913 462.596 139.913C463.437 139.913 464.108 139.737 464.612 139.385C465.115 139.027 465.367 138.592 465.367 138.078C465.367 137.662 465.212 137.313 464.903 137.03C464.6 136.747 464.134 136.534 463.505 136.39L461.275 135.896C460.045 135.613 459.136 135.163 458.547 134.545C457.964 133.928 457.672 133.146 457.672 132.199C457.672 131.414 457.889 130.727 458.324 130.139C458.759 129.55 459.359 129.091 460.125 128.762C460.892 128.427 461.77 128.26 462.759 128.26C464.183 128.26 465.304 128.571 466.121 129.195C466.939 129.812 467.48 130.641 467.743 131.68Z" fill="white"/>
<path fill-rule="evenodd" clip-rule="evenodd" d="M433 70.5C433 67.464 435.685 65 439 65C442.312 65 445 67.462 445 70.5C445 73.536 442.315 76 439 76C435.685 75.996 433 73.534 433 70.5Z" fill="#9928FE"/>
<path fill-rule="evenodd" clip-rule="evenodd" d="M419 93.5C419 90.464 421.685 88 425 88C428.312 88 431 90.462 431 93.5C430.998 96.536 428.315 99 425 99C421.685 99 419 96.538 419 93.5Z" fill="#9928FE"/>
<path fill-rule="evenodd" clip-rule="evenodd" d="M447 93.5C447 90.464 449.685 88 453 88C456.312 88 459 90.462 459 93.5C459 96.536 456.315 99 453 99C449.683 99 447 96.538 447 93.5Z" fill="#9928FE"/>
<path d="M432 82L428 88" stroke="#9928FE" stroke-width="4" stroke-linecap="round" stroke-linejoin="round"/>
<path d="M442 76L446 82" stroke="#9928FE" stroke-width="4" stroke-linecap="round" stroke-linejoin="round"/>
<path d="M447 93H439" stroke="#9928FE" stroke-width="4" stroke-linecap="round" stroke-linejoin="round"/>
<defs>
<linearGradient id="paint0_linear_1043_13713" x1="382" y1="214" x2="94.5" y2="-6.50001" gradientUnits="userSpaceOnUse">
<stop stop-color="#9A74DB"/>
<stop offset="1" stop-color="#9A74DB" stop-opacity="0"/>
</linearGradient>
<linearGradient id="paint1_linear_1043_13713" x1="142.677" y1="190.311" x2="-17.5481" y2="67.4258" gradientUnits="userSpaceOnUse">
<stop stop-color="#9A74DB"/>
<stop offset="1" stop-color="#9A74DB" stop-opacity="0"/>
</linearGradient>
<linearGradient id="paint2_linear_1043_13713" x1="598.677" y1="324.811" x2="438.452" y2="201.926" gradientUnits="userSpaceOnUse">
<stop stop-color="#9A74DB"/>
<stop offset="1" stop-color="#9A74DB" stop-opacity="0"/>
</linearGradient>
<linearGradient id="paint3_linear_1043_13713" x1="604" y1="218" x2="316.5" y2="-2.50001" gradientUnits="userSpaceOnUse">
<stop stop-color="#9A74DB"/>
<stop offset="1" stop-color="#9A74DB" stop-opacity="0"/>
</linearGradient>
<linearGradient id="paint4_linear_1043_13713" x1="275" y1="396" x2="-12.5" y2="175.5" gradientUnits="userSpaceOnUse">
<stop stop-color="#9A74DB"/>
<stop offset="1" stop-color="#9A74DB" stop-opacity="0"/>
</linearGradient>
<linearGradient id="paint5_linear_1043_13713" x1="494" y1="396" x2="206.5" y2="175.5" gradientUnits="userSpaceOnUse">
<stop stop-color="#9A74DB"/>
<stop offset="1" stop-color="#9A74DB" stop-opacity="0"/>
</linearGradient>
</defs>
</svg>
