<?xml version="1.0" encoding="utf-8"?>
<!-- Generator: Adobe Illustrator 28.1.0, SVG Export Plug-In . SVG Version: 6.00 Build 0)  -->
<svg version="1.1" id="Ebene_1" xmlns="http://www.w3.org/2000/svg" xmlns:xlink="http://www.w3.org/1999/xlink" x="0px" y="0px"
	 viewBox="0 0 48 48" style="enable-background:new 0 0 48 48;" xml:space="preserve">
<style type="text/css">
	.st0{fill:#24AD7C;}
	.st1{fill-rule:evenodd;clip-rule:evenodd;fill:#FFFFFF;}
	.st2{fill:#FFFFFF;}
</style>
<path class="st0" d="M10,9h28c2.2,0,4,1.8,4,4v22c0,2.2-1.8,4-4,4H10c-2.2,0-4-1.8-4-4V13C6,10.8,7.8,9,10,9z"/>
<path class="st1" d="M6,14.6l16.4,7c1,0.4,2.2,0.4,3.2,0l16.4-7"/>
<path class="st2" d="M6,14.6l16.4,7c1,0.4,2.2,0.4,3.2,0l16.4-7V13c0-2.2-1.8-4-4-4H10c-2.2,0-4,1.8-4,4V14.6z"/>
</svg>
