<svg width="34" height="32" viewBox="0 0 34 32" fill="none" xmlns="http://www.w3.org/2000/svg">
	<path d="M25.9231 16.0142H33.4951C34.4697 20.3852 30.4188 27.109 25.1338 29.9441C18.7283 33.3777 10.5676 32.4382 5.35028 27.6661C-0.119965 22.659 -1.52622 15.1412 1.78557 8.79774C5.359 1.95751 12.8525 -0.436885 16.9863 0.0640258V7.27423L17.0168 7.24721C16.8358 7.25968 16.657 7.28046 16.4761 7.2867C10.6897 7.50494 6.59084 12.7302 8.02108 18.0677C9.12865 22.1976 13.2973 25.068 17.5902 24.6502C23.224 24.0994 26.1346 19.612 25.9558 15.9809L25.9231 16.0121V16.0142Z" fill="white" />
	<path d="M16.986 7.27494H25.9228C25.9228 10.3074 25.9228 13.1612 25.9228 16.0149L25.9555 15.9837C23.01 15.9837 20.0645 15.9837 17.1538 15.9837C17.0514 15.5098 16.9707 15.3103 16.9707 15.1108C16.9794 12.4898 16.999 9.86887 17.0165 7.25L16.986 7.27702V7.27494Z" fill="#05EA9B" />
</svg>
