<svg width="36" height="28" viewBox="0 0 36 28" fill="none" xmlns="http://www.w3.org/2000/svg">
	<path d="M16.8421 0.0390523C19.9699 -0.168603 23.1579 0.454356 25.9549 1.84861C30.1053 3.86584 33.4135 7.48498 34.9474 11.7567C35.6391 13.6553 36 15.6429 36 17.6601V25.106C36 25.4027 36 25.729 35.9399 26.0256C35.7594 26.7672 35.218 27.4496 34.4962 27.7759C33.985 28.0132 33.4135 28.0428 32.9023 27.9539C31.7594 27.7462 30.8571 26.6783 30.8571 25.5213C30.8571 23.2075 30.8571 20.8936 30.8571 18.5797C30.8872 17.9271 30.8872 17.2151 30.5263 16.6515C29.9549 15.5835 28.5113 15.0792 27.3985 15.5242C26.4361 15.8505 25.7444 16.8295 25.7143 17.8381C25.7143 20.1816 25.7143 22.5252 25.7143 24.8687C25.7143 25.3137 25.7444 25.7586 25.594 26.1739C25.3534 27.0046 24.6617 27.6572 23.8195 27.8945C22.7068 28.1912 21.4436 27.7165 20.9023 26.7079C20.5113 26.1146 20.5414 25.373 20.5714 24.6907C20.5714 22.3472 20.5714 20.0333 20.5714 17.6898C20.5414 16.5032 19.5489 15.4352 18.3759 15.2869C17.594 15.1682 16.782 15.4352 16.2105 15.9692C15.6992 16.4438 15.4286 17.1261 15.4286 17.8084V24.6017C15.4286 25.1653 15.4887 25.7586 15.2782 26.2926C14.9474 27.2716 13.9549 27.9835 12.9023 27.9539C11.8195 28.0132 10.7669 27.2716 10.4361 26.2926C10.2556 25.7883 10.2857 25.284 10.2857 24.75C10.2857 22.4065 10.2857 20.063 10.2857 17.7194C10.2857 16.5625 9.35338 15.4945 8.21053 15.2869C7.15789 15.0792 6.01504 15.5835 5.47368 16.5328C5.26316 16.9185 5.14286 17.3634 5.14286 17.8084V25.4323C5.14286 26.1739 4.81203 26.9156 4.2406 27.3902C3.36842 28.1318 1.95489 28.1912 1.05263 27.5089C0.390977 27.0639 0 26.2926 0 25.4917V17.7787C0 14.8716 0.75188 11.9644 2.16541 9.38354C3.30827 7.27732 4.90226 5.40842 6.79699 3.92517C9.59399 1.61129 13.1729 0.246708 16.8421 0.0390523Z" fill="white" />
</svg>
