<?xml version="1.0" encoding="UTF-8"?>
<svg xmlns="http://www.w3.org/2000/svg" xmlns:xlink="http://www.w3.org/1999/xlink" version="1.1" viewBox="0 0 100 30">
  <defs>
    <style>
      .cls-1 {
        mask: url(#mask);
      }

      .cls-2 {
        fill: #fff;
      }

      .cls-3 {
        fill: red;
      }
    </style>
    <mask id="mask" x="0" y="0" width="30" height="30" maskUnits="userSpaceOnUse">
      <g id="svg-1087215166_3282_b">
        <path class="cls-3" d="M0,7.8C0,3.5,3.5,0,7.8,0h14.4c4.3,0,7.8,3.5,7.8,7.8v14.4c0,4.3-3.5,7.8-7.8,7.8H7.8c-4.3,0-7.8-3.5-7.8-7.8V7.8Z"/>
      </g>
    </mask>
  </defs>
  <!-- Generator: Adobe Illustrator 28.6.0, SVG Export Plug-In . SVG Version: 1.2.0 Build 709)  -->
  <g>
    <g id="svg-1087215166_3282">
      <g>
        <g class="cls-1">
          <path class="cls-2" d="M0,0h30v30H0V0Z"/>
        </g>
        <path class="cls-2" d="M25.3,15v.3c-1.7.3-5.3.9-7.1,1.6-.6.2-1.1.7-1.4,1.4-.7,1.8-1.3,5.4-1.6,7.1h-.5c-.3-1.7-.9-5.4-1.6-7.1-.3-.6-.8-1.1-1.4-1.4-1.8-.7-5.4-1.3-7.1-1.6v-.5c1.7-.3,5.3-.9,7.1-1.6.6-.2,1.1-.7,1.4-1.4.7-1.8,1.3-5.4,1.6-7.1h.5c.3,1.7.9,5.4,1.6,7.1.3.6.8,1.1,1.4,1.4,1.8.7,5.4,1.3,7.1,1.6,0,0,0,.3,0,.3ZM41.5,22.6l1.1,5.1,1.2-5.1h1.1l-1.5,6.1h-1.4l-1.1-5.1-1.1,5.1h-1.4l-1.6-6.1h1.1l1.2,5.1,1.1-5.1h1.4ZM51.2,28.7l-.4-1.2h-2.8l-.5,1.2h-1.1l2.3-6.1h1.2l2.3,6.1h-1.1,0ZM50.4,26.6l-1.1-3-1.1,3h2.2s0,0,0,0ZM54.8,22.6h1v5.2h3.2v.9h-4.2s0-6.1,0-6.1ZM61.7,22.6h1v5.2h3.2v.9h-4.2s0-6.1,0-6.1ZM68.6,22.6h4.2v.9h-3.2v1.7h2.9v.9h-2.9v1.7h3.2v.9h-4.2s0-6.1,0-6.1ZM76.9,28.7v-5.2h-1.9v-.9h4.9v.9h-1.9v5.2h-1ZM40.2,1.5l7.2,9.9V1.5h3.7v16h-3.5l-7.2-9.9v9.9h-3.7V1.5h3.5ZM61.2,1.3c1.2,0,2.3.2,3.3.6,1,.4,1.8.9,2.5,1.7.7.7,1.2,1.6,1.6,2.6.4,1,.6,2.1.6,3.3s-.2,2.3-.6,3.3c-.4,1-.9,1.9-1.6,2.6-.7.7-1.5,1.3-2.5,1.7-1,.4-2.1.6-3.3.6-1.2,0-2.4-.2-3.4-.6-1-.4-1.8-1-2.5-1.7-.7-.7-1.2-1.6-1.6-2.6-.4-1-.6-2.1-.6-3.3s.2-2.3.6-3.3c.4-1,.9-1.9,1.6-2.6.7-.7,1.5-1.3,2.5-1.7,1-.4,2.1-.6,3.3-.6h0s0,0,0,0ZM56.9,9.5c0,.6,0,1.2.3,1.8.2.6.4,1.1.8,1.5.4.5.8.8,1.3,1.1.5.3,1.2.4,1.9.4.7,0,1.4-.1,1.9-.4.5-.3,1-.6,1.3-1.1.3-.5.6-1,.8-1.5.2-.6.2-1.2.2-1.7s0-1.2-.2-1.7c-.2-.6-.4-1.1-.8-1.5-.4-.5-.8-.8-1.3-1.1-.5-.3-1.2-.4-1.9-.4s-1.4.1-1.9.4c-.5.3-1,.6-1.3,1.1-.4.5-.6,1-.8,1.5-.2.6-.3,1.2-.3,1.8ZM81.7,1.5h4l-6.2,16h-3.7l-6.2-16h4l4.1,11.4s4-11.4,4-11.4ZM88.5,14.9l-1,2.6h-4l6.3-16h3.9l6.2,16h-4l-.9-2.6h-6.5ZM89.6,11.6h4.3c-.3-1-.7-2-1-3-.4-1-.7-2-1.1-3l-2.2,6Z"/>
      </g>
    </g>
  </g>
</svg>