<?xml version="1.0" encoding="UTF-8"?>
<svg xmlns="http://www.w3.org/2000/svg" version="1.1" viewBox="0 0 155 30">
  <defs>
    <style>
      .cls-1 {
        opacity: .3;
      }

      .cls-1, .cls-2 {
        fill: #fff;
      }
    </style>
  </defs>
  <!-- Generator: Adobe Illustrator 28.6.0, SVG Export Plug-In . SVG Version: 1.2.0 Build 709)  -->
  <g>
    <g id="Layer_1">
      <g>
        <circle class="cls-1" cx="15" cy="15" r="15"/>
        <path class="cls-2" d="M15,4.2c-4.5,0-8.1,3.6-8.1,8.1s.2,1.8.4,2.6c.2.6.8.9,1.4.7.6-.2.9-.8.7-1.4-.2-.7-.3-1.4-.3-2.1,0-3,2.5-5.5,5.5-5.7,3.4-.2,6.2,2.5,6.2,5.8s-2.4,5.7-5.5,5.8c0,0-1.1,0-1.7.1-.3,0-.5,0-.6.1,0,0-.1,0-.1-.1l.2-.9,1-4.8c.1-.6-.3-1.2-.9-1.3s-1.2.3-1.3.9c0,0-2.5,11.8-2.6,11.9-.1.6.3,1.2.9,1.3.6.1,1.2-.3,1.3-.9,0-.1.4-1.7.4-1.7.3-1.2,1.2-2.1,2.4-2.2.3,0,1.3-.1,1.3-.1,4.2-.3,7.5-3.8,7.5-8.1,0-4.5-3.6-8.1-8.1-8.1ZM15.6,22.9c-.7-.1-1.5.3-1.6,1.1-.1.7.3,1.5,1.1,1.6.7.1,1.5-.3,1.6-1,.2-.8-.3-1.5-1.1-1.6Z"/>
      </g>
      <g>
        <path class="cls-2" d="M39.3,6.8c1.1-.2,2.5-.3,4.3-.3s3.9.5,4.9,1.5c1,.8,1.5,2.1,1.5,3.7s-.5,2.8-1.4,3.7c-1.2,1.3-3.1,1.9-5.4,1.9s-1.3,0-1.8-.2v7h-2.3V6.8ZM41.6,15.2c.5.1,1.1.2,1.9.2,2.7,0,4.4-1.3,4.4-3.7s-1.6-3.4-4.1-3.4-1.7,0-2.1.2v6.8Z"/>
        <path class="cls-2" d="M63.8,17.7c0,4.7-3.2,6.7-6.3,6.7s-6-2.5-6-6.5,2.8-6.7,6.2-6.7,6.1,2.6,6.1,6.5ZM53.8,17.8c0,2.8,1.6,4.8,3.8,4.8s3.8-2.1,3.8-4.9-1.1-4.8-3.8-4.8-3.9,2.5-3.9,4.9Z"/>
        <path class="cls-2" d="M66.7,5.6h2.3v18.5h-2.3V5.6Z"/>
        <path class="cls-2" d="M75.1,17.3h0c.3-.4.8-1,1.1-1.4l3.7-4.3h2.8l-4.9,5.2,5.5,7.4h-2.8l-4.3-6-1.2,1.3v4.7h-2.3V5.6h2.3v11.6Z"/>
        <path class="cls-2" d="M92.5,24.1l-.2-1.6h0c-.7,1-2.1,1.9-3.8,1.9-2.5,0-3.8-1.8-3.8-3.6,0-3,2.7-4.7,7.6-4.7v-.3c0-1-.3-2.9-2.9-2.9s-2.4.4-3.3.9l-.5-1.5c1-.7,2.5-1.1,4.1-1.1,3.8,0,4.8,2.6,4.8,5.1v4.7c0,1.1,0,2.2.2,3h-2.1ZM92.1,17.7c-2.5,0-5.3.4-5.3,2.8s1,2.2,2.2,2.2,2.7-1,3-2.1c0-.2.1-.5.1-.7v-2.2Z"/>
        <path class="cls-2" d="M108.9,5.6v15.2c0,1.1,0,2.4.1,3.2h-2.1v-2.2h-.2c-.7,1.4-2.2,2.5-4.3,2.5-3,0-5.4-2.6-5.4-6.4,0-4.2,2.6-6.8,5.6-6.8s3.2.9,3.8,1.9h0v-7.5h2.3ZM106.6,16.6c0-.3,0-.7-.1-1-.3-1.5-1.6-2.7-3.3-2.7s-3.8,2.1-3.8,4.9,1.2,4.7,3.7,4.7,2.9-1,3.4-2.7c0-.3.1-.6.1-1v-2.2Z"/>
        <path class="cls-2" d="M124.1,17.7c0,4.7-3.2,6.7-6.3,6.7s-6-2.5-6-6.5,2.8-6.7,6.2-6.7,6.1,2.6,6.1,6.5ZM114.1,17.8c0,2.8,1.6,4.8,3.8,4.8s3.8-2.1,3.8-4.9-1.1-4.8-3.8-4.8-3.9,2.5-3.9,4.9Z"/>
        <path class="cls-2" d="M129.7,7.9v3.6h3.3v1.7h-3.3v6.8c0,1.6.4,2.4,1.7,2.4s1,0,1.3-.2v1.7c-.3.2-1,.3-1.9.3s-1.9-.3-2.5-1c-.6-.7-.9-1.8-.9-3.3v-6.9h-2v-1.7h2v-3l2.2-.6Z"/>
        <path class="cls-2" d="M139.2,6.6h2.3v11.7c0,4.7-2.3,6.1-5.3,6.1s-1.8-.2-2.4-.4l.3-1.8c.5.2,1.1.3,1.9.3,2,0,3.2-.9,3.2-4.3V6.6Z"/>
        <path class="cls-2" d="M145,21.3c1,.6,2.5,1.1,4.1,1.1,2.3,0,3.7-1.2,3.7-3s-.9-2.6-3.3-3.5c-2.9-1-4.6-2.5-4.6-5s2.3-4.8,5.7-4.8,3.1.4,3.9.9l-.6,1.8c-.6-.3-1.7-.8-3.3-.8-2.4,0-3.3,1.4-3.3,2.6s1.1,2.4,3.5,3.4c3,1.1,4.5,2.6,4.5,5.1s-2,5-6.1,5-3.5-.5-4.5-1.1l.6-1.9Z"/>
      </g>
    </g>
  </g>
</svg>