<?xml version="1.0" encoding="UTF-8"?>
<svg xmlns="http://www.w3.org/2000/svg" xmlns:xlink="http://www.w3.org/1999/xlink" version="1.1" viewBox="0 0 155 30">
  <defs>
    <style>
      .cls-1 {
        fill: none;
      }

      .cls-2 {
        fill-rule: evenodd;
      }

      .cls-2, .cls-3 {
        fill: #fff;
      }

      .cls-4 {
        clip-path: url(#clippath);
      }
    </style>
    <clipPath id="clippath">
      <rect class="cls-1" x="13.8" y="0" width="19.9" height="30"/>
    </clipPath>
  </defs>
  <!-- Generator: Adobe Illustrator 28.6.0, SVG Export Plug-In . SVG Version: 1.2.0 Build 709)  -->
  <g>
    <g id="Ebene_1">
      <path class="cls-2" d="M47,11.4h2.1s0-4.7-5.1-4.7c0,0-4.4-.5-5.3,3.3,0,0-.5,2.4.8,3.6,1.2,1,2.6,1.7,4.1,1.9,1.3.2,4.2,1.1,3.9,3.7-.3,2.6-7.3,3.6-7.5-1.7h-2.1s-.3,4.8,4.4,5.8c4.8,1,7.5-1.8,7.3-5.1-.2-3.2-3.5-4.1-5.9-4.7-2.4-.5-3.1-1.7-2.9-2.9.2-1.2,1.8-1.7,3-1.7.8,0,1.5.2,2.1.7.6.5,1,1.2,1.1,2ZM52.2,11.6h2.1v9.4h5.1v-9.4h2.2v11.7h-9.4v-11.7ZM71.2,11.7c.4,0,.8,0,1.1.1.7.2,1.3.5,1.7.9.5.5.9,1,1.1,1.7.3.7.4,1.4.4,2.2v1.4c0,.4,0,.8-.1,1.1-.8,4.2-4,4-4,4h-2c-1.1,0-2.1-.6-2.8-1.3l-.3,1.5h-1.8V6.8h2.1v6.1c.8-.8,1.9-1.2,3.1-1.1h1.4ZM72.5,20.3c.5-.5.7-1.1.7-1.7v-2.4c0-.6-.3-1.3-.7-1.7-.5-.5-1.1-.7-1.7-.7h-1.6c-.6,0-1.3.3-1.7.7-.5.5-.7,1.1-.7,1.7v2.4c0,.6.3,1.3.7,1.7.5.5,1.1.7,1.7.7h1.6c.6,0,1.3-.3,1.7-.7ZM75.9,6.8h2.2l3.4,14.2h.4l2.7-14.2h3.9l2.8,14.3h.4l3.4-14.1h2.2l-3.9,16.4h-3.9l-2.8-14.2h-.4l-2.6,14.2h-3.9l-3.9-16.5ZM107.2,11.7v9.3h1.5v2.2h-3.4l-.3-1.3s-1.2,1.8-4.2,1.3c-3-.5-3.7-3.1-3-5.3.7-2.2,3.9-2.1,3.9-2.1h3.3v-2.1h-6.3v-2.1h8.4ZM101.3,21.2c3,.6,3.7-1.8,3.7-1.8v-1.5h-3.3c-1.5.3-1.7,1.1-1.7,1.1,0,.2-.1.5-.1.7,0,.3,0,.5.2.7.1.2.3.4.5.6.2.1.4.2.7.3ZM113.4,7h-2.1v16.3h2.1V7ZM115.8,7h2.1v16.3h-2.1V7ZM126.1,11.8s-4.7-.8-6,3.5c0,0-.8,3.4.5,5.6.5.8,1.2,1.5,2.1,1.9.9.4,1.8.6,2.8.5,3.5-.3,4.7-2.1,4.7-3.5h-2.2s0,1.3-1.9,1.3c0,0-.2,0-.3,0-1.8,0-3.9,0-3.8-2.6h8.5s.8-6.2-4.4-6.7ZM122.1,16.5c0-1.1,1-3,3.6-2.8.7,0,1.4.3,2,.8.5.5.8,1.2.8,2h-6.4ZM136,6.8h-2.1v4.9s-1.9,0-1.9,0v2.2h1.9v9.4h6.9v-2.3h-4.8v-7.2h3.9v-2.1h-4v-4.9Z"/>
      <g class="cls-4">
        <path class="cls-3" d="M33.7,10.8v-4.2L17.1,0l-3.3,1.7v13s12.4,5,12.4,5l-6.6,2.8v-2.2l-3-1.2-2.7,1.3v7.9l3.3,1.7,16.6-7.5v-5.3l-14.9-6v-3.6l11.9,4.8,3.1-1.4Z"/>
      </g>
    </g>
  </g>
</svg>