<?xml version="1.0" encoding="UTF-8"?>
<svg xmlns="http://www.w3.org/2000/svg" version="1.1" viewBox="0 0 155 30">
  <defs>
    <style>
      .cls-1 {
        fill-rule: evenodd;
      }

      .cls-1, .cls-2 {
        fill: #fff;
      }
    </style>
  </defs>
  <!-- Generator: Adobe Illustrator 28.6.0, SVG Export Plug-In . SVG Version: 1.2.0 Build 709)  -->
  <g>
    <g id="Ebene_1">
      <g>
        <path class="cls-2" d="M42.5,24.4h3.8V8.2h7.2v-3.1h-18.1v3.1h7.1v16.2Z"/>
        <path class="cls-2" d="M51.3,20.8c0,2.4,1.9,3.9,4.7,3.9s3.9-1.3,4.5-3.3h1.3c0,2.1.6,2.9,3,2.9h1.5v-2.6h-1.4c-.8,0-.9-.1-.9-.8v-5.5c0-3.3-2.2-5.1-6.2-5.1s-6.4,2-6.7,4l3.2.8c.4-1.4,1.5-2.3,3.5-2.3s2.7.7,2.7,2.1v.5c-2.8.2-5,.8-6.7,1.6-1.7.8-2.5,2.1-2.5,3.8ZM60.5,18.7c0,2.3-1.5,3.5-3.3,3.5s-2.2-.6-2.2-1.7c0-1.8,2-2.5,5.5-2.9v1.1Z"/>
        <path class="cls-2" d="M68.6,24.4h3.6V5.1h-3.6v19.3Z"/>
        <path class="cls-2" d="M76.4,8.5h3.8v-3.4h-3.8v3.4ZM76.5,24.4h3.5v-13.7h-3.5v13.7Z"/>
        <path class="cls-2" d="M83.1,20.8c.6,2.4,3.4,3.9,6.7,3.9s6.4-1.7,6.4-4.4-.5-2.2-1.5-2.9c-1-.7-2.1-1.1-3.5-1.4l-1.9-.3c-1.8-.3-2.2-.7-2.2-1.5s.8-1.5,2.4-1.5,2.7.9,3.2,2.1l3-1.2c-.7-1.7-2.6-3.3-6.1-3.3s-5.9,1.7-5.9,4.3,1.8,3.6,4.7,4.1l1.9.3c1.6.3,2.2.9,2.2,1.7s-.9,1.6-2.6,1.6-3.2-1.2-3.5-2.4l-3.3,1Z"/>
        <path class="cls-2" d="M99.4,24.4h3.6v-6.8c0-1.5.1-2.8,1-3.8.4-.5,1.1-.7,2-.7,1.8,0,2.6,1,2.6,2.9v8.4h3.5v-6.8c0-1.6,0-2.8,1-3.8.4-.5,1.1-.7,2-.7,1.7,0,2.6.9,2.6,2.9v8.4h3.5v-8.9c0-3.3-2-5.2-4.9-5.2s-3.6,1.3-4.2,3.2h-1.3c-.5-2.1-2-3.2-4-3.2s-3.4,1.3-3.9,3.2h-1.7c.6-.8,1.1-2,1.1-2.8h-3.2v13.7Z"/>
        <path class="cls-2" d="M124.6,20.8c0,2.4,1.9,3.9,4.7,3.9s3.9-1.3,4.5-3.3h1.3c0,2.1.6,2.9,3,2.9h1.5v-2.6h-1.4c-.8,0-.9-.1-.9-.8v-5.5c0-3.3-2.2-5.1-6.2-5.1s-6.4,2-6.7,4l3.2.8c.4-1.4,1.5-2.3,3.5-2.3s2.7.7,2.7,2.1v.5c-2.8.2-5,.8-6.7,1.6-1.7.8-2.5,2.1-2.5,3.8ZM133.8,18.7c0,2.3-1.5,3.5-3.3,3.5s-2.2-.6-2.2-1.7c0-1.8,2-2.5,5.5-2.9v1.1Z"/>
        <path class="cls-2" d="M141.9,24.4h3.6v-6.3c0-1.7.1-3.1,1.1-4.2.5-.6,1.3-.9,2.3-.9,1.7,0,2.6,1,2.6,2.9v8.4h3.6v-9c0-3.2-1.7-5.1-5-5.1s-3.9,1.7-4.6,3.6h-1.7c.8-1.1,1.4-2.4,1.4-3.2h-3.3v13.7Z"/>
        <path class="cls-1" d="M26.7,17.1c-.5.5-1.4.3-1.7-.4,0-.1,0-.3,0-.4V5.6c0-1.3-1.1-2.3-2.5-2.3s-2.5,1-2.5,2.3v5.4c0,.5-.5.8-1,.6-.3,0-.5-.3-.5-.6V2.3C18.4,1,17.3,0,15.9,0s-2.5,1-2.5,2.3v8.7c0,.3-.2.6-.5.6-.5.1-1-.2-1-.6v-5.4c0-1.3-1.1-2.3-2.5-2.3-1.4,0-2.5,1-2.5,2.3v10.7c0,.1,0,.3,0,.4-.3.6-1.2.8-1.7.3l-.9-.9c-1-.9-2.5-.9-3.5,0-1,.9-1,2.4,0,3.3l7.3,6.9c1.8,2.2,4.7,3.6,7.9,3.6s5.8-1.3,7.6-3.3l7.6-7.2c1-.9,1-2.4,0-3.3s-2.5-.9-3.5,0l-.9.9ZM15.9,26.3c4.4,0,8-4.7,8-4.7,0,0-3.6-4.7-8-4.7s-8,4.7-8,4.7c0,0,3.6,4.7,8,4.7Z"/>
        <path class="cls-2" d="M18.9,21.6c0,1.6-1.3,2.8-3,2.8s-3-1.3-3-2.8,1.3-2.8,3-2.8,3,1.3,3,2.8Z"/>
      </g>
    </g>
  </g>
</svg>