<svg width="340" height="373" viewBox="0 0 340 373" fill="none" xmlns="http://www.w3.org/2000/svg">
<path d="M201.532 364.049C182.019 375.317 157.981 375.317 138.468 364.049L32.0317 302.587C12.521 291.319 0.5 270.497 0.5 247.962V125.038C0.5 102.503 12.521 81.6813 32.0317 70.4131L138.468 8.95111L138.218 8.51811L138.468 8.9511C157.981 -2.31703 182.019 -2.31703 201.532 8.9511L201.782 8.51811L201.532 8.95111L307.968 70.4131C327.479 81.6813 339.5 102.503 339.5 125.038V247.962C339.5 270.497 327.479 291.319 307.968 302.587L201.532 364.049Z" fill="black" stroke="url(#paint0_linear_431_37783)"/>
<g clip-path="url(#clip0_431_37783)">
<path d="M240.059 252.556C242.814 255.19 245.41 257.671 248.16 260.299C248.486 259.859 249.044 259.242 249.451 258.538C254.176 250.355 252.782 240.079 246.065 233.397C245.41 232.745 244.688 232.15 244.106 231.439C243.188 230.321 243.241 229.098 244.136 227.999C245.084 226.834 246.325 226.554 247.674 227.252C248.249 227.55 248.763 227.995 249.247 228.437C257.315 235.807 259.72 244.987 256.816 255.256C253.869 265.683 246.883 272.557 236.022 274.373C221.783 276.754 207.938 268.308 205.343 252.701C202.887 237.925 211.555 225.12 226.138 222.147C227.857 221.797 228.519 221.174 228.446 219.324C228.287 215.236 228.42 211.138 228.384 207.045C228.365 204.908 227.187 203.629 225.129 203.627C207.968 203.609 190.808 203.627 173.647 203.641C173.396 203.641 173.144 203.718 172.766 203.78V221.497C174.02 221.785 175.291 222.039 176.541 222.37C187.677 225.319 195.612 235.318 196.062 246.947C196.588 260.528 188.22 271.564 174.94 274.315C160.457 277.316 144.827 266.838 143.095 251.494C141.436 236.8 151.775 224.18 164.539 222.028C166.106 221.764 166.69 221.181 166.646 219.482C166.512 214.287 166.597 209.086 166.597 203.728C165.686 203.688 164.982 203.63 164.277 203.63C147.909 203.629 131.54 203.632 115.171 203.64C111.822 203.642 110.865 204.621 110.861 208.03C110.857 212.504 110.86 216.977 110.86 221.356C113.19 221.99 115.328 222.405 117.345 223.15C127.744 226.992 134.556 237.407 134.369 249.025C134.164 261.787 124.55 272.511 111.933 274.657C97.509 277.111 83.8085 266.077 81.4127 252.209C79.7046 242.322 83.3665 234.386 90.5661 227.827C92.0636 226.463 93.797 226.488 94.9728 227.731C96.248 229.079 96.1518 230.753 94.4958 232.218C89.2031 236.901 86.6735 242.731 87.1402 249.783C87.4015 253.727 88.6747 257.325 91.0464 260.193C93.7574 257.598 96.3494 255.116 99.091 252.49C97.3114 249.8 96.0947 246.523 97.4238 243.1C98.2252 241.037 99.5908 238.957 101.249 237.512C104.999 234.242 110.663 234.441 114.582 237.538C119.093 241.102 119.664 245.617 116.498 252.828C117.927 253.959 119.457 254.999 120.774 256.262C122.046 257.483 123.099 258.934 124.404 260.466C124.836 259.898 125.307 259.383 125.663 258.798C133.76 245.513 124.276 227.957 108.719 227.419C105.935 227.323 104.814 226.187 104.804 223.361C104.786 218.145 104.78 212.929 104.804 207.713C104.832 201.573 108.839 197.59 115.02 197.586C131.256 197.575 147.493 197.589 163.73 197.593C164.578 197.593 165.426 197.593 166.372 197.593C166.46 197.018 166.584 196.583 166.585 196.148C166.599 191.196 166.568 186.243 166.614 181.292C166.625 180.098 166.319 179.613 165.008 179.417C152.943 177.616 142.784 172.456 135.815 162.106C120.379 139.175 130.962 103.329 163.47 98.4659C184.185 95.3671 205.899 107.865 209.743 131.826C213.346 154.285 200.117 175.057 175.98 179.095C172.634 179.655 172.627 179.614 172.627 183.053C172.627 187.796 172.627 192.539 172.627 197.595C173.618 197.595 174.447 197.595 175.275 197.595C191.314 197.599 207.352 197.602 223.391 197.609C230.596 197.612 234.384 201.393 234.39 208.589C234.395 213.541 234.418 218.493 234.379 223.445C234.359 226.092 233.121 227.423 230.494 227.352C222.298 227.131 213.391 233.666 211.098 243.875C209.93 249.075 210.514 254.105 213.405 258.72C213.78 259.318 214.229 259.872 214.576 260.351C217.313 257.722 219.931 255.206 222.727 252.52C220.927 249.696 219.901 246.406 221.085 242.73C221.843 240.376 223.212 238.494 225.209 237.077C229.1 234.315 234.665 234.569 238.261 237.64C242.595 241.342 243.126 245.949 240.06 252.555L240.059 252.556ZM195.528 161.961C203.152 154.586 207.42 140.872 202.562 126.809C197.664 112.633 184.482 103.478 168.832 103.877C154.073 104.253 141.162 112.688 136.325 127.951C131.9 141.909 136.714 155.404 143.705 161.865C146.949 155.02 152.061 150.094 159.237 146.96C155.839 143.59 153.985 139.687 154.028 135.158C154.072 130.622 155.795 126.671 159.25 123.608C164.82 118.668 173.043 118.326 178.93 122.771C181.88 124.999 183.879 127.902 184.682 131.512C185.993 137.409 184.343 142.541 180.002 146.982C187.168 150.135 192.229 155.035 195.528 161.961ZM169.671 173.834C176.835 173.712 183.408 171.717 189.403 167.758C190.621 166.955 190.881 166.201 190.317 164.834C186.935 156.641 178.59 150.997 169.688 150.98C160.754 150.963 152.456 156.512 148.979 164.719C148.369 166.157 148.637 166.963 149.918 167.799C155.929 171.721 162.498 173.733 169.67 173.834H169.671ZM186.282 260.169C192.109 254.195 192.119 240.658 184.132 233.083C175.472 224.869 160.882 225.769 153.418 234.937C146.892 242.955 147.866 255.54 153.222 260.259C154.376 258.912 155.434 257.466 156.709 256.246C158.026 254.987 159.555 253.95 160.979 252.824C157.839 245.858 158.324 241.407 162.592 237.774C166.21 234.694 171.569 234.181 175.421 237.023C177.189 238.327 178.723 240.289 179.675 242.281C181.437 245.968 180.226 249.566 178.322 252.505C181.081 255.161 183.623 257.608 186.281 260.168L186.282 260.169ZM179.273 135.386C179.302 130.003 175.036 125.644 169.701 125.606C164.429 125.569 160.011 129.838 159.96 135.019C159.906 140.525 164.183 144.887 169.631 144.882C174.915 144.878 179.245 140.613 179.273 135.386ZM231.367 268.926C235.229 269.018 238.685 267.915 241.96 266.077C243.187 265.389 243.467 264.657 242.701 263.4C240.082 259.103 236.206 256.803 231.273 256.848C226.422 256.891 222.627 259.211 220.074 263.455C219.358 264.646 219.617 265.333 220.751 265.991C224.062 267.915 227.579 269.029 231.367 268.926V268.926ZM169.357 268.913C173.463 268.956 177.002 267.882 180.343 265.998C181.458 265.37 181.604 264.7 180.978 263.624C178.439 259.261 174.593 256.894 169.634 256.892C164.68 256.889 160.835 259.237 158.274 263.596C157.537 264.85 157.945 265.465 159.052 266.079C162.341 267.904 165.821 268.965 169.357 268.914V268.913ZM107.769 268.891C111.659 268.948 115.173 267.834 118.486 265.929C119.563 265.309 119.786 264.673 119.129 263.561C116.563 259.227 112.722 256.912 107.772 256.931C102.906 256.95 99.1248 259.248 96.5763 263.499C95.8418 264.724 96.1902 265.363 97.3107 265.995C100.576 267.838 104.027 268.945 107.769 268.891ZM236.317 245.963C236.326 243.212 234.03 240.895 231.336 240.939C228.697 240.983 226.493 243.227 226.478 245.888C226.461 248.704 228.635 250.872 231.459 250.854C234.171 250.836 236.307 248.686 236.317 245.963ZM174.516 245.912C174.508 243.237 172.255 240.974 169.604 240.981C166.953 240.987 164.713 243.257 164.713 245.935C164.715 248.692 166.837 250.786 169.626 250.781C172.412 250.777 174.524 248.674 174.516 245.912ZM112.718 245.915C112.711 243.253 110.478 241.022 107.824 241.026C105.173 241.03 102.948 243.27 102.949 245.933C102.95 248.664 105.063 250.737 107.843 250.734C110.617 250.732 112.724 248.648 112.718 245.915Z" fill="url(#paint1_linear_431_37783)"/>
</g>
<defs>
<linearGradient id="paint0_linear_431_37783" x1="340" y1="186.5" x2="0" y2="186.5" gradientUnits="userSpaceOnUse">
<stop offset="0.0913122" stop-color="#24AD7C"/>
<stop offset="1" stop-color="#1845B9"/>
</linearGradient>
<linearGradient id="paint1_linear_431_37783" x1="258" y1="186.5" x2="80.9976" y2="186.5" gradientUnits="userSpaceOnUse">
<stop offset="0.0913122" stop-color="#24AD7C"/>
<stop offset="1" stop-color="#1845B9"/>
</linearGradient>
<clipPath id="clip0_431_37783">
<rect width="177" height="177" fill="white" transform="translate(81 98)"/>
</clipPath>
</defs>
</svg>
