<svg width="340" height="373" viewBox="0 0 340 373" fill="none" xmlns="http://www.w3.org/2000/svg">
<path d="M201.532 364.049C182.019 375.317 157.981 375.317 138.468 364.049L32.0317 302.587C12.521 291.319 0.5 270.497 0.5 247.962V125.038C0.5 102.503 12.521 81.6813 32.0317 70.4131L138.468 8.95111L138.218 8.51811L138.468 8.9511C157.981 -2.31703 182.019 -2.31703 201.532 8.9511L201.782 8.51811L201.532 8.95111L307.968 70.4131C327.479 81.6813 339.5 102.503 339.5 125.038V247.962C339.5 270.497 327.479 291.319 307.968 302.587L201.532 364.049Z" fill="black" stroke="url(#paint0_linear_431_37791)"/>
<path d="M219.27 97.7094C219.102 106.121 217.889 114.061 214.195 121.44C212.982 123.862 211.475 126.078 209.397 127.833C206.055 130.656 202.338 131.261 198.433 129.323C196.114 128.173 193.997 126.61 191.757 125.29C189.379 123.887 187.007 122.467 184.556 121.203C177.758 117.695 170.897 117.7 164.173 121.324C160.268 123.429 156.523 125.841 152.735 128.162C150.441 129.565 148.063 130.613 145.315 130.376C142.293 130.116 139.972 128.518 138.043 126.268C134.656 122.315 132.862 117.564 131.586 112.591C129.977 106.329 129.436 99.9538 129.837 93.4936C129.898 92.4975 130.22 91.746 130.974 91.0871C133.851 88.5622 137.262 87.3937 140.964 87.1235C148.624 86.5598 155.828 88.328 162.732 91.6405C165.099 92.7755 167.548 93.7432 169.989 94.711C173.039 95.9181 176.132 95.8769 179.159 94.6466C181.942 93.5142 184.688 92.2813 187.438 91.0639C194.091 88.1221 200.996 86.4878 208.288 87.1441C211.881 87.4658 215.205 88.6291 217.983 91.1051C218.668 91.7151 219.062 92.392 219.082 93.3314C219.115 94.8731 219.211 96.4122 219.27 97.7094ZM182.605 107.304C184.459 109.744 186.525 111.798 189.075 113.314C192.267 115.211 195.553 115.543 198.943 113.878C201.853 112.447 204.157 110.275 206.126 107.719C206.271 107.531 206.21 106.988 206.042 106.772C204.436 104.679 202.559 102.878 200.326 101.475C196.989 99.3824 193.543 98.9603 189.96 100.798C186.989 102.322 184.655 104.589 182.605 107.304ZM166.355 107.307C164.138 104.401 161.621 101.961 158.319 100.489C156.64 99.7401 154.871 99.3978 153.039 99.7504C148.411 100.638 145.325 103.74 142.461 107.286C144.564 110.051 146.937 112.365 149.992 113.87C153.191 115.448 156.34 115.268 159.446 113.554C162.194 112.035 164.374 109.878 166.355 107.31V107.307Z" fill="url(#paint1_linear_431_37791)"/>
<path d="M235.633 252.725V277.394C235.632 277.696 235.713 277.992 235.866 278.254C236.02 278.515 236.242 278.731 236.508 278.881C239.032 280.305 246.389 284.457 250.434 286.731C250.772 286.923 251.295 287.238 251.539 287.119C252.89 286.455 254.215 285.649 255.658 284.832C255.279 284.577 255.083 284.427 254.867 284.304C249.963 281.51 245.06 278.715 240.158 275.921V270.942L244.074 273.163C249.091 276.002 254.109 278.836 259.128 281.666C259.5 281.875 260.054 282.21 260.321 282.084C261.788 281.377 263.193 280.544 264.812 279.648L240.144 265.592V260.66C242.28 261.862 244.405 263.076 246.541 264.281C253.874 268.423 261.205 272.566 268.536 276.711C268.756 276.838 269.006 276.905 269.261 276.905C269.516 276.905 269.766 276.838 269.986 276.711C271.263 275.967 272.548 275.235 273.841 274.513L268.671 271.556L235.633 252.725Z" fill="url(#paint2_linear_431_37791)"/>
<path d="M276.937 246.053C273.631 244.286 270.354 242.479 267.069 240.683L261.899 237.857L257.366 240.325C262.359 243.034 267.353 245.739 272.348 248.44C272.638 248.558 272.882 248.757 273.047 249.01C273.211 249.264 273.289 249.559 273.269 249.856C273.269 251.077 273.269 252.299 273.269 253.52L273.228 253.497C270.733 252.168 263.018 248.198 260.541 246.843C258.064 245.489 255.498 244.089 252.976 242.712L248.165 245.331C254.806 248.933 266.275 254.926 273.283 258.713C273.283 260.33 273.288 261.942 273.3 263.551C273.218 263.495 273.134 263.443 273.046 263.396C263.511 258.213 248.754 250.407 239.232 245.192L243.574 242.828L248.401 240.202L252.767 237.822L257.308 235.348L253.513 233.281C253.202 233.113 252.712 232.878 252.487 232.99C251.744 233.348 251.019 233.732 250.28 234.132L234.082 242.934L233.884 243.031L233.159 243.437L228.368 246.04C228.109 246.15 227.893 246.334 227.75 246.565C227.606 246.796 227.543 247.064 227.568 247.33C227.593 255.856 227.599 264.381 227.585 272.904C227.561 273.188 227.63 273.472 227.784 273.717C227.938 273.962 228.168 274.156 228.444 274.272C229.689 274.917 230.928 275.601 232.163 276.275V270.637C232.14 270.494 232.129 270.349 232.129 270.205C232.17 263.154 232.166 256.103 232.17 249.053L234.39 247.843C242.694 252.359 253.629 258.164 263.401 263.38L263.476 263.418C266.426 264.999 269.269 266.525 271.904 267.934L277.72 271.05C277.72 263.176 277.743 255.301 277.789 247.427C277.813 247.143 277.744 246.86 277.592 246.614C277.439 246.368 277.211 246.172 276.937 246.053Z" fill="url(#paint3_linear_431_37791)"/>
<g clip-path="url(#clip0_431_37791)">
<path d="M88.7277 244.3C94.1333 244.3 98.5154 241.756 98.5154 238.617C98.5154 235.479 94.1333 232.935 88.7277 232.935C83.3221 232.935 78.9399 235.479 78.9399 238.617C78.9399 241.756 83.3221 244.3 88.7277 244.3Z" fill="#E6007A"/>
<path d="M88.7277 287.118C94.1333 287.118 98.5154 284.574 98.5154 281.436C98.5154 278.297 94.1333 275.753 88.7277 275.753C83.3221 275.753 78.9399 278.297 78.9399 281.436C78.9399 284.574 83.3221 287.118 88.7277 287.118Z" fill="#E6007A"/>
<path d="M75.0882 252.165C77.7909 247.492 77.7732 242.431 75.0487 240.861C72.3241 239.29 67.9245 241.806 65.2218 246.479C62.5191 251.152 62.5368 256.213 65.2613 257.784C67.9858 259.354 72.3855 256.839 75.0882 252.165Z" fill="#E6007A"/>
<path d="M112.229 273.572C114.932 268.899 114.915 263.838 112.193 262.269C109.47 260.7 105.072 263.216 102.369 267.889C99.6666 272.562 99.6828 277.623 102.405 279.192C105.128 280.761 109.526 278.245 112.229 273.572Z" fill="#E6007A"/>
<path d="M75.0491 279.192C77.7737 277.622 77.7914 272.56 75.0887 267.887C72.386 263.214 67.9863 260.699 65.2618 262.269C62.5373 263.839 62.5196 268.901 65.2223 273.574C67.925 278.247 72.3246 280.762 75.0491 279.192Z" fill="#E6007A"/>
<path d="M112.196 257.786C114.918 256.216 114.935 251.156 112.232 246.483C109.529 241.81 105.131 239.294 102.408 240.863C99.6857 242.432 99.6695 247.492 102.372 252.166C105.075 256.839 109.473 259.355 112.196 257.786Z" fill="#E6007A"/>
</g>
<g clip-path="url(#clip1_431_37791)">
<path d="M127.105 221.305C125.989 222.826 124.521 223.484 122.635 223.156C122.472 223.129 122.304 223 122.122 223.108L120.367 222.095C120.159 221.503 119.674 221.078 119.456 220.474C118.967 219.135 119.082 217.862 119.774 216.658C122.823 211.344 125.892 206.042 128.955 200.736C132.537 194.533 136.113 188.328 139.709 182.133C140.003 181.623 140.042 181.418 139.377 181.233C137.517 180.716 135.68 180.116 133.834 179.549C133.372 179.407 132.914 179.253 132.833 178.683C132.75 178.103 133.149 177.839 133.571 177.595C139.886 173.952 146.201 170.311 152.512 166.664C152.913 166.432 153.304 166.207 153.771 166.463C154.252 166.725 154.229 167.18 154.23 167.641C154.225 174.823 154.228 181.999 154.23 189.178C154.23 189.358 154.218 189.538 154.226 189.718C154.247 190.162 154.112 190.516 153.678 190.703C153.206 190.908 152.843 190.676 152.521 190.377C151.006 188.975 149.498 187.562 147.985 186.155C147.888 186.063 147.774 185.989 147.669 185.907C147.412 186.049 147.341 186.327 147.21 186.556C140.649 197.909 134.093 209.267 127.535 220.621C127.401 220.854 127.292 221.104 127.107 221.306L127.105 221.305Z" fill="white"/>
<path d="M118.033 168.805C121.342 163.073 124.645 157.334 127.967 151.609C129.231 149.431 131.856 148.775 133.982 150.062C135.901 151.221 136.576 153.762 135.507 155.812C135.361 156.09 135.197 156.36 135.039 156.634C128.531 167.905 122.024 179.177 115.517 190.448C115.09 191.186 115.089 191.188 115.907 191.441C117.753 192.01 119.598 192.579 121.445 193.143C121.899 193.282 122.3 193.469 122.351 194.01C122.399 194.519 122.062 194.769 121.672 194.994C115.28 198.681 108.894 202.374 102.5 206.057C101.587 206.585 100.993 206.169 100.991 205.019C100.986 200.205 100.987 195.392 100.986 190.578C100.986 188.104 100.992 185.63 100.99 183.156C100.99 182.672 100.98 182.187 101.53 181.964C102.063 181.748 102.418 182.055 102.778 182.392C104.203 183.728 105.661 185.033 107.06 186.395C107.523 186.846 107.69 186.734 107.971 186.243C111.313 180.425 114.673 174.617 118.029 168.805L118.033 168.805Z" fill="white"/>
</g>
<g clip-path="url(#clip2_431_37791)">
<path d="M189.373 168.444C188.614 166.718 188.778 165.117 190.005 163.648C190.11 163.52 190.305 163.439 190.302 163.228L192.057 162.214C192.674 162.329 193.285 162.123 193.917 162.235C195.321 162.482 196.366 163.218 197.063 164.419C200.141 169.716 203.197 175.026 206.261 180.331C209.842 186.535 213.427 192.734 216.995 198.945C217.289 199.455 217.447 199.591 217.94 199.109C219.318 197.756 220.756 196.465 222.17 195.15C222.524 194.821 222.886 194.501 223.421 194.716C223.964 194.934 223.993 195.411 223.994 195.899C223.992 203.189 223.987 210.479 223.99 217.768C223.99 218.231 223.989 218.682 223.534 218.959C223.067 219.244 222.685 218.997 222.285 218.767C216.067 215.172 209.851 211.587 203.633 207.998C203.478 207.909 203.328 207.808 203.167 207.725C202.772 207.522 202.534 207.228 202.588 206.758C202.647 206.247 203.029 206.049 203.449 205.919C205.421 205.308 207.399 204.709 209.374 204.102C209.502 204.064 209.623 204.002 209.746 203.952C209.752 203.659 209.546 203.458 209.414 203.23C202.863 191.872 196.304 180.515 189.75 169.159C189.615 168.926 189.453 168.706 189.371 168.445L189.373 168.444Z" fill="white"/>
<path d="M239.375 186.837C242.684 192.57 246.003 198.299 249.3 204.039C250.554 206.222 249.81 208.823 247.632 210.022C245.669 211.103 243.131 210.418 241.89 208.467C241.722 208.202 241.57 207.924 241.412 207.65C234.905 196.379 228.397 185.108 221.89 173.837C221.464 173.099 221.463 173.097 220.835 173.678C219.418 174.993 218.004 176.306 216.591 177.624C216.244 177.947 215.882 178.2 215.388 177.974C214.923 177.761 214.875 177.345 214.875 176.894C214.878 169.516 214.873 162.138 214.88 154.76C214.88 153.705 215.537 153.398 216.534 153.972C220.705 156.375 224.873 158.782 229.042 161.188C231.184 162.425 233.324 163.667 235.468 164.903C235.887 165.144 236.312 165.379 236.23 165.966C236.15 166.536 235.707 166.689 235.235 166.833C233.366 167.399 231.507 168.009 229.628 168.539C229.006 168.715 229.019 168.916 229.304 169.404C232.671 175.208 236.021 181.021 239.377 186.834L239.375 186.837Z" fill="white"/>
</g>
<defs>
<linearGradient id="paint0_linear_431_37791" x1="340" y1="186.5" x2="0" y2="186.5" gradientUnits="userSpaceOnUse">
<stop offset="0.0913122" stop-color="#24AD7C"/>
<stop offset="1" stop-color="#1845B9"/>
</linearGradient>
<linearGradient id="paint1_linear_431_37791" x1="219.27" y1="108.725" x2="129.71" y2="108.725" gradientUnits="userSpaceOnUse">
<stop offset="0.0913122" stop-color="#24AD7C"/>
<stop offset="1" stop-color="#1845B9"/>
</linearGradient>
<linearGradient id="paint2_linear_431_37791" x1="235.637" y1="269.952" x2="273.825" y2="269.952" gradientUnits="userSpaceOnUse">
<stop stop-color="#B000FD"/>
<stop offset="0.0001" stop-color="#B000FD"/>
<stop offset="0.98" stop-color="#30DAFF"/>
</linearGradient>
<linearGradient id="paint3_linear_431_37791" x1="227.568" y1="254.639" x2="277.772" y2="254.639" gradientUnits="userSpaceOnUse">
<stop stop-color="#B000FD"/>
<stop offset="0.0001" stop-color="#B000FD"/>
<stop offset="0.98" stop-color="#30DAFF"/>
</linearGradient>
<clipPath id="clip0_431_37791">
<rect width="51.0425" height="54.1835" fill="white" transform="translate(63.2061 232.935)"/>
</clipPath>
<clipPath id="clip1_431_37791">
<rect width="69.1924" height="49.9012" fill="white" transform="translate(166.516 168.843) rotate(120)"/>
</clipPath>
<clipPath id="clip2_431_37791">
<rect width="69.1924" height="49.9012" fill="white" transform="translate(215.101 228.807) rotate(-120)"/>
</clipPath>
</defs>
</svg>
